<svg xmlns="http://www.w3.org/2000/svg" viewBox="0 0 80.68 115.39"><defs><style>.cls-1{isolation:isolate;}.cls-2{mix-blend-mode:multiply;}.cls-3{fill:#e8e8e8;}.cls-4{fill:#ffdda8;}.cls-5{fill:#f9c98a;}.cls-6{fill:#dda866;}.cls-7{fill:#bc7c46;}.cls-8{fill:#4f2e16;}.cls-9{fill:#e5e0dc;}.cls-10{fill:#b2aeab;}.cls-11{fill:#9b7451;}.cls-12{fill:#a67f58;}.cls-13{fill:#caaf8f;}</style></defs><g class="cls-1"><g id="Layer_2" data-name="Layer 2"><g id="Layer_1-2" data-name="Layer 1"><g class="cls-2"><polygon class="cls-3" points="0 89.44 44.95 115.39 75.88 97.53 30.93 71.58 0 89.44"/></g><path class="cls-4" d="M68.72,8.55h0L65.88,6.92,53.92,0,42,6.91,39.12,8.55l-12,6.91,12,6.92L41.93,24l12,6.92L65.9,24l2.85-1.64,11.93-6.89h0Z"/><polygon class="cls-5" points="27.72 15.46 53.92 0.33 80.11 15.47 53.9 30.61 27.72 15.46"/><path class="cls-6" d="M68.72,22.38,65.88,24l-12,6.91V110l12-6.85,2.84-1.63,12-6.85V15.46Z"/><path class="cls-7" d="M42,24l-2.84-1.63-12-6.92V94.71l12,6.85L42,103.19l12,6.85V30.92Z"/><polygon class="cls-8" points="72.61 26.97 72.47 27.05 72.47 24.62 72.61 24.54 72.61 26.97"/><polygon class="cls-8" points="73.11 24.79 73.01 24.95 72.54 24.64 72.07 25.5 71.97 25.45 72.54 24.41 73.11 24.79"/><polygon class="cls-8" points="74.01 26.16 73.87 26.25 73.87 23.82 74.01 23.73 74.01 26.16"/><polygon class="cls-8" points="74.51 23.98 74.4 24.15 73.94 23.84 73.47 24.69 73.37 24.64 73.94 23.6 74.51 23.98"/><path class="cls-8" d="M74.54,25.94l-2.6,1.5s-.07,0-.07,0a.15.15,0,0,1,.07-.12l2.6-1.51s.07,0,.07.05A.15.15,0,0,1,74.54,25.94Z"/><path class="cls-8" d="M74.52,26.59,72,28.08c-.27.15-.49,0-.49-.29v-3A1.06,1.06,0,0,1,72,24l2.56-1.48c.27-.16.49,0,.49.28v3A1.06,1.06,0,0,1,74.52,26.59ZM72,24.15a.77.77,0,0,0-.35.6v3c0,.22.16.31.35.2l2.56-1.48a.77.77,0,0,0,.35-.6v-3c0-.22-.16-.31-.35-.2Z"/><path class="cls-8" d="M78.61,24.22,76.05,25.7c-.27.15-.48,0-.48-.28v-3a1.09,1.09,0,0,1,.48-.85l2.56-1.48c.27-.15.49,0,.49.28v3A1.1,1.1,0,0,1,78.61,24.22Zm-2.56-2.45a.79.79,0,0,0-.35.61v3c0,.22.16.31.35.2l2.56-1.48a.76.76,0,0,0,.36-.61V20.5c0-.23-.16-.32-.36-.2Z"/><path class="cls-8" d="M77.33,24.15s-.07,0-.07,0V22a.17.17,0,0,1,.07-.13s.07,0,.07,0V24A.14.14,0,0,1,77.33,24.15Z"/><path class="cls-8" d="M77.65,24l-.63.37s-.08,0-.08,0a.18.18,0,0,1,.08-.13l.63-.36s.07,0,.07,0A.15.15,0,0,1,77.65,24Z"/><path class="cls-8" d="M78,21.29v1a1,1,0,0,1-.42.73l-.51.29c-.23.13-.42,0-.42-.24v-1l.25-.15V23s0,.06.07,0a.15.15,0,0,0,.07-.12V21.84Z"/><polygon class="cls-9" points="78.79 34.4 72.33 38.13 72.33 32.58 78.79 28.85 78.79 34.4"/><polygon class="cls-8" points="78.18 30.51 72.95 33.53 72.95 32.91 78.18 29.89 78.18 30.51"/><polygon class="cls-10" points="78.18 31.63 72.95 34.65 72.95 34.38 78.18 31.36 78.18 31.63"/><polygon class="cls-10" points="78.18 32.36 72.95 35.38 72.95 35.1 78.18 32.08 78.18 32.36"/><polygon class="cls-10" points="78.18 33.14 72.95 36.16 72.95 35.89 78.18 32.87 78.18 33.14"/><polygon class="cls-10" points="78.18 33.87 72.95 36.89 72.95 36.62 78.18 33.6 78.18 33.87"/><polygon class="cls-11" points="41.95 24.01 41.95 103.19 39.11 101.56 39.11 22.38 41.95 24.01"/><polygon class="cls-12" points="68.72 22.38 68.72 101.56 65.88 103.19 65.88 24.01 68.72 22.38"/><polygon class="cls-13" points="68.75 22.37 65.9 24.01 53.92 17.09 51.09 15.45 39.12 8.55 41.96 6.91 53.92 13.81 56.77 15.45 68.75 22.37"/><polygon class="cls-13" points="68.71 8.55 56.77 15.45 53.92 17.09 41.93 24.02 39.09 22.38 51.09 15.45 53.92 13.81 65.88 6.92 68.71 8.55"/></g></g></g></svg>