<svg xmlns="http://www.w3.org/2000/svg" viewBox="0 0 73.53 57.73"><defs><style>.cls-1{isolation:isolate;}.cls-2{mix-blend-mode:multiply;}.cls-3{fill:#e8e8e8;}.cls-4{fill:#aa6838;}.cls-5{fill:#c68b51;}.cls-6{fill:#ffdda8;}.cls-7{fill:#dda866;}.cls-8{fill:#bc7c46;}</style></defs><g class="cls-1"><g id="Layer_2" data-name="Layer 2"><g id="Layer_1-2" data-name="Layer 1"><g class="cls-2"><polygon class="cls-3" points="0 32.59 43.55 57.73 73.51 40.43 29.97 15.29 0 32.59"/></g><path class="cls-4" d="M60.37,30.55c-.15.09-2,6.69-2,6.69l3.31,3.55s6.44-4.71,6.28-4.65,1.73-8,1.73-8Z"/><polygon class="cls-5" points="65.75 36.85 58.93 40.79 43.8 32.06 50.62 28.12 65.75 36.85"/><path class="cls-6" d="M39.27,0,13.32,15,47.58,34.76l25.93-15h0ZM30.78,12.91l-6.51,3.76c-.72.41-1.3.08-1.3-.75a2.87,2.87,0,0,1,1.3-2.25l6.51-3.76c.72-.42,1.3-.08,1.3.75A2.87,2.87,0,0,1,30.78,12.91Z"/><path class="cls-4" d="M39.27.53,14.23,15,32.45,25.5l6.82-3.94L54.4,30.3,72.62,19.78ZM30.78,12.91l-6.51,3.76c-.72.41-1.3.08-1.3-.75a2.87,2.87,0,0,1,1.3-2.25l6.51-3.76c.72-.42,1.3-.08,1.3.75A2.87,2.87,0,0,1,30.78,12.91Z"/><path class="cls-7" d="M14.23,15,32.45,25.5l6.82-3.94V.53Zm16.55-2.07-6.51,3.76c-.72.41-1.3.08-1.3-.75a2.87,2.87,0,0,1,1.3-2.25l6.51-3.76c.72-.42,1.3-.08,1.3.75A2.87,2.87,0,0,1,30.78,12.91Z"/><polygon class="cls-5" points="54.4 30.3 47.58 34.24 32.45 25.5 39.27 21.57 54.4 30.3"/><polygon class="cls-8" points="47.58 55.28 47.58 34.76 13.32 14.98 13.32 35.66 47.58 55.28"/><path class="cls-7" d="M47.58,34.76V55.28L73.51,40.43V19.79ZM65.23,33.7l-6.52,3.77c-.71.41-1.29.07-1.29-.76a2.62,2.62,0,0,1,.38-1.28,2.75,2.75,0,0,1,.91-1l6.52-3.76c.72-.41,1.3-.08,1.3.75A2.86,2.86,0,0,1,65.23,33.7Z"/><path class="cls-6" d="M66.53,31.45a2.86,2.86,0,0,1-1.3,2.25l-6.52,3.77a.81.81,0,0,1-1.1-.08,1,1,0,0,0,.78-.15l6.51-3.76a2.87,2.87,0,0,0,1.3-2.25,1.12,1.12,0,0,0-.19-.68C66.33,30.64,66.53,31,66.53,31.45Z"/><path class="cls-6" d="M32.08,10.66a2.87,2.87,0,0,1-1.3,2.25l-6.51,3.76c-.51.29-.95.21-1.16-.15A1,1,0,0,0,24,16.4l6.52-3.77a2.86,2.86,0,0,0,1.3-2.25,1.11,1.11,0,0,0-.15-.6A.87.87,0,0,1,32.08,10.66Z"/></g></g></g></svg>