<svg xmlns="http://www.w3.org/2000/svg" viewBox="0 0 79.18 103.72"><defs><style>.cls-1{isolation:isolate;}.cls-2{mix-blend-mode:multiply;}.cls-3{fill:#e8e8e8;}.cls-4{fill:#ffdda8;}.cls-5{fill:#f9c98a;}.cls-6{fill:#bc7c46;}.cls-7{fill:#dda866;}.cls-8{fill:#9b7451;}.cls-9{fill:#caaf8f;}.cls-10{fill:#4f2e16;}</style></defs><g class="cls-1"><g id="Layer_2" data-name="Layer 2"><g id="Layer_1-2" data-name="Layer 1"><g class="cls-2"><polygon class="cls-3" points="0 86.2 30.27 103.72 76.74 77.02 30 68.9 0 86.2"/></g><path class="cls-4" d="M68.05,7.69,64.82,5.83,54.73,0,12.31,24.39,22.4,30.21l3.25,1.87,11.13,6.43L79.15,14.13h0Z"/><path class="cls-5" d="M54.73.52,13.22,24.39,36.78,37.83,78.26,14.12Z"/><polygon class="cls-6" points="36.78 38.51 36.75 99.9 25.57 93.52 22.32 91.67 12.31 85.95 12.31 24.39 36.78 38.51"/><path class="cls-7" d="M36.78,38.51l0,61.39L79.18,75.64V14.13Z"/><polygon class="cls-8" points="25.57 32.13 25.57 93.52 22.32 91.67 22.32 30.27 25.57 32.13"/><polygon class="cls-9" points="68.05 7.69 42.52 22.34 39.28 24.22 25.64 32.08 25.55 32.14 22.31 30.27 22.4 30.21 36.03 22.34 39.28 20.46 64.82 5.83 68.05 7.69"/><polygon class="cls-10" points="42.14 45.68 41.91 45.81 41.91 41.72 42.14 41.58 42.14 45.68"/><polygon class="cls-10" points="42.99 41.99 42.81 42.28 42.03 41.75 41.23 43.19 41.06 43.1 42.03 41.35 42.99 41.99"/><polygon class="cls-10" points="44.5 44.32 44.27 44.46 44.27 40.35 44.5 40.22 44.5 44.32"/><polygon class="cls-10" points="45.34 40.63 45.17 40.92 44.38 40.39 43.59 41.83 43.42 41.75 44.38 39.99 45.34 40.63"/><path class="cls-10" d="M45.4,43.93,41,46.47c-.06,0-.11,0-.11-.07a.27.27,0,0,1,.11-.2l4.4-2.54c.07,0,.12,0,.12.07A.25.25,0,0,1,45.4,43.93Z"/><path class="cls-10" d="M45.36,45,41,47.54c-.45.26-.82.05-.82-.47v-5A1.82,1.82,0,0,1,41,40.65l4.32-2.5c.46-.26.83,0,.83.47v5A1.81,1.81,0,0,1,45.36,45ZM41,40.92a1.3,1.3,0,0,0-.59,1v5c0,.37.27.53.59.34l4.32-2.5a1.29,1.29,0,0,0,.59-1v-5c0-.38-.26-.53-.59-.34Z"/><path class="cls-10" d="M49.53,41.87a.07.07,0,0,1-.12-.06V38.23a.28.28,0,0,1,.12-.2c.07,0,.12,0,.12.07v3.57A.24.24,0,0,1,49.53,41.87Z"/><path class="cls-10" d="M51.69,41.3l-4.32,2.49c-.45.27-.82.05-.82-.47v-5a1.82,1.82,0,0,1,.82-1.43l4.32-2.5c.46-.26.83,0,.83.48v5A1.82,1.82,0,0,1,51.69,41.3Zm-4.32-4.13a1.3,1.3,0,0,0-.59,1v5c0,.38.26.53.59.34L51.69,41a1.3,1.3,0,0,0,.59-1V35c0-.37-.26-.52-.59-.34Z"/><path class="cls-10" d="M51.32,38.27c-.17-.66-.91-.81-1.79-.3a3.89,3.89,0,0,0-1.78,2.36Z"/><path class="cls-10" d="M48.91,37.88c-.07,0-.12,0-.12-.07v-.87a.26.26,0,0,1,.12-.21.08.08,0,0,1,.12.07v.87A.28.28,0,0,1,48.91,37.88Z"/><path class="cls-10" d="M49.53,37.52c-.06,0-.12,0-.12-.07v-.87a.28.28,0,0,1,.12-.21c.07,0,.12,0,.12.07v.87A.26.26,0,0,1,49.53,37.52Z"/><path class="cls-10" d="M50.15,37.16c-.06,0-.11,0-.11-.07v-.87a.24.24,0,0,1,.11-.2c.07,0,.12,0,.12.06V37A.25.25,0,0,1,50.15,37.16Z"/><path class="cls-10" d="M51.67,49.28l-4.32,2.5c-.45.26-.82,0-.82-.48v-5a1.84,1.84,0,0,1,.82-1.43l4.36-2.5c.45-.26.83-.05.83.48l0,5A1.81,1.81,0,0,1,51.67,49.28Zm-4.32-4.13a1.33,1.33,0,0,0-.59,1v5c0,.37.27.52.59.34L51.67,49a1.3,1.3,0,0,0,.59-1l0-5c0-.38-.26-.53-.59-.34Z"/><path class="cls-10" d="M49.51,49.17a.07.07,0,0,1-.12-.07V45.53a.28.28,0,0,1,.12-.21c.07,0,.12,0,.12.07V49A.26.26,0,0,1,49.51,49.17Z"/><path class="cls-10" d="M50.05,48.86,49,49.48c-.07,0-.12,0-.12-.07a.23.23,0,0,1,.12-.2l1.07-.62a.07.07,0,0,1,.12.06A.28.28,0,0,1,50.05,48.86Z"/><path class="cls-10" d="M50.65,44.34V46a1.57,1.57,0,0,1-.71,1.23l-.86.5c-.39.22-.71,0-.71-.41V45.65l.43-.24v1.78c0,.07.05.11.12.07a.28.28,0,0,0,.12-.2V45.27Z"/><polygon class="cls-10" points="42.05 50.45 42.9 50.94 42.05 52.41 42.05 50.45"/><polygon class="cls-10" points="44.03 48.98 43.2 50.42 42.37 49.94 44.03 48.98"/><polygon class="cls-10" points="43.2 51.11 44.11 51.64 42.3 52.69 43.2 51.11"/><polygon class="cls-10" points="44.39 49.05 44.39 51.1 43.5 50.59 44.39 49.05"/><polygon class="cls-10" points="44.74 51.83 41.52 49.96 41.66 49.7 44.89 51.57 44.74 51.83"/><polygon class="cls-10" points="41.66 53.6 41.52 53.52 44.74 47.93 44.89 48.02 41.66 53.6"/><polygon class="cls-10" points="44.92 51.17 44.71 51.29 44.71 48.59 44.92 48.47 44.92 51.17"/><polygon class="cls-10" points="41.7 53.03 41.48 53.15 41.48 50.45 41.7 50.33 41.7 53.03"/><polygon class="cls-10" points="46.07 49.25 45.55 49.55 45.55 49.36 46.07 49.06 46.07 49.25"/><polygon class="cls-10" points="45.66 48.93 44.98 49.79 45.66 49.85 45.66 48.93"/><polygon class="cls-10" points="40.9 52.23 40.37 52.54 40.37 52.35 40.9 52.05 40.9 52.23"/><polygon class="cls-10" points="40.78 52.67 41.47 51.81 40.78 51.75 40.78 52.67"/><path class="cls-10" d="M45.44,53,41,55.54c-.41.23-.74,0-.74-.43V50A1.62,1.62,0,0,1,41,48.67l4.47-2.58c.4-.24.74-.05.74.42v5.16A1.64,1.64,0,0,1,45.44,53ZM41,48.91a1.18,1.18,0,0,0-.53.92V55c0,.33.24.47.53.3l4.47-2.58A1.18,1.18,0,0,0,46,51.8V46.63c0-.33-.24-.47-.53-.3Z"/></g></g></g></svg>