<svg xmlns="http://www.w3.org/2000/svg" viewBox="0 0 87.69 79.89"><defs><style>.cls-1{isolation:isolate;}.cls-2{mix-blend-mode:multiply;}.cls-3{fill:#e8e8e8;}.cls-4{fill:#ffdda8;}.cls-5{fill:#f9c98a;}.cls-6{fill:#bc7c46;}.cls-7{fill:#dda866;}.cls-8{fill:#4f2e16;}.cls-9{fill:#9b7451;}.cls-10{fill:#caaf8f;}</style></defs><g class="cls-1"><g id="Layer_2" data-name="Layer 2"><g id="Layer_1-2" data-name="Layer 1"><g class="cls-2"><polygon class="cls-3" points="0 54.75 43.55 79.89 73.51 62.59 29.97 37.45 0 54.75"/></g><path class="cls-4" d="M72.58,11.55,66.49,8,52.58,0,18.23,19.83l13.93,8.05,6.07,3.51,15.1,8.72L87.67,20.28h0Z"/><path class="cls-5" d="M52.58.53,19.16,19.83,37.83,30.61l7,4,8.51,4.77,7-3.89L86.76,20.27Z"/><polygon class="cls-6" points="53.34 40.1 53.34 74.26 38.27 65.63 32.16 62.14 18.23 54.15 18.23 19.83 32.16 27.88 38.27 31.39 53.34 40.1"/><path class="cls-7" d="M53.34,40.11V74.26L87.67,54.55V20.28Z"/><polygon class="cls-8" points="72 38.29 71.82 38.4 71.82 35.21 72 35.1 72 38.29"/><polygon class="cls-8" points="72.66 35.42 72.53 35.65 71.91 35.24 71.3 36.36 71.16 36.29 71.91 34.93 72.66 35.42"/><polygon class="cls-8" points="73.84 37.23 73.66 37.34 73.66 34.15 73.84 34.05 73.84 37.23"/><polygon class="cls-8" points="74.5 34.36 74.36 34.59 73.75 34.18 73.13 35.3 73 35.23 73.75 33.87 74.5 34.36"/><path class="cls-8" d="M74.54,36.94l-3.42,2c-.05,0-.09,0-.09,0a.2.2,0,0,1,.09-.16l3.42-2s.09,0,.09.06A.22.22,0,0,1,74.54,36.94Z"/><path class="cls-8" d="M74.51,37.8l-3.36,1.94c-.36.21-.65,0-.65-.37V35.49a1.43,1.43,0,0,1,.65-1.12l3.36-1.94c.36-.2.65,0,.65.37v3.89A1.4,1.4,0,0,1,74.51,37.8Zm-3.36-3.21a1,1,0,0,0-.46.79v3.89c0,.29.2.41.46.26l3.36-1.94a1,1,0,0,0,.46-.8V32.91c0-.29-.2-.41-.46-.27Z"/><path class="cls-8" d="M77.86,35.33s-.09,0-.09,0V32.5a.2.2,0,0,1,.09-.16s.1,0,.1,0v2.78A.21.21,0,0,1,77.86,35.33Z"/><path class="cls-8" d="M79.55,34.88l-3.37,1.95c-.35.2-.64,0-.64-.37V32.57a1.42,1.42,0,0,1,.64-1.11l3.37-1.95c.35-.2.64,0,.64.37v3.89A1.42,1.42,0,0,1,79.55,34.88Zm-3.37-3.21a1,1,0,0,0-.46.79v3.89c0,.29.21.41.46.26l3.37-1.94a1,1,0,0,0,.46-.79V30c0-.29-.21-.41-.46-.26Z"/><path class="cls-8" d="M79.25,32.52c-.13-.51-.7-.62-1.39-.23a3.09,3.09,0,0,0-1.39,1.84Z"/><path class="cls-8" d="M77.38,32.22a.06.06,0,0,1-.09,0v-.68a.2.2,0,0,1,.09-.16c.05,0,.09,0,.09.05v.68A.2.2,0,0,1,77.38,32.22Z"/><path class="cls-8" d="M77.86,31.94s-.09,0-.09-.05v-.68a.2.2,0,0,1,.09-.16s.1,0,.1.05v.68A.21.21,0,0,1,77.86,31.94Z"/><path class="cls-8" d="M78.35,31.66s-.09,0-.09-.05v-.68a.2.2,0,0,1,.09-.16.06.06,0,0,1,.09.05v.68A.2.2,0,0,1,78.35,31.66Z"/><path class="cls-8" d="M84.54,32l-3.37,2c-.35.2-.64,0-.64-.38V29.7a1.45,1.45,0,0,1,.64-1.12l3.37-1.94c.35-.2.64,0,.64.37V30.9A1.42,1.42,0,0,1,84.54,32ZM81.17,28.8a1,1,0,0,0-.46.79v3.89a.28.28,0,0,0,.46.27l3.37-1.95A1,1,0,0,0,85,31V27.12a.28.28,0,0,0-.46-.27Z"/><path class="cls-8" d="M82.86,31.92s-.1,0-.1-.05V29.09a.21.21,0,0,1,.1-.16s.09,0,.09.05v2.79A.19.19,0,0,1,82.86,31.92Z"/><path class="cls-8" d="M83.27,31.68l-.83.48s-.09,0-.09,0a.2.2,0,0,1,.09-.16l.83-.48a.06.06,0,0,1,.09.05A.2.2,0,0,1,83.27,31.68Z"/><path class="cls-8" d="M83.74,28.16v1.3a1.19,1.19,0,0,1-.55.95l-.67.39c-.31.18-.55,0-.55-.31v-1.3l.33-.2v1.4a.06.06,0,0,0,.09.05.21.21,0,0,0,.1-.16V28.89Z"/><polygon class="cls-9" points="38.27 24.32 38.27 65.63 32.16 62.14 32.16 27.85 38.27 24.32"/><polygon class="cls-10" points="72.58 11.55 38.27 31.36 38.23 31.39 32.16 27.88 32.16 27.85 38.27 24.32 66.49 8.03 72.58 11.55"/></g></g></g></svg>