<svg xmlns="http://www.w3.org/2000/svg" viewBox="0 0 78.53 73.61"><defs><style>.cls-1{isolation:isolate;}.cls-2{mix-blend-mode:multiply;}.cls-3{fill:#e8e8e8;}.cls-4{fill:#ffdda8;}.cls-5{fill:#f9c98a;}.cls-6{fill:#bc7c46;}.cls-7{fill:#dda866;}.cls-8{fill:#4f2e16;}.cls-9{fill:#9b7451;}.cls-10{fill:#a57b58;}.cls-11{fill:#caaf8f;}.cls-12{fill:#e5e0dc;}.cls-13{fill:#b2aeab;}</style></defs><g class="cls-1"><g id="Layer_2" data-name="Layer 2"><g id="Layer_1-2" data-name="Layer 1"><g class="cls-2"><polygon class="cls-3" points="0 48.47 43.55 73.61 73.51 56.31 29.97 31.17 0 48.47"/></g><path class="cls-4" d="M60,9.56,56.76,7.69,43.44,0,20.29,13.24,33.71,21l.52.31L37,22.87,55.4,33.52,78.52,20.28h0Z"/><path class="cls-5" d="M43.43.53,21.22,13.25,55.4,32.83,77.61,20.27Z"/><polygon class="cls-6" points="55.4 33.51 55.4 67.67 40.32 59.04 36.95 57.11 34.23 55.55 33.7 55.25 20.29 47.57 20.29 13.24 34.23 21.3 40.32 24.81 55.4 33.51"/><path class="cls-7" d="M55.4,33.52V67.67L78.52,54.56V20.28Z"/><polygon class="cls-8" points="65 58.11 64.75 58.26 64.75 53.88 65 53.74 65 58.11"/><polygon class="cls-8" points="65.9 54.17 65.72 54.48 64.88 53.92 64.03 55.46 63.85 55.36 64.88 53.49 65.9 54.17"/><polygon class="cls-8" points="67.52 56.66 67.27 56.8 67.27 52.43 67.52 52.28 67.52 56.66"/><polygon class="cls-8" points="68.42 52.72 68.23 53.03 67.39 52.47 66.55 54 66.36 53.91 67.39 52.04 68.42 52.72"/><path class="cls-8" d="M68.48,56.25,63.79,59c-.07,0-.13,0-.13-.08a.27.27,0,0,1,.13-.21L68.48,56c.07,0,.12,0,.12.07A.27.27,0,0,1,68.48,56.25Z"/><path class="cls-8" d="M68.44,57.43,63.83,60.1c-.49.28-.88,0-.88-.51V54.26a1.93,1.93,0,0,1,.88-1.52l4.61-2.67c.49-.28.88,0,.88.51v5.33A1.93,1.93,0,0,1,68.44,57.43ZM63.83,53a1.39,1.39,0,0,0-.63,1.09v5.32c0,.4.28.57.63.37l4.61-2.67a1.38,1.38,0,0,0,.63-1.08V50.73c0-.4-.28-.57-.63-.37Z"/><path class="cls-8" d="M73,54.05c-.07,0-.12,0-.12-.08V50.16a.27.27,0,0,1,.12-.22c.07,0,.13,0,.13.08v3.81A.29.29,0,0,1,73,54.05Z"/><path class="cls-8" d="M75.34,53.44,70.73,56.1c-.49.28-.89,0-.89-.51V50.26a1.94,1.94,0,0,1,.89-1.52l4.61-2.67c.48-.28.88,0,.88.52v5.32A2,2,0,0,1,75.34,53.44ZM70.73,49a1.39,1.39,0,0,0-.63,1.09v5.33c0,.4.28.56.63.36l4.61-2.66A1.4,1.4,0,0,0,76,52.06V46.73c0-.4-.28-.56-.63-.36Z"/><path class="cls-8" d="M74.94,50.2c-.18-.7-1-.86-1.91-.32a4.18,4.18,0,0,0-1.9,2.52Z"/><path class="cls-8" d="M72.37,49.78c-.07,0-.13,0-.13-.07v-.93a.25.25,0,0,1,.13-.21c.07,0,.12,0,.12.07v.93A.26.26,0,0,1,72.37,49.78Z"/><path class="cls-8" d="M73,49.4c-.07,0-.12,0-.12-.07V48.4a.27.27,0,0,1,.12-.22c.07,0,.13,0,.13.07v.93A.29.29,0,0,1,73,49.4Z"/><path class="cls-8" d="M73.7,49c-.07,0-.13,0-.13-.07V48a.29.29,0,0,1,.13-.22c.07,0,.12,0,.12.07v.93A.27.27,0,0,1,73.7,49Z"/><polygon class="cls-9" points="36.95 22.88 36.95 57.11 34.23 55.55 33.7 55.25 33.7 21.01 36.95 22.88"/><polygon class="cls-10" points="66.7 26.99 66.7 40.74 69.95 38.89 69.95 25.13 66.7 26.99"/><polygon class="cls-11" points="60 9.56 53.9 13.1 50.65 14.97 37.02 22.83 36.95 22.87 36.93 22.88 33.68 21.01 33.71 20.99 33.78 20.96 47.4 13.1 50.65 11.22 56.76 7.69 60 9.56"/><polygon class="cls-11" points="31.68 6.72 42.74 13.09 45.99 14.97 59.62 22.83 66.7 27.03 69.95 25.16 62.87 20.96 49.24 13.09 45.99 11.21 34.92 4.86 31.68 6.72"/><polygon class="cls-12" points="75.31 41.8 62.57 49.15 62.57 38.2 75.31 30.85 75.31 41.8"/><polygon class="cls-8" points="74.1 34.13 63.78 40.09 63.78 38.87 74.1 32.91 74.1 34.13"/><polygon class="cls-13" points="74.1 36.34 63.78 42.29 63.78 41.76 74.1 35.8 74.1 36.34"/><polygon class="cls-13" points="74.1 37.78 63.78 43.73 63.78 43.19 74.1 37.23 74.1 37.78"/><polygon class="cls-13" points="74.1 39.32 63.78 45.28 63.78 44.74 74.1 38.78 74.1 39.32"/><polygon class="cls-13" points="74.1 40.76 63.78 46.72 63.78 46.18 74.1 40.22 74.1 40.76"/></g></g></g></svg>