<svg xmlns="http://www.w3.org/2000/svg" viewBox="0 0 87.69 63.87"><defs><style>.cls-1{isolation:isolate;}.cls-2{mix-blend-mode:multiply;}.cls-3{fill:#e8e8e8;}.cls-4{fill:#ffdda8;}.cls-5{fill:#f9c98a;}.cls-6{fill:#bc7c46;}.cls-7{fill:#dda866;}.cls-8{fill:#4f2e16;}.cls-9{fill:#9b7451;}.cls-10{fill:#caaf8f;}.cls-11{fill:#e5e0dc;}.cls-12{fill:#b2aeab;}</style></defs><g class="cls-1"><g id="Layer_2" data-name="Layer 2"><g id="Layer_1-2" data-name="Layer 1"><g class="cls-2"><polygon class="cls-3" points="0 38.73 43.55 63.88 73.51 46.57 29.97 21.43 0 38.73"/></g><path class="cls-4" d="M52.58,0,18.23,19.83l35.1,20.28L87.67,20.27h0Z"/><path class="cls-5" d="M52.58.53,19.16,19.83,53.34,39.42,86.76,20.27Z"/><polygon class="cls-6" points="53.34 40.1 53.34 58.25 38.27 49.61 32.16 46.12 18.23 38.14 18.23 19.83 53.34 40.1"/><path class="cls-7" d="M53.34,40.11V58.24l34.33-19.7V20.27Z"/><polygon class="cls-8" points="57.92 51.27 57.73 51.37 57.73 48.18 57.92 48.08 57.92 51.27"/><polygon class="cls-8" points="58.58 48.4 58.44 48.62 57.83 48.21 57.21 49.33 57.07 49.26 57.83 47.9 58.58 48.4"/><polygon class="cls-8" points="59.75 50.21 59.57 50.31 59.57 47.12 59.75 47.02 59.75 50.21"/><polygon class="cls-8" points="60.41 47.34 60.27 47.56 59.66 47.15 59.04 48.27 58.91 48.2 59.66 46.84 60.41 47.34"/><path class="cls-8" d="M60.45,49.91l-3.42,2c-.05,0-.09,0-.09-.05a.2.2,0,0,1,.09-.16l3.42-2s.09,0,.09,0A.2.2,0,0,1,60.45,49.91Z"/><path class="cls-8" d="M60.42,50.77l-3.36,1.95c-.36.2-.64,0-.64-.37V48.46a1.39,1.39,0,0,1,.64-1.11l3.36-2c.36-.2.65,0,.65.37v3.89A1.4,1.4,0,0,1,60.42,50.77Zm-3.36-3.21a1,1,0,0,0-.46.79v3.89c0,.29.21.41.46.26l3.36-1.94a1,1,0,0,0,.46-.79V45.88c0-.29-.2-.41-.46-.27Z"/><path class="cls-8" d="M63.78,48.3c-.05,0-.1,0-.1,0V45.47a.21.21,0,0,1,.1-.16s.09,0,.09,0v2.79A.2.2,0,0,1,63.78,48.3Z"/><path class="cls-8" d="M65.46,47.86,62.09,49.8c-.35.2-.64,0-.64-.37V45.54a1.42,1.42,0,0,1,.64-1.11l3.37-2c.35-.2.64,0,.64.38v3.88A1.45,1.45,0,0,1,65.46,47.86Zm-3.37-3.22a1,1,0,0,0-.46.79v3.89c0,.3.21.41.46.27l3.37-2a1,1,0,0,0,.46-.79V43c0-.29-.21-.41-.46-.26Z"/><path class="cls-8" d="M65.17,45.5c-.14-.52-.71-.63-1.39-.24a3,3,0,0,0-1.39,1.84Z"/><path class="cls-8" d="M63.29,45.19s-.09,0-.09,0v-.68a.2.2,0,0,1,.09-.16.06.06,0,0,1,.09.05V45A.2.2,0,0,1,63.29,45.19Z"/><path class="cls-8" d="M63.78,44.91c-.05,0-.1,0-.1,0v-.68a.21.21,0,0,1,.1-.16s.09,0,.09.06v.67A.2.2,0,0,1,63.78,44.91Z"/><path class="cls-8" d="M64.26,44.63c-.05,0-.09,0-.09-.05V43.9a.2.2,0,0,1,.09-.16s.09,0,.09.06v.67A.2.2,0,0,1,64.26,44.63Z"/><path class="cls-8" d="M70.45,45l-3.37,2c-.35.2-.64,0-.64-.37V42.67a1.42,1.42,0,0,1,.64-1.11l3.37-1.94c.35-.21.64,0,.64.36v3.89A1.42,1.42,0,0,1,70.45,45Zm-3.37-3.21a1,1,0,0,0-.45.79v3.89c0,.29.2.41.45.27l3.37-1.95a1,1,0,0,0,.46-.79V40.09c0-.29-.21-.41-.46-.26Z"/><path class="cls-8" d="M68.77,44.9a.06.06,0,0,1-.1-.06V42.06a.21.21,0,0,1,.1-.16s.09,0,.09.06v2.78A.2.2,0,0,1,68.77,44.9Z"/><path class="cls-8" d="M69.18,44.66l-.83.48a.06.06,0,0,1-.09,0,.2.2,0,0,1,.09-.16l.83-.49c.06,0,.1,0,.1.06A.19.19,0,0,1,69.18,44.66Z"/><path class="cls-8" d="M69.65,41.13v1.3a1.21,1.21,0,0,1-.55,1l-.67.39c-.3.17-.55,0-.55-.32v-1.3l.33-.19v1.39c0,.06,0,.08.1,0a.2.2,0,0,0,.09-.16V41.86Z"/><polygon class="cls-9" points="38.27 31.36 38.27 49.61 32.16 46.12 32.16 27.85 38.27 31.36"/><polygon class="cls-10" points="72.58 11.55 38.27 31.36 38.23 31.39 32.16 27.88 32.16 27.85 38.27 24.33 66.49 8.03 72.58 11.55"/><polygon class="cls-11" points="85.1 30.37 78.36 34.26 78.36 28.46 85.1 24.57 85.1 30.37"/><polygon class="cls-8" points="84.46 26.31 79 29.46 79 28.81 84.46 25.66 84.46 26.31"/><polygon class="cls-12" points="84.46 27.48 79 30.63 79 30.34 84.46 27.19 84.46 27.48"/><polygon class="cls-12" points="84.46 28.24 79 31.39 79 31.1 84.46 27.95 84.46 28.24"/><polygon class="cls-12" points="84.46 29.06 79 32.21 79 31.92 84.46 28.77 84.46 29.06"/><polygon class="cls-12" points="84.46 29.82 79 32.97 79 32.69 84.46 29.53 84.46 29.82"/></g></g></g></svg>