<svg xmlns="http://www.w3.org/2000/svg" viewBox="0 0 73.79 74.25"><defs><style>.cls-1{isolation:isolate;}.cls-2{mix-blend-mode:multiply;}.cls-3{fill:#e8e8e8;}.cls-4{fill:#aa6838;}.cls-5{fill:#ffdda8;}.cls-6{fill:#dda866;}.cls-7{fill:#bc7c46;}.cls-8{fill:#efefef;}.cls-9{fill:#f9c98a;}.cls-10{fill:#e2ac71;}.cls-11{fill:#4f2e16;}</style></defs><g class="cls-1"><g id="Layer_2" data-name="Layer 2"><g id="Layer_1-2" data-name="Layer 1"><g class="cls-2"><polygon class="cls-3" points="0 49.11 43.54 74.25 73.51 56.95 29.97 31.8 0 49.11"/></g><path class="cls-4" d="M60.37,34.25c-.15.09-6.11,7.09-6.11,7.09L61.7,44.5s6.43-4.71,6.28-4.66,1.73-8,1.73-8Z"/><path class="cls-5" d="M39.27,3.7l-25.95,15L47.58,38.47l25.93-15h0ZM30.78,16.61l-6.51,3.76c-.72.42-1.3.08-1.3-.75a2.87,2.87,0,0,1,1.3-2.25l6.51-3.76c.72-.41,1.3-.08,1.3.75A2.86,2.86,0,0,1,30.78,16.61Z"/><path class="cls-4" d="M39.27,4.23l-25,14.46L32.45,29.21l6.82,3.93,8.31,4.66L54.4,34,72.62,23.48ZM30.78,16.61l-6.51,3.76c-.72.42-1.3.08-1.3-.75a2.87,2.87,0,0,1,1.3-2.25l6.51-3.76c.72-.41,1.3-.08,1.3.75A2.86,2.86,0,0,1,30.78,16.61Z"/><path class="cls-6" d="M14.23,18.69,32.45,29.21l6.82,3.93V4.23Zm16.55-2.08-6.51,3.76c-.72.42-1.3.08-1.3-.75a2.87,2.87,0,0,1,1.3-2.25l6.51-3.76c.72-.41,1.3-.08,1.3.75A2.86,2.86,0,0,1,30.78,16.61Z"/><polygon class="cls-7" points="47.58 71.79 47.58 38.47 13.32 18.69 13.32 52.18 47.58 71.79"/><path class="cls-6" d="M47.58,38.47V71.79L73.51,56.94V23.49Zm17.65-1.06-6.52,3.76c-.71.41-1.3.07-1.3-.75a2.9,2.9,0,0,1,1.3-2.25l6.52-3.77c.72-.41,1.3-.07,1.3.76A2.89,2.89,0,0,1,65.23,37.41Z"/><path class="cls-5" d="M66.53,35.16a2.89,2.89,0,0,1-1.3,2.25l-6.52,3.76a.79.79,0,0,1-1.1-.08,1,1,0,0,0,.78-.15l6.51-3.76a2.86,2.86,0,0,0,1.3-2.25,1.12,1.12,0,0,0-.19-.68C66.33,34.34,66.53,34.66,66.53,35.16Z"/><path class="cls-5" d="M32.08,14.36a2.86,2.86,0,0,1-1.3,2.25l-6.51,3.76c-.51.29-.95.21-1.16-.15A.94.94,0,0,0,24,20.1l6.52-3.77a2.88,2.88,0,0,0,1.3-2.24,1.07,1.07,0,0,0-.15-.6A.85.85,0,0,1,32.08,14.36Z"/><g class="cls-2"><polygon class="cls-8" points="47.61 43.78 13.33 24.25 13.32 18.69 73.51 23.49 73.51 28.25 47.61 43.78"/></g><path class="cls-5" d="M39.24,0,13.06,15.11l34.55,20L73.77,20h0Z"/><path class="cls-9" d="M39.24.53,14,15.11,32.36,25.72l6.88,4,8.37,4.7,6.88-3.84L72.87,20Z"/><polygon class="cls-7" points="47.61 42.67 47.61 35.06 13.06 15.11 13.06 22.88 47.61 42.67"/><path class="cls-10" d="M47.61,35.06v7.61l26.16-15V20Z"/><polygon class="cls-11" points="51.77 64.91 51.59 65.01 51.59 61.82 51.77 61.72 51.77 64.91"/><polygon class="cls-11" points="52.43 62.04 52.29 62.26 51.68 61.85 51.06 62.97 50.93 62.9 51.68 61.54 52.43 62.04"/><polygon class="cls-11" points="53.6 63.85 53.42 63.95 53.42 60.76 53.6 60.66 53.6 63.85"/><polygon class="cls-11" points="54.26 60.98 54.13 61.2 53.51 60.79 52.9 61.91 52.76 61.85 53.51 60.48 54.26 60.98"/><path class="cls-11" d="M54.31,63.55l-3.43,2c-.05,0-.09,0-.09,0a.2.2,0,0,1,.09-.16l3.43-2s.09,0,.09,0A.2.2,0,0,1,54.31,63.55Z"/><path class="cls-11" d="M54.28,64.41l-3.37,2c-.35.2-.64,0-.64-.37V62.1A1.42,1.42,0,0,1,50.91,61l3.37-2c.35-.2.64,0,.64.37V63.3A1.42,1.42,0,0,1,54.28,64.41ZM50.91,61.2a1,1,0,0,0-.46.79v3.89c0,.29.21.41.46.26l3.37-1.94a1,1,0,0,0,.46-.79V59.52c0-.29-.21-.41-.46-.26Z"/><path class="cls-11" d="M57.63,61.94c-.05,0-.09,0-.09,0V59.11a.2.2,0,0,1,.09-.16s.09,0,.09,0v2.78A.2.2,0,0,1,57.63,61.94Z"/><path class="cls-11" d="M59.31,61.5,56,63.44c-.36.2-.65,0-.65-.37V59.18A1.4,1.4,0,0,1,56,58.07l3.36-1.94c.36-.21.64,0,.64.37v3.88A1.42,1.42,0,0,1,59.31,61.5ZM56,58.28a1,1,0,0,0-.46.8V63c0,.29.2.41.46.27l3.36-1.95a1,1,0,0,0,.46-.79V56.6c0-.29-.21-.41-.46-.26Z"/><path class="cls-11" d="M59,59.14c-.13-.52-.7-.63-1.39-.24a3,3,0,0,0-1.39,1.84Z"/><path class="cls-11" d="M57.14,58.83s-.09,0-.09,0V58.1a.2.2,0,0,1,.09-.16c.06,0,.1,0,.1.06v.67A.19.19,0,0,1,57.14,58.83Z"/><path class="cls-11" d="M57.63,58.55c-.05,0-.09,0-.09,0v-.68a.2.2,0,0,1,.09-.16s.09,0,.09.06v.67A.2.2,0,0,1,57.63,58.55Z"/><path class="cls-11" d="M58.11,58.27s-.09,0-.09-.05v-.68a.2.2,0,0,1,.09-.16.06.06,0,0,1,.09,0v.68A.2.2,0,0,1,58.11,58.27Z"/><path class="cls-11" d="M64.3,58.62l-3.36,2c-.36.2-.65,0-.65-.37V56.31a1.4,1.4,0,0,1,.65-1.11l3.36-2c.36-.2.65,0,.65.37v3.89A1.4,1.4,0,0,1,64.3,58.62Zm-3.36-3.21a1,1,0,0,0-.46.79v3.89c0,.29.2.41.46.27l3.36-2a1,1,0,0,0,.46-.79V53.73c0-.29-.2-.41-.46-.26Z"/><path class="cls-11" d="M62.62,58.54s-.09,0-.09-.06V55.7a.2.2,0,0,1,.09-.16c.05,0,.09,0,.09.06v2.78A.2.2,0,0,1,62.62,58.54Z"/><path class="cls-11" d="M63,58.3l-.84.48c-.05,0-.09,0-.09-.06a.19.19,0,0,1,.09-.15l.84-.49c.05,0,.09,0,.09.06A.2.2,0,0,1,63,58.3Z"/><path class="cls-11" d="M63.51,54.77v1.3A1.25,1.25,0,0,1,63,57l-.68.39c-.3.17-.55,0-.55-.32V55.8l.34-.19V57a.06.06,0,0,0,.09,0,.2.2,0,0,0,.09-.16V55.5Z"/></g></g></g></svg>