<svg xmlns="http://www.w3.org/2000/svg" viewBox="0 0 77.55 90.96"><defs><style>.cls-1{isolation:isolate;}.cls-2{mix-blend-mode:multiply;}.cls-3{fill:#e8e8e8;}.cls-4{fill:#dda866;}.cls-5{fill:#bc7c46;}.cls-6{fill:#f9c98a;}.cls-7{fill:#9b7451;}.cls-8{fill:#caaf8f;}.cls-9{fill:#4f2e16;}.cls-10{fill:#e5e0dc;}.cls-11{fill:#b2aeab;}</style></defs><g class="cls-1"><g id="Layer_2" data-name="Layer 2"><g id="Layer_1-2" data-name="Layer 1"><g class="cls-2"><polygon class="cls-3" points="0 77.77 22.85 90.96 50.83 74.78 27.98 61.59 0 77.77"/></g><path class="cls-4" d="M77.53,2.33,55.19,15.22,52.1,17,29.17,30.23V87.32L52.1,74.08l3.09-1.78L77.55,59.39V2.31Z"/><polygon class="cls-5" points="29.17 30.24 25.23 28 25.23 84.97 29.17 87.32 29.17 30.24"/><path class="cls-6" d="M73.51,0,51.19,12.94,48.1,14.73,25.24,28l3.93,2.23L52.06,17l3.09-1.79L77.53,2.32Z"/><polygon class="cls-7" points="55.19 15.21 55.19 72.3 52.09 74.08 52.09 17.01 55.19 15.21"/><polygon class="cls-8" points="55.15 15.23 52.06 17.02 48.1 14.73 51.19 12.94 55.15 15.23"/><path class="cls-9" d="M72.67,28.65l-5.18,3c-.54.31-1,.06-1-.57v-6a2.21,2.21,0,0,1,1-1.71l5.23-3c.54-.32,1-.06,1,.57l0,6A2.2,2.2,0,0,1,72.67,28.65ZM67.49,23.7a1.54,1.54,0,0,0-.7,1.22v6c0,.44.31.62.7.4l5.18-3a1.55,1.55,0,0,0,.71-1.22l0-6c0-.45-.31-.63-.7-.41Z"/><path class="cls-9" d="M70.08,28.51c-.08,0-.14,0-.14-.08V24.14a.3.3,0,0,1,.14-.24c.08,0,.14,0,.14.08v4.28A.31.31,0,0,1,70.08,28.51Z"/><path class="cls-9" d="M70.72,28.14l-1.28.74c-.08.05-.14,0-.14-.08a.32.32,0,0,1,.14-.25l1.28-.74c.08,0,.15,0,.15.08A.32.32,0,0,1,70.72,28.14Z"/><path class="cls-9" d="M71.45,22.72v2a1.86,1.86,0,0,1-.85,1.46l-1,.61c-.46.26-.84.05-.84-.5v-2l.51-.29v2.14c0,.09.06.13.14.08a.3.3,0,0,0,.14-.24V23.84Z"/><polygon class="cls-9" points="61.14 30.04 62.16 30.63 61.14 32.39 61.14 30.04"/><polygon class="cls-9" points="63.51 28.29 62.52 30.01 61.53 29.43 63.51 28.29"/><polygon class="cls-9" points="62.52 30.83 63.61 31.47 61.43 32.72 62.52 30.83"/><polygon class="cls-9" points="63.94 28.37 63.94 30.83 62.88 30.22 63.94 28.37"/><polygon class="cls-9" points="64.36 31.69 60.5 29.46 60.68 29.15 64.54 31.38 64.36 31.69"/><polygon class="cls-9" points="60.68 33.83 60.5 33.72 64.36 27.02 64.54 27.13 60.68 33.83"/><polygon class="cls-9" points="64.58 30.91 64.33 31.05 64.33 27.82 64.58 27.67 64.58 30.91"/><polygon class="cls-9" points="60.71 33.14 60.46 33.28 60.46 30.05 60.71 29.91 60.71 33.14"/><polygon class="cls-9" points="65.96 28.6 65.33 28.96 65.33 28.74 65.96 28.38 65.96 28.6"/><polygon class="cls-9" points="65.47 28.23 64.65 29.25 65.47 29.32 65.47 28.23"/><polygon class="cls-9" points="59.75 32.18 59.13 32.55 59.13 32.33 59.75 31.96 59.75 32.18"/><polygon class="cls-9" points="59.62 32.7 60.44 31.68 59.62 31.61 59.62 32.7"/><path class="cls-9" d="M65.2,33.05l-5.36,3.09c-.49.28-.89,0-.89-.51V29.44a2,2,0,0,1,.89-1.53l5.36-3.09c.49-.29.89-.06.89.51v6.18A2,2,0,0,1,65.2,33.05ZM59.84,28.2a1.39,1.39,0,0,0-.63,1.1v6.18c0,.4.28.57.63.37l5.36-3.09a1.42,1.42,0,0,0,.63-1.1V25.47c0-.4-.28-.56-.63-.36Z"/><polygon class="cls-10" points="73.72 17.04 63.32 23.04 63.32 14.1 73.72 8.1 73.72 17.04"/><polygon class="cls-9" points="72.73 10.78 64.31 15.64 64.31 14.64 72.73 9.78 72.73 10.78"/><polygon class="cls-11" points="72.73 12.57 64.31 17.44 64.31 17 72.73 12.14 72.73 12.57"/><polygon class="cls-11" points="72.73 13.75 64.31 18.61 64.31 18.17 72.73 13.31 72.73 13.75"/><polygon class="cls-11" points="72.73 15.02 64.31 19.88 64.31 19.44 72.73 14.57 72.73 15.02"/><polygon class="cls-11" points="72.73 16.19 64.31 21.05 64.31 20.61 72.73 15.75 72.73 16.19"/></g></g></g></svg>