<svg xmlns="http://www.w3.org/2000/svg" viewBox="0 0 83.56 88.28"><defs><style>.cls-1{isolation:isolate;}.cls-2{mix-blend-mode:multiply;}.cls-3{fill:#e8e8e8;}.cls-4{fill:#ffdda8;}.cls-5{fill:#f9c98a;}.cls-6{fill:#bc7c46;}.cls-7{fill:#dda866;}.cls-8{fill:#4f2e16;}.cls-9{fill:#a8632f;}</style></defs><g class="cls-1"><g id="Layer_2" data-name="Layer 2"><g id="Layer_1-2" data-name="Layer 1"><g class="cls-2"><polygon class="cls-3" points="0 64.93 40.34 88.28 80.31 65.22 39.97 41.87 0 64.93"/></g><path class="cls-4" d="M68.75,10.24,66.54,9l-.28-.16L64.42,7.76,51,0,16.41,20l13.43,7.76,1.57.9.28.16,2.48,1.43L49,38.78l34.52-20h0Z"/><path class="cls-5" d="M51,.69,17.62,20,49,37.88,82.34,18.81Z"/><polygon class="cls-6" points="49.01 38.77 48.97 83.18 34.07 74.67 29.75 72.21 16.41 64.59 16.41 19.96 49.01 38.77"/><path class="cls-7" d="M49,38.77l0,44.41,34.6-19.79V18.82Z"/><polygon class="cls-8" points="63.09 43.07 62.73 43.28 62.73 37.03 63.09 36.82 63.09 43.07"/><polygon class="cls-8" points="64.38 37.45 64.12 37.88 62.92 37.08 61.71 39.27 61.44 39.14 62.92 36.47 64.38 37.45"/><polygon class="cls-8" points="66.69 41 66.33 41.21 66.33 34.95 66.69 34.74 66.69 41"/><polygon class="cls-8" points="67.98 35.37 67.71 35.81 66.51 35 65.3 37.2 65.04 37.07 66.51 34.39 67.98 35.37"/><path class="cls-8" d="M68.06,40.41l-6.7,3.87c-.1.06-.18,0-.18-.1a.37.37,0,0,1,.18-.31L68.06,40c.11-.05.18,0,.18.11A.38.38,0,0,1,68.06,40.41Z"/><path class="cls-8" d="M68,42.1l-6.6,3.81c-.69.4-1.25.07-1.25-.72V37.57a2.79,2.79,0,0,1,1.25-2.18L68,31.58c.69-.4,1.26-.07,1.26.73v7.61A2.8,2.8,0,0,1,68,42.1Zm-6.6-6.29a2,2,0,0,0-.9,1.55V45c0,.57.41.8.9.51l6.6-3.8a2,2,0,0,0,.9-1.56V32.51c0-.57-.41-.8-.9-.51Z"/><path class="cls-8" d="M74.37,37.26c-.1.06-.18,0-.18-.1V31.71a.37.37,0,0,1,.18-.31c.1-.06.18,0,.18.1V37A.37.37,0,0,1,74.37,37.26Z"/><path class="cls-8" d="M77.67,36.39l-6.6,3.8c-.69.4-1.26.08-1.26-.72V31.85a2.8,2.8,0,0,1,1.26-2.18l6.6-3.81c.69-.4,1.25-.07,1.25.73v7.62A2.8,2.8,0,0,1,77.67,36.39Zm-6.6-6.3a2,2,0,0,0-.9,1.55v7.62c0,.57.4.81.9.52L77.67,36a2,2,0,0,0,.89-1.56V26.8c0-.57-.4-.81-.89-.52Z"/><path class="cls-8" d="M77.09,31.77c-.26-1-1.38-1.24-2.72-.46a5.91,5.91,0,0,0-2.73,3.6Z"/><path class="cls-8" d="M73.42,31.17c-.1,0-.18,0-.18-.11V29.73a.4.4,0,0,1,.18-.31c.1-.05.18,0,.18.11v1.33A.4.4,0,0,1,73.42,31.17Z"/><path class="cls-8" d="M74.37,30.62c-.1.06-.18,0-.18-.1V29.19a.41.41,0,0,1,.18-.32c.1-.05.17,0,.17.11v1.33A.38.38,0,0,1,74.37,30.62Z"/><path class="cls-8" d="M75.31,30.07a.11.11,0,0,1-.18-.1V28.64a.4.4,0,0,1,.18-.31c.1-.06.19,0,.19.1v1.33A.38.38,0,0,1,75.31,30.07Z"/><path class="cls-8" d="M77.64,48.57,71,52.38c-.7.4-1.26.07-1.26-.73V44A2.77,2.77,0,0,1,71,41.85L77.69,38c.7-.4,1.26-.07,1.26.73l-.06,7.62A2.79,2.79,0,0,1,77.64,48.57ZM71,42.27a2,2,0,0,0-.89,1.55v7.62c0,.57.41.8.9.52l6.6-3.81a2,2,0,0,0,.89-1.55L78.59,39c0-.58-.4-.81-.9-.52Z"/><path class="cls-8" d="M74.34,48.39c-.1.06-.18,0-.18-.1V42.84a.37.37,0,0,1,.18-.31c.1-.06.17,0,.17.1v5.45A.38.38,0,0,1,74.34,48.39Z"/><path class="cls-8" d="M75.15,47.92l-1.63.95c-.1.05-.18,0-.18-.11a.4.4,0,0,1,.18-.31l1.63-.94c.11-.06.19,0,.19.1A.39.39,0,0,1,75.15,47.92Z"/><path class="cls-8" d="M76.08,41v2.54A2.39,2.39,0,0,1,75,45.43l-1.32.77c-.6.34-1.08.06-1.08-.63V43l.66-.38v2.73c0,.11.07.16.17.1a.4.4,0,0,0,.18-.31V42.44Z"/><polygon class="cls-8" points="62.96 50.34 64.26 51.09 62.96 53.34 62.96 50.34"/><polygon class="cls-8" points="65.98 48.11 64.71 50.3 63.45 49.57 65.98 48.11"/><polygon class="cls-8" points="64.71 51.35 66.1 52.16 63.32 53.76 64.71 51.35"/><polygon class="cls-8" points="66.52 48.22 66.52 51.35 65.17 50.57 66.52 48.22"/><polygon class="cls-8" points="67.06 52.45 62.13 49.61 62.37 49.21 67.29 52.05 67.06 52.45"/><polygon class="cls-8" points="62.37 55.16 62.13 55.02 67.06 46.5 67.29 46.63 62.37 55.16"/><polygon class="cls-8" points="67.33 51.44 67.01 51.63 67.01 47.51 67.33 47.33 67.33 51.44"/><polygon class="cls-8" points="62.41 54.28 62.09 54.47 62.09 50.35 62.41 50.17 62.41 54.28"/><polygon class="cls-8" points="69.09 48.51 68.29 48.97 68.29 48.69 69.09 48.23 69.09 48.51"/><polygon class="cls-8" points="68.47 48.03 67.42 49.34 68.47 49.43 68.47 48.03"/><polygon class="cls-8" points="61.19 53.07 60.39 53.53 60.39 53.25 61.19 52.79 61.19 53.07"/><polygon class="cls-8" points="61.02 53.73 62.06 52.43 61.02 52.34 61.02 53.73"/><path class="cls-8" d="M68.12,54.17,61.3,58.11c-.62.36-1.13.07-1.13-.65V49.58a2.53,2.53,0,0,1,1.13-2l6.82-3.93c.62-.36,1.13-.07,1.13.65v7.88A2.48,2.48,0,0,1,68.12,54.17ZM61.3,48a1.8,1.8,0,0,0-.81,1.4v7.87c0,.51.36.72.8.47l6.82-3.94a1.78,1.78,0,0,0,.81-1.4V44.53c0-.52-.36-.73-.81-.47Z"/><path class="cls-8" d="M25.17,34.91a3.12,3.12,0,0,0,1.4,2.43l7.81,4.51c.78.45,1.4.08,1.4-.81h0a3.11,3.11,0,0,0-1.4-2.43L26.57,34.1c-.77-.45-1.4-.08-1.4.81Z"/><path class="cls-7" d="M25.17,34.91a3.09,3.09,0,0,0,1.4,2.43l7.81,4.51c.55.32,1,.22,1.26-.18a1,1,0,0,1-1-.11l-7.81-4.51a3.12,3.12,0,0,1-1.4-2.43A1.28,1.28,0,0,1,25.6,34,1,1,0,0,0,25.17,34.91Z"/><polygon class="cls-6" points="66.54 8.97 31.69 28.79 31.41 28.62 66.26 8.81 66.54 8.97"/><polygon class="cls-9" points="48.47 38.77 48.47 39.08 31.69 29.55 31.41 29.39 16.76 21.07 16.76 20.75 31.41 29.07 31.69 29.23 48.47 38.77"/><polygon class="cls-9" points="31.69 28.79 31.69 29.55 31.41 29.39 31.41 28.62 31.69 28.79"/></g></g></g></svg>