<svg xmlns="http://www.w3.org/2000/svg" viewBox="0 0 74.31 84.83"><defs><style>.cls-1{isolation:isolate;}.cls-2{mix-blend-mode:multiply;}.cls-3{fill:#e8e8e8;}.cls-4{fill:#ffdda8;}.cls-5{fill:#f9c98a;}.cls-6{fill:#bc7c46;}.cls-7{fill:#dda866;}.cls-8{fill:#9b7451;}.cls-9{fill:#caaf8f;}.cls-10{fill:#4f2e16;}</style></defs><g class="cls-1"><g id="Layer_2" data-name="Layer 2"><g id="Layer_1-2" data-name="Layer 1"><g class="cls-2"><polygon class="cls-3" points="0 70.98 24 84.83 40.51 75.3 16.51 61.44 0 70.98"/></g><path class="cls-4" d="M66.07,6.41,62.92,4.59,55,0,10.05,26,18,30.53l3.17,1.83,8.27,4.77,44.92-26Z"/><path class="cls-5" d="M65.82,6.56,62.67,4.73,55,.29,10.56,26l7.68,4.4,3.18,1.83,8,4.56L73.81,11.17Z"/><polygon class="cls-6" points="29.39 37.13 29.39 81.73 21.11 76.98 21.09 76.98 17.94 75.18 17.73 75.05 10.04 70.65 10.04 25.96 29.39 37.13"/><path class="cls-7" d="M29.39,37.13v44.6L74.31,55.84V11.17Z"/><polygon class="cls-8" points="21.11 32.37 21.11 76.98 21.09 76.98 17.94 75.18 17.94 30.55 21.11 32.37"/><polygon class="cls-9" points="66.07 6.41 65.82 6.56 37.62 22.83 34.45 24.67 21.42 32.19 21.12 32.36 21.09 32.38 17.92 30.55 17.95 30.53 18.24 30.36 31.29 22.83 34.45 21 62.67 4.73 62.92 4.59 66.07 6.41"/><polygon class="cls-10" points="60.5 31.29 60.3 31.41 60.3 27.91 60.5 27.79 60.5 31.29"/><polygon class="cls-10" points="61.23 28.15 61.08 28.39 60.4 27.94 59.73 29.17 59.58 29.1 60.4 27.6 61.23 28.15"/><polygon class="cls-10" points="62.51 30.13 62.31 30.25 62.31 26.75 62.51 26.64 62.51 30.13"/><polygon class="cls-10" points="63.23 26.99 63.09 27.23 62.41 26.78 61.74 28.01 61.59 27.94 62.41 26.44 63.23 26.99"/><path class="cls-10" d="M63.28,29.8,59.53,32a.06.06,0,0,1-.1-.06.22.22,0,0,1,.1-.17l3.75-2.17c.06,0,.1,0,.1.06A.19.19,0,0,1,63.28,29.8Z"/><path class="cls-10" d="M63.25,30.75l-3.69,2.13c-.38.22-.7,0-.7-.41V28.22a1.57,1.57,0,0,1,.7-1.22l3.69-2.13c.39-.22.7,0,.7.41v4.25A1.54,1.54,0,0,1,63.25,30.75Zm-3.69-3.52a1.13,1.13,0,0,0-.5.87v4.26c0,.32.23.45.5.29l3.69-2.13a1.1,1.1,0,0,0,.5-.87V25.39c0-.32-.22-.45-.5-.29Z"/><path class="cls-10" d="M66.8,28s-.1,0-.1-.05v-3a.23.23,0,0,1,.1-.17c.06,0,.1,0,.1.06v3A.21.21,0,0,1,66.8,28Z"/><path class="cls-10" d="M68.65,27.56,65,29.68c-.39.23-.7.05-.7-.4V25A1.57,1.57,0,0,1,65,23.8l3.69-2.13c.38-.22.7,0,.7.41v4.26A1.58,1.58,0,0,1,68.65,27.56ZM65,24a1.09,1.09,0,0,0-.5.87v4.25c0,.32.22.45.5.29l3.69-2.13a1.11,1.11,0,0,0,.5-.87V22.2c0-.32-.23-.45-.5-.29Z"/><path class="cls-10" d="M68.33,25c-.15-.56-.77-.68-1.53-.25a3.29,3.29,0,0,0-1.52,2Z"/><path class="cls-10" d="M66.27,24.64s-.1,0-.1-.06v-.74a.25.25,0,0,1,.1-.18c.06,0,.1,0,.1.06v.74A.21.21,0,0,1,66.27,24.64Z"/><path class="cls-10" d="M66.8,24.33s-.1,0-.1,0v-.75a.23.23,0,0,1,.1-.17c.06,0,.1,0,.1.06v.74A.21.21,0,0,1,66.8,24.33Z"/><path class="cls-10" d="M67.33,24a.06.06,0,0,1-.1-.06v-.74a.24.24,0,0,1,.1-.18c.06,0,.1,0,.1.06v.74A.22.22,0,0,1,67.33,24Z"/><path class="cls-10" d="M68.63,34.36l-3.69,2.13c-.38.23-.7,0-.7-.41V31.83a1.58,1.58,0,0,1,.7-1.22l3.72-2.13c.39-.22.7,0,.7.41l0,4.26A1.54,1.54,0,0,1,68.63,34.36Zm-3.69-3.52a1.13,1.13,0,0,0-.5.87V36c0,.32.23.45.5.29l3.69-2.13a1.1,1.1,0,0,0,.5-.87l0-4.26c0-.32-.22-.45-.5-.29Z"/><path class="cls-10" d="M66.79,34.26c-.06,0-.1,0-.1,0V31.16a.21.21,0,0,1,.1-.17s.1,0,.1.05v3.05A.22.22,0,0,1,66.79,34.26Z"/><path class="cls-10" d="M67.24,34l-.91.53c-.06,0-.1,0-.1-.06a.21.21,0,0,1,.1-.17l.91-.53c.06,0,.11,0,.11.06A.22.22,0,0,1,67.24,34Z"/><path class="cls-10" d="M67.76,30.14v1.43a1.33,1.33,0,0,1-.6,1l-.74.43c-.34.19-.6,0-.6-.35V31.27l.36-.21v1.52a.06.06,0,0,0,.1.06.21.21,0,0,0,.1-.18V30.94Z"/><polygon class="cls-10" points="60.42 35.36 61.15 35.77 60.43 37.03 60.42 35.36"/><polygon class="cls-10" points="62.11 34.11 61.41 35.33 60.7 34.92 62.11 34.11"/><polygon class="cls-10" points="61.41 35.92 62.18 36.37 60.63 37.26 61.41 35.92"/><polygon class="cls-10" points="62.42 34.17 62.42 35.92 61.66 35.48 62.42 34.17"/><polygon class="cls-10" points="62.72 36.53 59.97 34.94 60.1 34.72 62.85 36.31 62.72 36.53"/><polygon class="cls-10" points="60.09 38.05 59.97 37.97 62.72 33.21 62.85 33.28 60.09 38.05"/><polygon class="cls-10" points="62.87 35.97 62.69 36.07 62.69 33.77 62.87 33.67 62.87 35.97"/><polygon class="cls-10" points="60.12 37.56 59.94 37.66 59.94 35.36 60.12 35.26 60.12 37.56"/><polygon class="cls-10" points="63.85 34.33 63.41 34.59 63.41 34.43 63.85 34.17 63.85 34.33"/><polygon class="cls-10" points="63.51 34.06 62.92 34.79 63.51 34.84 63.51 34.06"/><polygon class="cls-10" points="59.44 36.88 58.99 37.14 58.99 36.98 59.44 36.73 59.44 36.88"/><polygon class="cls-10" points="59.34 37.25 59.92 36.52 59.34 36.47 59.34 37.25"/><path class="cls-10" d="M63.31,37.5,59.5,39.7c-.35.2-.63,0-.63-.37v-4.4a1.39,1.39,0,0,1,.63-1.09l3.81-2.2c.35-.21.63,0,.63.36v4.4A1.42,1.42,0,0,1,63.31,37.5ZM59.5,34.05a1,1,0,0,0-.45.78v4.4c0,.28.2.4.45.26l3.81-2.2a1,1,0,0,0,.45-.78v-4.4c0-.29-.2-.41-.45-.26Z"/></g></g></g></svg>