<svg xmlns="http://www.w3.org/2000/svg" viewBox="0 0 62.71 66.25"><defs><style>.cls-1{isolation:isolate;}.cls-2{mix-blend-mode:multiply;}.cls-3{fill:#e8e8e8;}.cls-4{fill:#ffdda8;}.cls-5{fill:#f9c98a;}.cls-6{fill:#bc7c46;}.cls-7{fill:#dda866;}.cls-8{fill:#9b7451;}.cls-9{fill:#caaf8f;}.cls-10{fill:#4f2e16;}</style></defs><g class="cls-1"><g id="Layer_2" data-name="Layer 2"><g id="Layer_1-2" data-name="Layer 1"><g class="cls-2"><polygon class="cls-3" points="0 48.73 30.27 66.25 60.27 48.95 30 31.43 0 48.73"/></g><path class="cls-4" d="M51.59,7.69,48.35,5.83,38.27,0,12.32,15,22.4,20.81l3.25,1.87L36.78,29.1l25.91-15h0Z"/><path class="cls-5" d="M38.27.52,13.22,15,36.78,28.43l25-14.31Z"/><polygon class="cls-6" points="36.78 29.11 36.75 62.43 25.57 56.05 22.32 54.2 12.31 48.48 12.31 14.99 36.78 29.11"/><path class="cls-7" d="M36.78,29.1l0,33.33,26-14.85V14.13Z"/><polygon class="cls-8" points="25.57 22.73 25.57 56.05 22.32 54.2 22.32 20.86 25.57 22.73"/><polygon class="cls-9" points="51.59 7.69 42.52 12.94 39.28 14.82 25.65 22.68 25.55 22.73 22.31 20.86 22.4 20.81 36.03 12.94 39.28 11.06 48.35 5.83 51.59 7.69"/><polygon class="cls-10" points="52.1 27.65 51.92 27.75 51.92 24.57 52.1 24.46 52.1 27.65"/><polygon class="cls-10" points="52.76 24.78 52.62 25 52.01 24.59 51.39 25.71 51.26 25.64 52.01 24.28 52.76 24.78"/><polygon class="cls-10" points="53.94 26.59 53.75 26.7 53.75 23.5 53.94 23.4 53.94 26.59"/><polygon class="cls-10" points="54.59 23.72 54.46 23.94 53.84 23.53 53.23 24.65 53.09 24.59 53.84 23.22 54.59 23.72"/><path class="cls-10" d="M54.64,26.29l-3.43,2c-.05,0-.09,0-.09-.06a.2.2,0,0,1,.09-.15l3.43-2s.09,0,.09.05A.2.2,0,0,1,54.64,26.29Z"/><path class="cls-10" d="M54.61,27.16,51.24,29.1c-.35.2-.64,0-.64-.37V24.84a1.42,1.42,0,0,1,.64-1.11l3.37-1.94c.35-.21.64,0,.64.37V26A1.45,1.45,0,0,1,54.61,27.16Zm-3.37-3.22a1,1,0,0,0-.46.8v3.88c0,.3.21.41.46.27L54.61,27a1,1,0,0,0,.46-.8V22.26c0-.29-.21-.41-.46-.26Z"/><path class="cls-10" d="M57.85,24.68c-.05,0-.09,0-.09-.05V21.85a.2.2,0,0,1,.09-.16s.1,0,.1.06v2.78A.2.2,0,0,1,57.85,24.68Z"/><path class="cls-10" d="M59.54,24.24l-3.37,1.94c-.35.21-.64,0-.64-.37V21.92a1.45,1.45,0,0,1,.64-1.11l3.37-1.94c.35-.21.64,0,.64.37v3.89A1.43,1.43,0,0,1,59.54,24.24ZM56.17,21a1,1,0,0,0-.46.8v3.89c0,.29.21.41.46.26L59.54,24a1,1,0,0,0,.46-.8V19.34c0-.29-.21-.41-.46-.26Z"/><path class="cls-10" d="M59.24,21.88c-.13-.51-.7-.63-1.39-.23a3.07,3.07,0,0,0-1.39,1.84Z"/><path class="cls-10" d="M57.37,21.57s-.09,0-.09-.05v-.68a.2.2,0,0,1,.09-.16c.05,0,.09,0,.09.06v.68A.19.19,0,0,1,57.37,21.57Z"/><path class="cls-10" d="M57.85,21.3c-.05,0-.09,0-.09-.06v-.68a.2.2,0,0,1,.09-.16s.1,0,.1.06v.68A.21.21,0,0,1,57.85,21.3Z"/><path class="cls-10" d="M58.34,21c-.05,0-.09,0-.09-.06v-.67a.18.18,0,0,1,.09-.16s.09,0,.09.05v.68A.2.2,0,0,1,58.34,21Z"/><path class="cls-10" d="M59.52,30.46,56.16,32.4c-.36.2-.65,0-.65-.37V28.14A1.4,1.4,0,0,1,56.16,27l3.39-2c.36-.2.64,0,.64.38l0,3.88A1.43,1.43,0,0,1,59.52,30.46Zm-3.36-3.22a1,1,0,0,0-.46.79v3.89c0,.29.2.41.46.27l3.36-1.95a1,1,0,0,0,.46-.79l0-3.89c0-.29-.21-.41-.46-.26Z"/><path class="cls-10" d="M57.84,30.37c-.05,0-.09,0-.09-.06V27.53a.2.2,0,0,1,.09-.16s.09,0,.09.06v2.78A.2.2,0,0,1,57.84,30.37Z"/><path class="cls-10" d="M58.26,30.13l-.84.48c-.05,0-.09,0-.09-.06a.19.19,0,0,1,.09-.15l.84-.49c.05,0,.09,0,.09.06A.22.22,0,0,1,58.26,30.13Z"/><path class="cls-10" d="M58.73,26.6v1.3a1.25,1.25,0,0,1-.55,1l-.68.39c-.3.17-.55,0-.55-.32v-1.3l.34-.19v1.39a.06.06,0,0,0,.09.05.2.2,0,0,0,.09-.16V27.33Z"/><polygon class="cls-10" points="52.03 31.36 52.69 31.74 52.03 32.89 52.03 31.36"/><polygon class="cls-10" points="53.57 30.22 52.92 31.34 52.28 30.97 53.57 30.22"/><polygon class="cls-10" points="52.92 31.88 53.63 32.29 52.22 33.1 52.92 31.88"/><polygon class="cls-10" points="53.85 30.28 53.85 31.88 53.16 31.48 53.85 30.28"/><rect class="cls-10" x="52.81" y="30.16" width="0.23" height="2.9" transform="translate(-0.91 61.64) rotate(-60)"/><polygon class="cls-10" points="51.73 33.82 51.61 33.75 54.12 29.4 54.24 29.47 51.73 33.82"/><polygon class="cls-10" points="54.26 31.92 54.1 32.02 54.1 29.92 54.26 29.82 54.26 31.92"/><polygon class="cls-10" points="51.75 33.37 51.59 33.47 51.59 31.37 51.75 31.27 51.75 33.37"/><polygon class="cls-10" points="55.16 30.43 54.75 30.66 54.75 30.52 55.16 30.29 55.16 30.43"/><polygon class="cls-10" points="54.84 30.18 54.31 30.85 54.84 30.89 54.84 30.18"/><polygon class="cls-10" points="51.13 32.76 50.72 32.99 50.72 32.85 51.13 32.61 51.13 32.76"/><polygon class="cls-10" points="51.04 33.09 51.57 32.43 51.04 32.38 51.04 33.09"/><path class="cls-10" d="M54.67,33.32l-3.48,2c-.32.19-.58,0-.58-.33V31a1.3,1.3,0,0,1,.58-1l3.48-2c.31-.19.57,0,.57.33v4A1.32,1.32,0,0,1,54.67,33.32Zm-3.48-3.16a.94.94,0,0,0-.42.72v4c0,.26.19.37.42.23l3.48-2a1,1,0,0,0,.41-.72v-4c0-.26-.19-.37-.41-.23Z"/></g></g></g></svg>