<svg xmlns="http://www.w3.org/2000/svg" viewBox="0 0 74.79 68.19"><defs><style>.cls-1{isolation:isolate;}.cls-2{mix-blend-mode:multiply;}.cls-3{fill:#e8e8e8;}.cls-4{fill:#ffdda8;}.cls-5{fill:#dda866;}.cls-6{fill:#aa6838;}.cls-7{fill:#bc7c46;}.cls-8{fill:#edc893;}.cls-9{fill:#4f2e16;}.cls-10{fill:#c68b51;}</style></defs><g class="cls-1"><g id="Layer_2" data-name="Layer 2"><g id="Layer_1-2" data-name="Layer 1"><g class="cls-2"><polygon class="cls-3" points="0 50.24 31.09 68.19 52.49 55.84 21.4 37.89 0 50.24"/></g><path class="cls-4" d="M51.83,19.4l-4.36-2.51-9.93-5.74L13,25.32,23,31.06l4.34,2.5,10.78,6.23L62.6,25.63h0Z"/><path class="cls-5" d="M37.54,11.53,13.68,25.32l24.4,14L61.94,25.62Z"/><path class="cls-6" d="M37.54,11.53V36.39l3,1.54L61.94,25.62Z"/><polygon class="cls-7" points="38.08 39.78 38.08 64.17 27.32 58.01 22.96 55.52 13.02 49.82 13.02 25.32 22.96 31.06 27.32 33.57 38.08 39.78"/><path class="cls-5" d="M38.08,39.79V64.17L62.6,50.11V25.63Z"/><polygon class="cls-7" points="37.14 11.33 27.87 0.37 3.74 13.95 3.74 14.5 13.02 25.32 13.52 25.37 37.15 11.74 37.14 11.33"/><path class="cls-8" d="M3.74,14l9.78,11.41,24-13.85v-.41L28.22,0Z"/><polygon class="cls-7" points="49.85 0.69 37.94 11.56 61.94 25.7 62.63 25.62 74.39 14.74 74.21 14.35 50.21 0.48 49.85 0.69"/><path class="cls-8" d="M61.94,25.7,74.21,14.34,49.83.24l-.36.21-12,11Z"/><polygon class="cls-9" points="41.37 58.61 41.19 58.71 41.19 55.71 41.37 55.61 41.37 58.61"/><polygon class="cls-9" points="41.98 55.91 41.86 56.12 41.28 55.73 40.7 56.79 40.57 56.73 41.28 55.44 41.98 55.91"/><polygon class="cls-9" points="43.09 57.61 42.92 57.71 42.92 54.71 43.09 54.61 43.09 57.61"/><polygon class="cls-9" points="43.71 54.91 43.58 55.12 43.01 54.74 42.43 55.79 42.3 55.73 43.01 54.44 43.71 54.91"/><path class="cls-9" d="M43.75,57.33l-3.22,1.86c-.05,0-.08,0-.08,0a.19.19,0,0,1,.08-.15l3.22-1.86a.06.06,0,0,1,.09,0A.19.19,0,0,1,43.75,57.33Z"/><path class="cls-9" d="M43.73,58.14,40.56,60c-.34.2-.61,0-.61-.35V56a1.32,1.32,0,0,1,.61-1l3.17-1.83c.33-.19.6,0,.6.35V57.1A1.33,1.33,0,0,1,43.73,58.14Zm-3.17-3a1,1,0,0,0-.43.75v3.65c0,.28.19.39.43.25L43.73,58a1,1,0,0,0,.42-.75V53.54a.27.27,0,0,0-.43-.25Z"/><path class="cls-9" d="M48.79,55.21,45.62,57c-.33.19-.6,0-.6-.35V53a1.33,1.33,0,0,1,.6-1l3.17-1.83c.33-.19.6,0,.6.35v3.65A1.34,1.34,0,0,1,48.79,55.21Zm-3.17-3a.93.93,0,0,0-.43.74v3.66c0,.27.19.39.43.25L48.79,55a1,1,0,0,0,.43-.75V50.61c0-.28-.2-.39-.43-.25Z"/><path class="cls-9" d="M47.2,55.13c-.05,0-.09,0-.09-.05V52.46a.19.19,0,0,1,.09-.15.06.06,0,0,1,.09,0V55A.2.2,0,0,1,47.2,55.13Z"/><path class="cls-9" d="M47.59,54.9l-.78.45c-.05,0-.09,0-.09-.05a.2.2,0,0,1,.09-.15l.78-.45a.06.06,0,0,1,.09,0A.19.19,0,0,1,47.59,54.9Z"/><path class="cls-9" d="M48,51.59v1.22a1.18,1.18,0,0,1-.52.9l-.64.36c-.28.17-.51,0-.51-.3V52.55l.31-.18v1.31a.06.06,0,0,0,.09,0,.24.24,0,0,0,.09-.15V52.27Z"/><path class="cls-10" d="M37.54,36.22,35.15,37.6l3,1.7,2.39-1.37Z"/><polygon class="cls-5" points="0.61 21.6 13.56 25.4 38.08 39.3 38.08 39.76 25 36.53 0.61 22.04 0.61 21.6"/><path class="cls-8" d="M13.61,25.32.61,21.6,25,36.08,38.08,39.3Z"/><path class="cls-7" d="M62.27,26,38.08,39.3v.51l12.29,3L74.79,28.9v-.41Z"/><path class="cls-8" d="M61.94,25.62,38.08,39.3l12.3,3.09,24.41-13.9L62.61,25.62Z"/></g></g></g></svg>