<svg xmlns="http://www.w3.org/2000/svg" viewBox="0 0 145.36 193.65"><defs><style>.cls-1{isolation:isolate;}.cls-2{fill:#aa6838;}.cls-3{fill:#dda866;}.cls-4{mix-blend-mode:multiply;}.cls-5{fill:#e8e8e8;}.cls-6{fill:#ffdda8;}.cls-7{fill:#bc7c46;}.cls-8{fill:#4f2e16;}.cls-9{fill:#edc893;}.cls-10{fill:#e5e0dc;}.cls-11{fill:#b2aeab;}.cls-12{fill:#ce9557;}.cls-13{fill:#f9c98a;}.cls-14{fill:#a8632f;}.cls-15{fill:#c68b51;}.cls-16{fill:#9b7451;}.cls-17{fill:#a57b58;}.cls-18{fill:#caaf8f;}</style></defs><g class="cls-1"><g id="Layer_2" data-name="Layer 2"><g id="Layer_1-2" data-name="Layer 1"><polygon class="cls-2" points="65.68 87.61 58.15 87.61 73.88 96.7 83.41 98.3 83.85 97.91 65.68 87.61"/><path class="cls-3" d="M65.1,87.2l-10-1.79L73.74,96.28l10.11,1.63Z"/><g class="cls-4"><polygon class="cls-5" points="0.56 156.5 24.56 170.36 41.07 160.82 17.08 146.97 0.56 156.5"/></g><path class="cls-6" d="M66.63,91.93l-3.15-1.82-7.94-4.58-44.93,26,7.9,4.57,3.17,1.83L30,122.66l44.92-26Z"/><path class="cls-2" d="M66.38,92.08l-3.15-1.82-7.69-4.44L11.12,111.49l7.68,4.4L22,117.71l8,4.57L74.37,96.7Z"/><polygon class="cls-3" points="55.48 85.85 11.12 111.49 18.8 115.89 21.98 117.71 29.95 122.28 55.48 107.58 55.48 85.85"/><polygon class="cls-7" points="29.95 122.65 29.95 167.26 21.67 162.51 21.65 162.5 18.5 160.71 18.29 160.58 10.61 156.18 10.61 111.49 29.95 122.65"/><path class="cls-3" d="M30,122.66v44.6l44.92-25.89V96.7Z"/><polygon class="cls-8" points="61.06 116.82 60.86 116.93 60.86 113.44 61.06 113.32 61.06 116.82"/><polygon class="cls-8" points="61.78 113.68 61.64 113.92 60.96 113.47 60.29 114.7 60.14 114.62 60.96 113.13 61.78 113.68"/><polygon class="cls-8" points="63.07 115.66 62.87 115.78 62.87 112.28 63.07 112.16 63.07 115.66"/><polygon class="cls-8" points="63.79 112.51 63.65 112.76 62.97 112.31 62.3 113.54 62.15 113.47 62.97 111.97 63.79 112.51"/><path class="cls-8" d="M63.84,115.33l-3.75,2.16c-.05,0-.1,0-.1,0a.25.25,0,0,1,.1-.18l3.75-2.16c.06,0,.1,0,.1.06A.21.21,0,0,1,63.84,115.33Z"/><path class="cls-8" d="M63.81,116.28l-3.69,2.13c-.38.22-.7,0-.7-.41v-4.26a1.57,1.57,0,0,1,.7-1.21l3.69-2.13c.39-.23.7,0,.7.4v4.26A1.56,1.56,0,0,1,63.81,116.28Zm-3.69-3.52a1.13,1.13,0,0,0-.5.87v4.25c0,.32.23.45.5.29l3.69-2.12a1.1,1.1,0,0,0,.5-.87v-4.26c0-.32-.22-.45-.5-.29Z"/><path class="cls-8" d="M67.36,113.57s-.1,0-.1,0v-3a.25.25,0,0,1,.1-.18c.06,0,.1,0,.1.06v3.05A.21.21,0,0,1,67.36,113.57Z"/><path class="cls-8" d="M69.21,113.08l-3.69,2.13c-.39.22-.7,0-.7-.4v-4.26a1.56,1.56,0,0,1,.7-1.22l3.69-2.13c.39-.22.7,0,.7.41v4.26A1.54,1.54,0,0,1,69.21,113.08Zm-3.69-3.52a1.1,1.1,0,0,0-.5.87v4.26c0,.32.22.45.5.29l3.69-2.13a1.13,1.13,0,0,0,.5-.87v-4.26c0-.32-.23-.45-.5-.28Z"/><path class="cls-8" d="M68.89,110.5c-.15-.56-.77-.69-1.53-.25a3.33,3.33,0,0,0-1.52,2Z"/><path class="cls-8" d="M66.83,110.17a.06.06,0,0,1-.1-.06v-.75a.23.23,0,0,1,.1-.17c.06,0,.1,0,.1.06V110A.22.22,0,0,1,66.83,110.17Z"/><path class="cls-8" d="M67.36,109.86a.06.06,0,0,1-.1-.06v-.74a.23.23,0,0,1,.1-.17c.06,0,.1,0,.1,0v.75A.21.21,0,0,1,67.36,109.86Z"/><path class="cls-8" d="M67.89,109.55s-.1,0-.1,0v-.75a.23.23,0,0,1,.1-.17c.06,0,.11,0,.11.06v.74A.22.22,0,0,1,67.89,109.55Z"/><path class="cls-8" d="M69.19,119.89,65.51,122c-.39.22-.71,0-.71-.41v-4.26a1.55,1.55,0,0,1,.71-1.21L69.22,114c.39-.23.71,0,.71.41l0,4.25A1.57,1.57,0,0,1,69.19,119.89Zm-3.68-3.52a1.11,1.11,0,0,0-.51.87v4.26c0,.32.23.44.51.29l3.68-2.13a1.1,1.1,0,0,0,.5-.87l0-4.26c0-.32-.22-.45-.5-.29Z"/><path class="cls-8" d="M67.35,119.79c-.06,0-.1,0-.1-.05v-3a.22.22,0,0,1,.1-.18.06.06,0,0,1,.1.06v3.05A.23.23,0,0,1,67.35,119.79Z"/><path class="cls-8" d="M67.8,119.53l-.91.53c-.06,0-.1,0-.1-.06a.24.24,0,0,1,.1-.18l.91-.52c.06,0,.11,0,.11.06A.22.22,0,0,1,67.8,119.53Z"/><path class="cls-8" d="M68.32,115.67v1.42a1.34,1.34,0,0,1-.6,1l-.74.43c-.34.19-.6,0-.6-.35V116.8l.36-.22v1.53a.06.06,0,0,0,.1.06.24.24,0,0,0,.1-.18v-1.52Z"/><polygon class="cls-8" points="60.99 120.88 61.71 121.3 60.99 122.56 60.99 120.88"/><polygon class="cls-8" points="62.67 119.63 61.97 120.86 61.26 120.45 62.67 119.63"/><polygon class="cls-8" points="61.97 121.45 62.74 121.9 61.19 122.79 61.97 121.45"/><polygon class="cls-8" points="62.98 119.7 62.98 121.44 62.22 121.01 62.98 119.7"/><polygon class="cls-8" points="63.28 122.06 60.53 120.47 60.66 120.25 63.41 121.84 63.28 122.06"/><polygon class="cls-8" points="60.66 123.58 60.53 123.5 63.28 118.73 63.41 118.81 60.66 123.58"/><polygon class="cls-8" points="63.43 121.5 63.25 121.6 63.25 119.3 63.43 119.2 63.43 121.5"/><polygon class="cls-8" points="60.68 123.09 60.5 123.19 60.5 120.89 60.68 120.79 60.68 123.09"/><polygon class="cls-8" points="64.41 119.86 63.97 120.12 63.97 119.96 64.41 119.7 64.41 119.86"/><polygon class="cls-8" points="64.07 119.59 63.48 120.32 64.07 120.37 64.07 119.59"/><polygon class="cls-8" points="60 122.41 59.55 122.67 59.55 122.51 60 122.25 60 122.41"/><polygon class="cls-8" points="59.9 122.78 60.48 122.05 59.9 122 59.9 122.78"/><path class="cls-8" d="M63.87,123l-3.81,2.2c-.35.2-.63,0-.63-.36v-4.4a1.42,1.42,0,0,1,.63-1.1l3.81-2.19c.35-.21.63,0,.63.36v4.4A1.39,1.39,0,0,1,63.87,123Zm-3.81-3.45a1,1,0,0,0-.45.78v4.4c0,.29.2.41.45.27l3.81-2.2a1,1,0,0,0,.46-.79v-4.4c0-.28-.21-.4-.46-.26Z"/><polygon class="cls-3" points="10.93 111.43 0.04 121.95 0 121.94 0 122.38 18.91 133.71 29.95 122.67 29.95 122.21 10.93 111.43"/><path class="cls-9" d="M11.2,111.49h-.59L0,122l18.87,11.31,11-11Z"/><polygon class="cls-10" points="70.03 133.41 59.12 139.71 59.12 130.32 70.03 124.02 70.03 133.41"/><polygon class="cls-8" points="69 126.83 60.15 131.94 60.15 130.89 69 125.78 69 126.83"/><polygon class="cls-11" points="69 128.72 60.15 133.83 60.15 133.37 69 128.26 69 128.72"/><polygon class="cls-11" points="69 129.96 60.15 135.06 60.15 134.6 69 129.49 69 129.96"/><polygon class="cls-11" points="69 131.28 60.15 136.39 60.15 135.93 69 130.82 69 131.28"/><polygon class="cls-11" points="69 132.52 60.15 137.62 60.15 137.16 69 132.06 69 132.52"/><polygon class="cls-7" points="55.25 85.67 48.33 77.5 3.83 102.97 3.83 103.51 10.61 111.49 11.13 111.49 55.26 85.98 55.25 85.67"/><path class="cls-9" d="M3.83,103l7.3,8.51L55.55,85.82v-.31l-6.95-8.29Z"/><path class="cls-9" d="M38.54,115.9,30,122.28v.46L74.71,96.53l6.87-5.06-.27-.3Z"/><path class="cls-12" d="M38.54,116.36,30,122.74,74.71,97l6.87-5.51Z"/><g class="cls-4"><polygon class="cls-5" points="55.57 151.9 95.91 175.25 135.88 152.19 95.54 128.84 55.57 151.9"/></g><path class="cls-6" d="M124.31,97.21l-2.2-1.27-.28-.15L120,94.73,106.56,87,72,106.94l13.43,7.76,1.57.89.28.17,2.48,1.42,14.83,8.57,34.52-20h0Z"/><path class="cls-13" d="M106.56,87.67,73.19,106.94l31.39,17.91,33.33-19.07Z"/><polygon class="cls-7" points="104.58 125.75 104.54 170.15 89.64 161.65 85.31 159.18 71.98 151.56 71.98 106.94 104.58 125.75"/><path class="cls-3" d="M104.57,125.75l0,44.4,34.6-19.79V105.79Z"/><polygon class="cls-8" points="118.66 130.04 118.3 130.25 118.3 124 118.66 123.79 118.66 130.04"/><polygon class="cls-8" points="119.95 124.42 119.69 124.85 118.48 124.06 117.27 126.25 117.01 126.12 118.48 123.44 119.95 124.42"/><polygon class="cls-8" points="122.26 127.97 121.9 128.18 121.9 121.92 122.26 121.72 122.26 127.97"/><polygon class="cls-8" points="123.55 122.34 123.28 122.78 122.08 121.98 120.87 124.17 120.61 124.05 122.08 121.37 123.55 122.34"/><path class="cls-8" d="M123.63,127.38l-6.7,3.88c-.1.05-.19,0-.19-.11a.4.4,0,0,1,.19-.31l6.7-3.87c.1-.06.18,0,.18.1A.39.39,0,0,1,123.63,127.38Z"/><path class="cls-8" d="M123.58,129.08l-6.6,3.81c-.69.4-1.26.07-1.26-.73v-7.62a2.82,2.82,0,0,1,1.26-2.18l6.6-3.81c.69-.4,1.26-.07,1.26.73v7.62A2.8,2.8,0,0,1,123.58,129.08Zm-6.6-6.3a2,2,0,0,0-.9,1.55V132c0,.57.41.81.9.52l6.6-3.81a2,2,0,0,0,.89-1.55v-7.62c0-.57-.41-.81-.9-.52Z"/><path class="cls-8" d="M129.93,124.24c-.09.05-.17,0-.17-.11v-5.45a.42.42,0,0,1,.17-.31c.1-.06.19,0,.19.1v5.46A.42.42,0,0,1,129.93,124.24Z"/><path class="cls-8" d="M133.23,123.36l-6.59,3.81c-.69.4-1.26.08-1.26-.73v-7.61a2.8,2.8,0,0,1,1.26-2.18l6.59-3.81c.7-.4,1.26-.07,1.26.73v7.61A2.77,2.77,0,0,1,133.23,123.36Zm-6.59-6.3a2,2,0,0,0-.9,1.56v7.62c0,.57.4.8.9.51l6.59-3.8a2,2,0,0,0,.9-1.56v-7.62c0-.57-.4-.8-.9-.51Z"/><path class="cls-8" d="M132.66,118.74c-.26-1-1.38-1.23-2.73-.46a6,6,0,0,0-2.72,3.61Z"/><path class="cls-8" d="M129,118.14c-.1.06-.18,0-.18-.1v-1.33a.37.37,0,0,1,.18-.31c.1-.06.18,0,.18.1v1.33A.39.39,0,0,1,129,118.14Z"/><path class="cls-8" d="M129.93,117.6c-.09.05-.17,0-.17-.11v-1.33a.41.41,0,0,1,.17-.31c.1-.06.18,0,.18.1v1.33A.41.41,0,0,1,129.93,117.6Z"/><path class="cls-8" d="M130.88,117.05a.11.11,0,0,1-.18-.11v-1.33a.44.44,0,0,1,.18-.31c.1-.06.19,0,.19.1v1.33A.39.39,0,0,1,130.88,117.05Z"/><path class="cls-8" d="M133.21,135.54l-6.6,3.81c-.7.4-1.26.07-1.26-.73V131a2.77,2.77,0,0,1,1.26-2.17l6.65-3.81c.69-.4,1.26-.08,1.26.72l-.06,7.62A2.79,2.79,0,0,1,133.21,135.54Zm-6.6-6.3a2,2,0,0,0-.9,1.56v7.61c0,.58.4.81.9.52l6.6-3.81a2,2,0,0,0,.89-1.55l.06-7.62c0-.57-.4-.8-.9-.52Z"/><path class="cls-8" d="M129.91,135.36c-.11.06-.18,0-.18-.1v-5.45a.38.38,0,0,1,.18-.31c.09-.06.17,0,.17.1v5.46A.39.39,0,0,1,129.91,135.36Z"/><path class="cls-8" d="M130.72,134.89l-1.63,1c-.1.06-.18,0-.18-.1a.41.41,0,0,1,.18-.32l1.63-.94c.11-.06.18,0,.18.1A.35.35,0,0,1,130.72,134.89Z"/><path class="cls-8" d="M131.65,128v2.54a2.39,2.39,0,0,1-1.08,1.87l-1.32.76c-.6.34-1.08.07-1.08-.62V130l.65-.37v2.72c0,.11.08.16.18.1a.37.37,0,0,0,.18-.31v-2.72Z"/><polygon class="cls-8" points="118.52 137.32 119.82 138.06 118.53 140.31 118.52 137.32"/><polygon class="cls-8" points="121.55 135.08 120.28 137.28 119.02 136.54 121.55 135.08"/><polygon class="cls-8" points="120.28 138.33 121.66 139.13 118.89 140.73 120.28 138.33"/><polygon class="cls-8" points="122.09 135.19 122.09 138.32 120.73 137.54 122.09 135.19"/><polygon class="cls-8" points="122.63 139.42 117.7 136.58 117.93 136.18 122.86 139.03 122.63 139.42"/><polygon class="cls-8" points="117.93 142.13 117.7 142 122.63 133.47 122.86 133.61 117.93 142.13"/><polygon class="cls-8" points="122.9 138.42 122.58 138.6 122.58 134.49 122.9 134.3 122.9 138.42"/><polygon class="cls-8" points="117.98 141.26 117.65 141.45 117.65 137.33 117.98 137.15 117.98 141.26"/><polygon class="cls-8" points="124.66 135.49 123.86 135.95 123.86 135.66 124.66 135.21 124.66 135.49"/><polygon class="cls-8" points="124.03 135.01 122.99 136.31 124.03 136.4 124.03 135.01"/><polygon class="cls-8" points="116.76 140.05 115.96 140.51 115.96 140.23 116.76 139.76 116.76 140.05"/><polygon class="cls-8" points="116.58 140.7 117.63 139.4 116.58 139.31 116.58 140.7"/><path class="cls-8" d="M123.69,141.15l-6.82,3.93c-.62.36-1.13.07-1.13-.65v-7.87a2.51,2.51,0,0,1,1.13-2l6.82-3.94c.62-.36,1.13-.06,1.13.66v7.87A2.51,2.51,0,0,1,123.69,141.15ZM116.87,135a1.82,1.82,0,0,0-.81,1.4v7.87c0,.52.37.73.81.47l6.82-3.94a1.78,1.78,0,0,0,.81-1.39V131.5c0-.51-.37-.72-.81-.46Z"/><path class="cls-8" d="M80.74,121.88a3.09,3.09,0,0,0,1.4,2.43L90,128.82c.77.45,1.4.09,1.4-.81h0a3.12,3.12,0,0,0-1.4-2.43l-7.81-4.51c-.77-.44-1.4-.08-1.4.81Z"/><path class="cls-3" d="M80.74,121.89a3.12,3.12,0,0,0,1.4,2.43l7.81,4.5c.55.32,1,.23,1.26-.18a1,1,0,0,1-1-.11L82.43,124a3.09,3.09,0,0,1-1.4-2.43,1.31,1.31,0,0,1,.14-.63A1,1,0,0,0,80.74,121.89Z"/><polygon class="cls-7" points="122.11 95.94 87.26 115.76 86.98 115.59 121.83 95.79 122.11 95.94"/><polygon class="cls-14" points="104.03 125.75 104.03 126.05 87.26 116.52 86.98 116.36 72.33 108.05 72.33 107.73 86.98 116.05 87.26 116.21 104.03 125.75"/><polygon class="cls-14" points="87.26 115.76 87.26 116.52 86.98 116.36 86.98 115.59 87.26 115.76"/><g class="cls-4"><polygon class="cls-5" points="24.27 170.49 64.38 193.65 91.99 177.71 51.87 154.55 24.27 170.49"/></g><path class="cls-6" d="M71.06,131.11,36.71,151l35.1,20.27,34.34-19.83h0Z"/><path class="cls-3" d="M71.05,131.65,37.64,151l16.26,9.32,17.91,10.27L89,160.71l16.26-9.33Z"/><path class="cls-2" d="M71.05,131.65v18.71l.76,20.18L89,160.71l16.26-9.33Z"/><path class="cls-15" d="M71.05,150.36,53.9,160.27l17.91,10.27L89,160.71Z"/><polygon class="cls-7" points="71.81 171.21 71.81 189.36 56.74 180.73 50.64 177.23 36.71 169.25 36.71 150.95 71.81 171.21"/><path class="cls-3" d="M71.81,171.22v18.14l34.34-19.71V151.39Z"/><polygon class="cls-7" points="70.51 131.41 57.6 116.16 24.02 135.05 24.02 135.82 36.71 150.95 37.64 150.95 70.52 131.98 70.51 131.41"/><path class="cls-9" d="M24,135.07,37.64,151l33.42-19.26v-.58l-13-15.46Z"/><polygon class="cls-8" points="76.45 174.77 77.22 175.22 76.45 176.54 76.45 174.77"/><polygon class="cls-8" points="78.23 173.45 77.48 174.75 76.74 174.32 78.23 173.45"/><polygon class="cls-8" points="77.48 175.37 78.3 175.85 76.67 176.79 77.48 175.37"/><polygon class="cls-8" points="78.56 173.52 78.56 175.37 77.75 174.91 78.56 173.52"/><rect class="cls-8" x="77.35" y="173.38" width="0.27" height="3.36" transform="translate(-112.86 154.61) rotate(-59.99)"/><polygon class="cls-8" points="76.1 177.62 75.96 177.54 78.87 172.5 79.01 172.58 76.1 177.62"/><polygon class="cls-8" points="79.04 175.42 78.84 175.53 78.84 173.1 79.04 172.99 79.04 175.42"/><polygon class="cls-8" points="76.13 177.1 75.94 177.21 75.94 174.78 76.13 174.67 76.13 177.1"/><polygon class="cls-8" points="80.07 173.69 79.6 173.96 79.6 173.8 80.07 173.53 80.07 173.69"/><polygon class="cls-8" points="79.71 173.41 79.09 174.18 79.71 174.23 79.71 173.41"/><polygon class="cls-8" points="75.4 176.39 74.93 176.66 74.93 176.49 75.4 176.22 75.4 176.39"/><polygon class="cls-8" points="75.3 176.78 75.92 176.01 75.3 175.95 75.3 176.78"/><path class="cls-8" d="M79.5,177l-4,2.32c-.37.22-.67,0-.67-.38v-4.66a1.47,1.47,0,0,1,.67-1.15l4-2.33c.37-.21.67,0,.67.39v4.65A1.49,1.49,0,0,1,79.5,177Zm-4-3.65a1.06,1.06,0,0,0-.48.82v4.66c0,.3.22.43.48.27l4-2.32A1.08,1.08,0,0,0,80,176v-4.65c0-.31-.22-.43-.48-.28Z"/><path class="cls-7" d="M105.56,151.75,71.5,170.59v.58l17.32,4.23,34.38-19.59v-.58Z"/><path class="cls-9" d="M105.56,151.17,71.5,170.59l17.32,4.23,34.38-19.59Z"/><path class="cls-6" d="M120.51,60.29l-3.24-1.87L104,50.73,80.8,64l13.42,7.75.52.31,2.72,1.57,18.45,10.65L139,71h0Z"/><path class="cls-13" d="M103.94,51.26,81.73,64l34.18,19.58L138.12,71Z"/><polygon class="cls-7" points="115.91 84.24 115.91 118.4 100.83 109.77 97.46 107.84 94.74 106.28 94.21 105.98 80.8 98.3 80.8 63.97 94.74 72.03 100.83 75.54 115.91 84.24"/><path class="cls-3" d="M115.91,84.25V118.4L139,105.29V71Z"/><polygon class="cls-8" points="125.51 108.84 125.26 108.99 125.26 104.61 125.51 104.47 125.51 108.84"/><polygon class="cls-8" points="126.42 104.91 126.23 105.21 125.39 104.65 124.55 106.19 124.36 106.09 125.39 104.22 126.42 104.91"/><polygon class="cls-8" points="128.03 107.39 127.78 107.53 127.78 103.16 128.03 103.02 128.03 107.39"/><polygon class="cls-8" points="128.93 103.45 128.75 103.76 127.9 103.2 127.06 104.73 126.87 104.64 127.9 102.77 128.93 103.45"/><path class="cls-8" d="M129,107l-4.69,2.71c-.07,0-.13,0-.13-.08a.27.27,0,0,1,.13-.21l4.69-2.71c.07,0,.13,0,.13.07A.29.29,0,0,1,129,107Z"/><path class="cls-8" d="M129,108.16l-4.61,2.67c-.49.28-.88,0-.88-.51V105a1.93,1.93,0,0,1,.88-1.52L129,100.8c.49-.28.88,0,.88.51v5.33A1.93,1.93,0,0,1,129,108.16Zm-4.61-4.4a1.39,1.39,0,0,0-.63,1.09v5.32c0,.4.28.57.63.37l4.61-2.67a1.37,1.37,0,0,0,.63-1.08v-5.33c0-.4-.28-.56-.63-.37Z"/><path class="cls-8" d="M133.54,104.78c-.06,0-.12,0-.12-.07v-3.82a.3.3,0,0,1,.12-.22c.07,0,.13,0,.13.08v3.81A.29.29,0,0,1,133.54,104.78Z"/><path class="cls-8" d="M135.85,104.17l-4.61,2.66c-.49.28-.88,0-.88-.51V101a1.93,1.93,0,0,1,.88-1.52l4.61-2.67c.49-.28.88,0,.88.52v5.32A2,2,0,0,1,135.85,104.17Zm-4.61-4.41a1.39,1.39,0,0,0-.63,1.09v5.33c0,.4.28.56.63.36l4.61-2.66a1.4,1.4,0,0,0,.63-1.09V97.46c0-.4-.28-.56-.63-.36Z"/><path class="cls-8" d="M135.45,100.93c-.18-.7-1-.86-1.91-.32a4.18,4.18,0,0,0-1.9,2.52Z"/><path class="cls-8" d="M132.88,100.52c-.07,0-.12,0-.12-.08v-.93a.24.24,0,0,1,.12-.21c.07,0,.13,0,.13.07v.93A.3.3,0,0,1,132.88,100.52Z"/><path class="cls-8" d="M133.54,100.13c-.06,0-.12,0-.12-.07v-.93a.3.3,0,0,1,.12-.22c.07,0,.13,0,.13.07v.93A.27.27,0,0,1,133.54,100.13Z"/><path class="cls-8" d="M134.21,99.75c-.07,0-.13,0-.13-.07v-.93a.29.29,0,0,1,.13-.22c.07,0,.12,0,.12.07v.93A.27.27,0,0,1,134.21,99.75Z"/><polygon class="cls-16" points="97.46 73.61 97.46 107.84 94.74 106.28 94.21 105.98 94.21 71.74 97.46 73.61"/><polygon class="cls-17" points="127.21 77.72 127.21 91.47 130.46 89.62 130.46 75.86 127.21 77.72"/><polygon class="cls-18" points="120.51 60.29 114.41 63.83 111.16 65.7 97.53 73.56 97.46 73.6 97.44 73.61 94.19 71.74 94.22 71.72 94.29 71.69 107.91 63.83 111.16 61.95 117.27 58.42 120.51 60.29"/><polygon class="cls-18" points="92.19 57.45 103.26 63.82 106.5 65.7 120.14 73.56 127.21 77.76 130.46 75.89 123.38 71.69 109.75 63.82 106.5 61.94 95.43 55.59 92.19 57.45"/><polygon class="cls-10" points="135.82 92.53 123.08 99.88 123.08 88.94 135.82 81.58 135.82 92.53"/><polygon class="cls-8" points="134.61 84.86 124.29 90.82 124.29 89.59 134.61 83.64 134.61 84.86"/><polygon class="cls-11" points="134.61 87.07 124.29 93.02 124.29 92.49 134.61 86.53 134.61 87.07"/><polygon class="cls-11" points="134.61 88.51 124.29 94.46 124.29 93.92 134.61 87.97 134.61 88.51"/><polygon class="cls-11" points="134.61 90.06 124.29 96.01 124.29 95.47 134.61 89.51 134.61 90.06"/><polygon class="cls-11" points="134.61 91.49 124.29 97.45 124.29 96.91 134.61 90.95 134.61 91.49"/><path class="cls-6" d="M110.25,29.44,75.9,49.27,111,69.55l34.33-19.84h0Z"/><path class="cls-13" d="M110.25,30,76.83,49.27,111,68.86l33.42-19.15Z"/><polygon class="cls-7" points="111 69.54 111 87.69 95.94 79.05 89.83 75.56 75.9 67.58 75.9 49.27 111 69.54"/><path class="cls-3" d="M111,69.54V87.68L145.34,68V49.71Z"/><polygon class="cls-8" points="115.59 80.71 115.4 80.81 115.4 77.62 115.59 77.51 115.59 80.71"/><polygon class="cls-8" points="116.25 77.84 116.11 78.06 115.5 77.65 114.88 78.77 114.74 78.7 115.5 77.34 116.25 77.84"/><polygon class="cls-8" points="117.42 79.65 117.24 79.75 117.24 76.56 117.42 76.45 117.42 79.65"/><polygon class="cls-8" points="118.08 76.78 117.94 77 117.33 76.59 116.71 77.71 116.58 77.64 117.33 76.28 118.08 76.78"/><path class="cls-8" d="M118.12,79.35l-3.42,2s-.09,0-.09,0a.2.2,0,0,1,.09-.16l3.42-2s.1,0,.1,0A.21.21,0,0,1,118.12,79.35Z"/><path class="cls-8" d="M118.09,80.21l-3.36,2c-.36.2-.64,0-.64-.37V77.9a1.39,1.39,0,0,1,.64-1.11l3.36-2c.36-.2.65,0,.65.37V79.1A1.4,1.4,0,0,1,118.09,80.21ZM114.73,77a1,1,0,0,0-.46.79v3.89c0,.29.21.41.46.26L118.09,80a1,1,0,0,0,.46-.79V75.32c0-.29-.2-.41-.46-.27Z"/><path class="cls-8" d="M121.45,77.74s-.1,0-.1,0V74.91a.21.21,0,0,1,.1-.16s.09,0,.09,0v2.78A.2.2,0,0,1,121.45,77.74Z"/><path class="cls-8" d="M123.13,77.3l-3.37,1.94c-.35.2-.64,0-.64-.37V75a1.42,1.42,0,0,1,.64-1.11l3.37-2c.35-.2.64,0,.64.38v3.88A1.45,1.45,0,0,1,123.13,77.3Zm-3.37-3.22a1,1,0,0,0-.46.79v3.89a.28.28,0,0,0,.46.27l3.37-2a1,1,0,0,0,.46-.79V72.4c0-.29-.21-.41-.46-.26Z"/><path class="cls-8" d="M122.84,74.94c-.14-.52-.71-.63-1.39-.24a3,3,0,0,0-1.39,1.84Z"/><path class="cls-8" d="M121,74.63s-.09,0-.09,0V73.9a.2.2,0,0,1,.09-.16.06.06,0,0,1,.09.05v.68A.2.2,0,0,1,121,74.63Z"/><path class="cls-8" d="M121.45,74.35s-.1,0-.1,0v-.68a.21.21,0,0,1,.1-.16s.09,0,.09.06v.67A.2.2,0,0,1,121.45,74.35Z"/><path class="cls-8" d="M121.93,74.07c-.05,0-.09,0-.09,0v-.68a.2.2,0,0,1,.09-.16s.09,0,.09.06v.67A.2.2,0,0,1,121.93,74.07Z"/><path class="cls-8" d="M128.12,74.42l-3.37,2c-.35.2-.64,0-.64-.37V72.11a1.42,1.42,0,0,1,.64-1.11l3.37-2c.35-.2.64,0,.64.37v3.89A1.42,1.42,0,0,1,128.12,74.42Zm-3.37-3.21a1,1,0,0,0-.45.79v3.89c0,.29.2.41.45.27l3.37-2a1,1,0,0,0,.46-.79V69.53c0-.29-.21-.41-.46-.26Z"/><path class="cls-8" d="M126.44,74.34a.06.06,0,0,1-.1-.06V71.5a.21.21,0,0,1,.1-.16.06.06,0,0,1,.09,0v2.79A.2.2,0,0,1,126.44,74.34Z"/><path class="cls-8" d="M126.85,74.1l-.83.48a.06.06,0,0,1-.09,0,.2.2,0,0,1,.09-.16l.83-.49c.06,0,.1,0,.1.06A.19.19,0,0,1,126.85,74.1Z"/><path class="cls-8" d="M127.32,70.57v1.3a1.21,1.21,0,0,1-.55,1l-.67.39c-.3.17-.55,0-.55-.32V71.6l.33-.19V72.8c0,.06,0,.08.1,0a.2.2,0,0,0,.09-.16V71.3Z"/><polygon class="cls-16" points="95.94 60.8 95.94 79.05 89.83 75.56 89.83 57.29 95.94 60.8"/><polygon class="cls-18" points="130.25 40.99 95.94 60.8 95.9 60.83 89.83 57.32 89.83 57.29 95.94 53.77 124.16 37.47 130.25 40.99"/><polygon class="cls-10" points="142.77 59.81 136.03 63.7 136.03 57.9 142.77 54.01 142.77 59.81"/><polygon class="cls-8" points="142.13 55.75 136.67 58.9 136.67 58.25 142.13 55.1 142.13 55.75"/><polygon class="cls-11" points="142.13 56.91 136.67 60.07 136.67 59.78 142.13 56.63 142.13 56.91"/><polygon class="cls-11" points="142.13 57.68 136.67 60.83 136.67 60.54 142.13 57.39 142.13 57.68"/><polygon class="cls-11" points="142.13 58.5 136.67 61.65 136.67 61.36 142.13 58.21 142.13 58.5"/><polygon class="cls-11" points="142.13 59.26 136.67 62.41 136.67 62.13 142.13 58.97 142.13 59.26"/><path class="cls-6" d="M125.78,7.69l-3.24-1.86L112.46,0,86.51,15l10.08,5.82,3.25,1.87L111,29.1l25.91-15h0Z"/><path class="cls-13" d="M112.46.52,87.42,15,111,28.43l25-14.31Z"/><polygon class="cls-7" points="110.97 29.11 110.94 62.43 99.76 56.05 96.52 54.2 86.51 48.48 86.51 14.99 110.97 29.11"/><path class="cls-3" d="M111,29.1l0,33.33,26-14.85V14.13Z"/><polygon class="cls-16" points="99.76 22.73 99.76 56.05 96.52 54.2 96.52 20.86 99.76 22.73"/><polygon class="cls-18" points="125.78 7.69 116.72 12.94 113.47 14.82 99.84 22.68 99.75 22.73 96.5 20.86 96.59 20.81 110.22 12.94 113.47 11.06 122.54 5.83 125.78 7.69"/><polygon class="cls-8" points="126.29 27.65 126.11 27.75 126.11 24.57 126.29 24.46 126.29 27.65"/><polygon class="cls-8" points="126.95 24.78 126.82 25 126.2 24.59 125.58 25.71 125.45 25.64 126.2 24.28 126.95 24.78"/><polygon class="cls-8" points="128.13 26.59 127.94 26.7 127.94 23.5 128.13 23.4 128.13 26.59"/><polygon class="cls-8" points="128.79 23.72 128.65 23.94 128.04 23.53 127.42 24.65 127.28 24.59 128.04 23.22 128.79 23.72"/><path class="cls-8" d="M128.83,26.29l-3.42,2a.06.06,0,0,1-.1-.06.22.22,0,0,1,.1-.15l3.42-2s.09,0,.09.05A.2.2,0,0,1,128.83,26.29Z"/><path class="cls-8" d="M128.8,27.16l-3.37,1.94c-.35.2-.64,0-.64-.37V24.84a1.42,1.42,0,0,1,.64-1.11l3.37-1.94c.35-.21.64,0,.64.37V26A1.45,1.45,0,0,1,128.8,27.16Zm-3.37-3.22a1,1,0,0,0-.45.8v3.88c0,.3.2.41.45.27L128.8,27a1,1,0,0,0,.46-.8V22.26c0-.29-.21-.41-.46-.26Z"/><path class="cls-8" d="M132.05,24.68c-.05,0-.1,0-.1-.05V21.85a.21.21,0,0,1,.1-.16s.09,0,.09.06v2.78A.19.19,0,0,1,132.05,24.68Z"/><path class="cls-8" d="M133.73,24.24l-3.37,1.94c-.35.21-.64,0-.64-.37V21.92a1.45,1.45,0,0,1,.64-1.11l3.37-1.94c.35-.21.64,0,.64.37v3.89A1.43,1.43,0,0,1,133.73,24.24ZM130.36,21a1,1,0,0,0-.46.8v3.89c0,.29.21.41.46.26L133.73,24a1,1,0,0,0,.46-.8V19.34c0-.29-.21-.41-.46-.26Z"/><path class="cls-8" d="M133.44,21.88c-.14-.51-.71-.63-1.39-.23a3,3,0,0,0-1.39,1.84Z"/><path class="cls-8" d="M131.56,21.57c-.05,0-.09,0-.09-.05v-.68a.2.2,0,0,1,.09-.16c.05,0,.09,0,.09.06v.68A.19.19,0,0,1,131.56,21.57Z"/><path class="cls-8" d="M132.05,21.3c-.05,0-.1,0-.1-.06v-.68a.21.21,0,0,1,.1-.16s.09,0,.09.06v.68A.2.2,0,0,1,132.05,21.3Z"/><path class="cls-8" d="M132.53,21c-.05,0-.09,0-.09-.06v-.67a.18.18,0,0,1,.09-.16c.05,0,.09,0,.09.05v.68A.2.2,0,0,1,132.53,21Z"/><path class="cls-8" d="M133.71,30.46l-3.36,1.94c-.36.2-.64,0-.64-.37V28.14a1.39,1.39,0,0,1,.64-1.11l3.39-2c.36-.2.65,0,.65.38l0,3.88A1.43,1.43,0,0,1,133.71,30.46Zm-3.36-3.22a1,1,0,0,0-.46.79v3.89c0,.29.2.41.46.27l3.36-1.95a1,1,0,0,0,.46-.79l0-3.89c0-.29-.2-.41-.46-.26Z"/><path class="cls-8" d="M132,30.37c-.05,0-.09,0-.09-.06V27.53a.2.2,0,0,1,.09-.16c.05,0,.09,0,.09.06v2.78A.2.2,0,0,1,132,30.37Z"/><path class="cls-8" d="M132.45,30.13l-.84.48c-.05,0-.09,0-.09-.06a.19.19,0,0,1,.09-.15l.84-.49c.05,0,.09,0,.09.06A.22.22,0,0,1,132.45,30.13Z"/><path class="cls-8" d="M132.92,26.6v1.3a1.25,1.25,0,0,1-.55,1l-.67.39c-.31.17-.56,0-.56-.32v-1.3l.34-.19v1.39a.06.06,0,0,0,.09.05.2.2,0,0,0,.09-.16V27.33Z"/><polygon class="cls-8" points="126.22 31.36 126.88 31.74 126.22 32.89 126.22 31.36"/><polygon class="cls-8" points="127.76 30.22 127.12 31.34 126.47 30.97 127.76 30.22"/><polygon class="cls-8" points="127.12 31.88 127.83 32.29 126.41 33.1 127.12 31.88"/><polygon class="cls-8" points="128.04 30.28 128.04 31.88 127.35 31.48 128.04 30.28"/><rect class="cls-8" x="127" y="30.16" width="0.23" height="2.9" transform="translate(36.19 125.9) rotate(-60)"/><polygon class="cls-8" points="125.92 33.82 125.8 33.75 128.32 29.4 128.43 29.47 125.92 33.82"/><polygon class="cls-8" points="128.46 31.92 128.29 32.02 128.29 29.92 128.46 29.82 128.46 31.92"/><polygon class="cls-8" points="125.94 33.37 125.78 33.47 125.78 31.37 125.94 31.27 125.94 33.37"/><polygon class="cls-8" points="129.35 30.43 128.95 30.66 128.95 30.52 129.35 30.29 129.35 30.43"/><polygon class="cls-8" points="129.03 30.18 128.5 30.85 129.03 30.89 129.03 30.18"/><polygon class="cls-8" points="125.32 32.76 124.91 32.99 124.91 32.85 125.32 32.61 125.32 32.76"/><polygon class="cls-8" points="125.23 33.09 125.77 32.43 125.23 32.38 125.23 33.09"/><path class="cls-8" d="M128.86,33.32l-3.48,2c-.32.19-.58,0-.58-.33V31a1.3,1.3,0,0,1,.58-1l3.48-2c.31-.19.57,0,.57.33v4A1.29,1.29,0,0,1,128.86,33.32Zm-3.48-3.16a.93.93,0,0,0-.41.72v4c0,.26.18.37.41.23l3.48-2a1,1,0,0,0,.41-.72v-4c0-.26-.19-.37-.41-.23Z"/></g></g></g></svg>