<!--?xml version="1.0" standalone="no"?-->              <svg id="sw-js-blob-svg" viewBox="0 0 100 100" xmlns="http://www.w3.org/2000/svg">                    <defs>                         <linearGradient id="sw-gradient" x1="0" x2="1" y1="1" y2="0">                            <stop id="stop1" stop-color="rgba(0, 215.042, 244.441, 1)" offset="0%"></stop>                            <stop id="stop2" stop-color="rgba(0, 69.689, 255, 1)" offset="100%"></stop>                        </linearGradient>                    </defs>                <path fill="url(#sw-gradient)" d="M17.8,-30.6C24.5,-27,32.4,-25.1,37.7,-20.3C43.1,-15.5,45.9,-7.7,45.2,-0.4C44.4,6.9,40,13.7,35.1,19.2C30.1,24.7,24.6,28.8,18.6,30.7C12.7,32.7,6.3,32.4,-0.5,33.3C-7.3,34.1,-14.6,36,-19.7,33.6C-24.7,31.2,-27.6,24.3,-30.7,18C-33.9,11.7,-37.5,5.8,-37.7,-0.1C-37.9,-6.1,-34.7,-12.2,-31.2,-18C-27.8,-23.8,-23.9,-29.3,-18.7,-33.8C-13.4,-38.3,-6.7,-41.8,-0.6,-40.8C5.6,-39.8,11.1,-34.3,17.8,-30.6Z" width="100%" height="100%" transform="translate(50 50)" stroke-width="0" style="transition: 0.3s;" stroke="url(#sw-gradient)"></path>              </svg>