<svg xmlns="http://www.w3.org/2000/svg" viewBox="0 0 424.85 270.06"><defs><style>.cls-1{isolation:isolate;}.cls-14,.cls-2{fill:#907872;}.cls-12,.cls-13,.cls-2,.cls-21,.cls-22,.cls-23,.cls-24,.cls-3,.cls-31,.cls-5,.cls-6,.cls-8{fill-rule:evenodd;}.cls-3,.cls-4{fill:#3d2e2b;}.cls-15,.cls-5{fill:#544341;}.cls-6{fill:#c5b79d;}.cls-12,.cls-7{fill:#7a6b56;}.cls-8{fill:#aa997a;}.cls-9{fill:#e65627;}.cls-10{fill:#ae4225;}.cls-11{fill:#912f1c;}.cls-13,.cls-18{fill:#fee74c;}.cls-16,.cls-24{fill:#d18015;}.cls-17,.cls-23{fill:#fba425;}.cls-19{fill:#f8d18d;}.cls-20{fill:#e4a53d;}.cls-21{fill:#374345;}.cls-22{fill:#808083;}.cls-25{fill:#a4652c;}.cls-26{fill:#fff;}.cls-27{fill:#cfd8dc;}.cls-28{mix-blend-mode:multiply;}.cls-29,.cls-31{fill:#bbbdbf;}.cls-30{fill:#d4d7d9;}</style></defs><g class="cls-1"><g id="Layer_2" data-name="Layer 2"><g id="OBJECT"><path class="cls-2" d="M406.88,134.34l-2-1.13-.28-.12-.29-.07-.31,0-.33,0-.34.08-.36.13-.36.19L398.27,136l-.37.23-.35.28a8.36,8.36,0,0,0-1.56,1.89l-.25.46-.23.47-.21.49-.18.49-.15.51-.12.5-.09.51-.05.5,0,.5V154.6l0,.48.05.44.09.4.12.37.15.33.18.29.21.25.23.2.25.16,2,1.14-.26-.16,8.91-24.28Z"/><path class="cls-3" d="M404.61,134.56l-4.38,2.53c-2,1.13-3.58,4.21-3.58,6.83v11.81c0,2.63,1.61,3.84,3.58,2.71l4.38-2.53c2-1.14,3.58-4.21,3.58-6.84V137.26C408.19,134.64,406.58,133.42,404.61,134.56Z"/><path class="cls-4" d="M236.49,101h0a10.69,10.69,0,0,1,1-1.27c.19-.21.34-.46.54-.66a9.25,9.25,0,0,1,1.88-1.43l-82.54,48a9.68,9.68,0,0,0-1.88,1.44c-.18.17-.31.4-.47.58a11.61,11.61,0,0,0-1.08,1.33h0v0a13.26,13.26,0,0,0-.75,1.34c-.14.31-.28.64-.4,1a.93.93,0,0,1-.05.1l0,.08c-.12.33-.24.68-.34,1s-.18.66-.26,1l-.15.69,82.54-48a16.35,16.35,0,0,1,.78-2.8s0-.07,0-.11A14.21,14.21,0,0,1,236.49,101Z"/><path class="cls-4" d="M370.08,180.7a12.54,12.54,0,0,1,1.15-2.32h0a9.94,9.94,0,0,1,1-1.28c.18-.21.33-.46.52-.65a9.83,9.83,0,0,1,1.88-1.43l-82.53,48a9.68,9.68,0,0,0-1.88,1.44,7.81,7.81,0,0,0-.58.71,10.45,10.45,0,0,0-1,1.2h0v0a11.51,11.51,0,0,0-.74,1.34c-.15.31-.28.64-.41,1a1,1,0,0,1,0,.1l0,.08c-.13.33-.24.68-.35,1s-.18.66-.26,1-.1.45-.14.69l82.53-48a17.31,17.31,0,0,1,.79-2.8A.3.3,0,0,1,370.08,180.7Z"/><polygon class="cls-5" points="197.18 172.84 197.11 171.81 197 170.76 196.85 169.71 196.66 168.65 196.43 167.59 196.17 166.52 195.86 165.45 195.52 164.39 195.15 163.32 194.74 162.27 194.29 161.22 193.82 160.17 193.32 159.14 192.78 158.12 192.22 157.11 191.63 156.12 191.01 155.15 190.37 154.2 189.71 153.26 189.01 152.36 188.3 151.47 187.57 150.62 186.82 149.79 186.05 148.99 185.26 148.23 184.45 147.5 183.63 146.8 182.79 146.15 181.94 145.53 181.08 144.96 180.2 144.43 178.47 143.53 176.78 142.85 175.15 142.39 173.59 142.15 172.1 142.12 170.7 142.29 169.4 142.67 168.19 143.24 162.63 146.45 156.83 149.8 180.86 191.42 182.22 190.63 182.22 190.64 188.23 187.17 189.45 186.46 189.45 186.46 192.22 184.86 193.32 184.1 194.29 183.16 195.15 182.03 195.86 180.73 196.43 179.26 196.85 177.62 197.11 175.82 197.2 173.86 197.18 172.84"/><path class="cls-2" d="M169,151c9.38,5.42,17,18.59,17,29.43s-7.61,15.23-17,9.81-17-18.6-17-29.43S159.59,145.57,169,151Z"/><path class="cls-6" d="M168.84,158c6.06,3.49,11,12,11,19s-4.91,9.83-11,6.33-11-12-11-19S162.79,154.45,168.84,158Z"/><ellipse class="cls-7" cx="168.84" cy="170.61" rx="8.17" ry="14.15" transform="translate(-62.68 107.28) rotate(-30)"/><path class="cls-6" d="M170.24,164.39a10.36,10.36,0,0,1,4.68,8.12,3.29,3.29,0,0,1-1.37,3l-1.39.8a3.3,3.3,0,0,1-3.32-.33,10.36,10.36,0,0,1-4.68-8.12,3.29,3.29,0,0,1,1.37-3l1.39-.81A3.32,3.32,0,0,1,170.24,164.39Z"/><path class="cls-8" d="M168.84,165.2a10.3,10.3,0,0,1,4.69,8.12,2.86,2.86,0,0,1-4.69,2.7,10.36,10.36,0,0,1-4.68-8.12,2.85,2.85,0,0,1,4.68-2.7Z"/><polygon class="cls-5" points="331.91 250.34 331.84 249.31 331.74 248.27 331.59 247.21 331.4 246.15 331.17 245.09 330.9 244.03 330.6 242.96 330.26 241.89 329.88 240.83 329.47 239.77 329.03 238.72 328.56 237.68 328.05 236.65 327.52 235.62 326.95 234.62 326.36 233.63 325.75 232.66 325.11 231.7 324.44 230.77 323.75 229.86 323.04 228.98 322.31 228.12 321.55 227.29 320.78 226.5 319.99 225.73 319.19 225 318.36 224.31 317.53 223.65 316.68 223.04 315.81 222.46 314.94 221.93 313.2 221.03 311.51 220.35 309.88 219.9 308.32 219.66 306.84 219.63 305.44 219.8 304.13 220.17 302.92 220.74 297.36 223.95 291.56 227.3 315.6 268.93 316.96 268.14 316.95 268.14 322.97 264.67 324.19 263.97 324.19 263.97 326.95 262.37 328.05 261.61 329.03 260.66 329.88 259.54 330.6 258.23 331.17 256.76 331.59 255.12 331.84 253.32 331.93 251.37 331.91 250.34"/><path class="cls-2" d="M303.71,228.49c9.39,5.42,17,18.6,17,29.44s-7.6,15.22-17,9.81-17-18.6-17-29.44S294.33,223.07,303.71,228.49Z"/><path class="cls-6" d="M303.58,235.45c6.06,3.5,11,12,11,19s-4.91,9.82-11,6.33-11-12-11-19S297.52,232,303.58,235.45Z"/><ellipse class="cls-7" cx="303.58" cy="248.11" rx="8.17" ry="14.15" transform="translate(-83.39 185.03) rotate(-30)"/><path class="cls-6" d="M305,241.9a10.41,10.41,0,0,1,4.69,8.12,3.29,3.29,0,0,1-1.38,3l-1.39.81a3.3,3.3,0,0,1-3.31-.33,9.58,9.58,0,0,1-3.32-3.5,9.69,9.69,0,0,1-1.37-4.62,3.31,3.31,0,0,1,1.37-3l1.4-.8A3.28,3.28,0,0,1,305,241.9Z"/><path class="cls-8" d="M303.58,242.7a10.41,10.41,0,0,1,4.69,8.12,2.86,2.86,0,0,1-4.69,2.71,9.58,9.58,0,0,1-3.32-3.5,9.69,9.69,0,0,1-1.37-4.62,2.86,2.86,0,0,1,4.69-2.71Z"/><polygon class="cls-9" points="318.65 203.11 401.19 155.15 419.23 181.72 336.7 229.68 318.65 203.11"/><polygon class="cls-9" points="220.45 111.79 302.99 63.82 380.19 107.96 297.65 155.93 220.45 111.79"/><polygon class="cls-10" points="297.65 155.93 380.19 107.96 401.19 155.15 318.65 203.11 297.65 155.93"/><polygon class="cls-10" points="336.7 229.68 419.23 181.72 419.1 212.09 336.56 260.06 336.7 229.68"/><path class="cls-11" d="M297.65,155.93l21,47.18,18,26.57-.14,30.38-10.92-6c-1.73-11.52-9.74-24.11-19.4-29.69s-17.73-2.26-19.52,7.22l-95.81-54.93c-1.74-11.52-9.74-24.11-19.4-29.69s-17.73-2.26-19.53,7.22l-17.75-10.25.09-31.74h0l0-5.17,124.14,71.24.13-44.86Z"/><path class="cls-4" d="M307.53,189.63l-13-29.32a3.7,3.7,0,0,0-1.52-1.68l-24.2-14a3.68,3.68,0,0,0-5.51,3.17l-.06,21.75a3.68,3.68,0,0,0,1.84,3.19l37.31,21.54A3.67,3.67,0,0,0,307.53,189.63Z"/><polygon class="cls-8" points="151.98 147.36 151.98 157.62 148.82 159.34 148.82 149.19 151.98 147.36"/><path class="cls-6" d="M152,147.36l-3.16,1.83c-18.18-10.07-17.16-10.67-17.73-16.11-.35-3.35,1-5.67,3.26-7.85l-.14,6.67v.79c0,2.82,2.54,5.68,6.49,8Z"/><polygon class="cls-12" points="148.82 149.19 148.82 159.34 138.73 153.35 138.37 153.16 138.02 152.97 137.67 152.76 137.32 152.56 136.98 152.34 136.64 152.12 136.31 151.89 135.98 151.65 135.66 151.4 135.34 151.14 135.03 150.87 134.73 150.6 134.44 150.31 134.15 150.02 133.88 149.71 133.61 149.4 133.35 149.07 133.1 148.73 132.87 148.38 132.65 148.02 132.43 147.65 132.23 147.27 132.05 146.87 131.88 146.47 131.72 146.04 131.57 145.61 131.45 145.16 131.33 144.7 131.24 144.23 131.16 143.74 131.09 143.24 131.07 142.92 131.05 142.62 131.04 142.31 131.04 132.15 131.05 132.46 131.07 132.77 131.09 133.08 131.16 133.58 131.24 134.07 131.33 134.55 131.45 135.01 131.57 135.45 131.72 135.89 131.88 136.31 132.05 136.72 132.23 137.11 132.43 137.5 132.65 137.87 132.87 138.23 133.1 138.57 133.35 138.91 133.61 139.24 133.88 139.56 134.15 139.86 134.44 140.16 134.73 140.44 135.03 140.72 135.34 140.98 135.66 141.24 135.98 141.49 136.31 141.73 136.64 141.96 136.98 142.18 137.32 142.4 137.67 142.61 138.02 142.81 138.37 143 138.73 143.19 148.82 149.19"/><path class="cls-8" d="M418.54,207.14v4.74h0l4.1-2.37.88-.6.66-.66.43-.7.2-.71v9.93l-.2.71-.43.69-.66.67-.88.6-4.1,2.37h0l-75,43.16h0l-2.66,1.54-.51.27-.54.24-.56.2-.58.17-.6.15-.61.1-.61.08-.61,0h-.61l-.6,0-.58-.06-.57-.1-.55-.12-.51-.16-.49-.2-.45-.23-9.07-5.31-.74-.54-.5-.61-.26-.67,0-.7v-9.92l0,.69.26.67.5.61.74.54,9.07,5.31.45.23.49.2.51.16.55.13.57.09.58.06.6,0h.61l.61,0,.61-.07.61-.11.6-.14.58-.18.56-.2.54-.24.51-.27,2.66-1.53h0l73.25-42.29Zm0,4.74v9.92h0Z"/><path class="cls-6" d="M323.51,246.44l13.3,7.76,82.32-47.4,0-5.61,4.19,3.14c2.3,1.32,2,3.66-.64,5.18l-4.1,2.37h0l-75,43.16h0l-2.66,1.53c-2.64,1.53-6.69,1.69-9,.37l-9.07-5.31C320.57,250.31,320.86,248,323.51,246.44Z"/><polygon class="cls-6" points="286.72 231.57 190.92 176.65 186.81 179.02 282.61 233.94 286.72 231.57"/><polygon class="cls-12" points="282.61 233.94 186.81 179.02 186.81 183.98 282.61 238.91 282.61 233.94"/><polygon class="cls-8" points="286.72 231.57 286.72 236.56 282.61 238.91 282.61 233.94 286.72 231.57"/><path class="cls-5" d="M348.5,229.06c4.17-2.41,7.56-.45,7.56,4.37a16.72,16.72,0,0,1-7.56,13.09c-4.18,2.41-7.56.46-7.56-4.36A16.71,16.71,0,0,1,348.5,229.06Z"/><polygon class="cls-2" points="343.15 247.05 340.5 245.52 340.01 245.18 339.58 244.76 339.2 244.26 338.88 243.68 338.63 243.02 338.44 242.3 338.33 241.49 338.29 240.63 338.33 239.71 338.44 238.78 338.63 237.83 338.88 236.88 339.2 235.94 339.58 235 340.01 234.08 340.5 233.18 341.04 232.3 341.62 231.46 342.24 230.67 342.9 229.92 343.6 229.22 344.32 228.59 345.07 228.02 345.85 227.53 346.62 227.13 347.37 226.83 348.09 226.63 348.79 226.52 349.45 226.5 350.07 226.58 350.65 226.75 351.19 227 353.84 228.53 353.31 228.28 352.73 228.12 352.1 228.04 351.44 228.05 350.75 228.16 350.02 228.36 349.27 228.66 348.5 229.06 347.73 229.56 346.98 230.12 346.25 230.75 345.56 231.45 344.89 232.2 344.27 232.99 343.69 233.83 343.15 234.71 342.67 235.61 342.23 236.53 341.85 237.47 341.53 238.42 341.28 239.37 341.09 240.31 340.98 241.24 340.94 242.16 340.98 243.03 341.09 243.83 341.28 244.56 341.53 245.21 341.85 245.79 342.23 246.29 342.67 246.71 343.15 247.05"/><path class="cls-13" d="M348.5,231.33c3.09-1.78,5.6-.34,5.6,3.23a12.36,12.36,0,0,1-5.6,9.69c-3.09,1.79-5.6.34-5.6-3.23A12.36,12.36,0,0,1,348.5,231.33Z"/><path class="cls-5" d="M410,193.85c4.17-2.41,7.56-.46,7.56,4.36A16.72,16.72,0,0,1,410,211.3c-4.17,2.42-7.56.46-7.56-4.36A16.72,16.72,0,0,1,410,193.85Z"/><polygon class="cls-2" points="404.61 211.83 401.95 210.3 401.47 209.97 401.03 209.54 400.65 209.04 400.33 208.46 400.08 207.81 399.89 207.08 399.78 206.28 399.74 205.41 399.78 204.5 399.89 203.56 400.08 202.62 400.33 201.67 400.65 200.72 401.03 199.78 401.47 198.86 401.95 197.96 402.49 197.09 403.07 196.25 403.69 195.45 404.36 194.7 405.05 194.01 405.77 193.37 406.52 192.81 407.3 192.32 408.07 191.92 408.82 191.62 409.55 191.41 410.24 191.3 410.9 191.29 411.52 191.37 412.11 191.53 412.64 191.79 415.3 193.32 414.76 193.07 414.18 192.9 413.55 192.82 412.89 192.84 412.2 192.94 411.47 193.15 410.72 193.45 409.95 193.85 409.18 194.34 408.43 194.91 407.7 195.54 407.01 196.23 406.35 196.98 405.72 197.78 405.14 198.62 404.61 199.49 404.12 200.39 403.68 201.32 403.3 202.25 402.99 203.2 402.73 204.15 402.55 205.09 402.43 206.03 402.39 206.94 402.43 207.81 402.55 208.61 402.73 209.34 402.99 210 403.3 210.57 403.68 211.08 404.12 211.5 404.61 211.83"/><path class="cls-13" d="M410,196.11c3.09-1.78,5.6-.33,5.6,3.24A12.38,12.38,0,0,1,410,209c-3.09,1.78-5.6.34-5.6-3.23A12.4,12.4,0,0,1,410,196.11Z"/><path class="cls-3" d="M269.81,186.41l-6.61-3.83a2.85,2.85,0,0,1-1.18-2.26h0c0-.87.53-1.27,1.18-.9l6.61,3.84a2.83,2.83,0,0,1,1.18,2.26h0C271,186.39,270.46,186.79,269.81,186.41Z"/><polygon class="cls-11" points="134.32 112.18 134.34 47.97 258.48 119.2 259 179.28 134.32 112.18"/><polygon class="cls-9" points="134.34 47.97 216.88 0 341.02 71.24 258.48 119.2 134.34 47.97"/><path class="cls-2" d="M315.09,187.28l-2-1.13-.27-.12-.3-.07-.31,0-.33,0-.34.08-.35.13-.37.19-4.38,2.53-.36.23-.36.28a8.54,8.54,0,0,0-1.55,1.89l-.25.46-.24.47-.2.49-.18.49-.15.51-.12.51-.09.5-.06.51,0,.49v11.81l0,.48.06.44.09.4.12.37.15.33.18.29.2.25.24.2.25.17,2,1.13-.25-.16,8.9-24.27Z"/><path class="cls-3" d="M312.81,187.5,308.44,190c-2,1.14-3.58,4.21-3.58,6.84v11.8c0,2.63,1.61,3.85,3.58,2.71l4.37-2.53c2-1.14,3.58-4.21,3.58-6.83V190.21C316.39,187.58,314.78,186.37,312.81,187.5Z"/><polygon class="cls-10" points="341.02 71.24 341.15 85.42 258.61 133.39 258.48 119.2 341.02 71.24"/><g class="cls-1"><polygon class="cls-4" points="392.64 217.71 390.06 216.21 390.74 213.5 393.33 215 392.64 217.71"/><polygon class="cls-4" points="393.83 212.99 391.25 211.49 392.04 208.38 394.62 209.88 393.83 212.99"/><polygon class="cls-4" points="395.13 207.88 392.54 206.38 393.23 203.66 395.81 205.16 395.13 207.88"/><polygon class="cls-14" points="367.5 232.23 364.91 230.73 390.06 216.21 392.64 217.71 367.5 232.23"/><polygon class="cls-14" points="366.28 228.9 363.7 227.4 391.25 211.49 393.83 212.99 366.28 228.9"/><polygon class="cls-14" points="364.96 225.29 362.38 223.79 392.54 206.38 395.13 207.88 364.96 225.29"/><path class="cls-15" d="M362.17,222.88l35.72-20.63-4.18,16.56-27.27,15.74ZM393.83,213l.79-3.11-29.14,16.83.8,2.19L393.83,213M365,225.3l30.17-17.42.68-2.72-31.55,18.22.7,1.92m27.68-7.59.69-2.71L366.8,230.32l.7,1.91,25.14-14.52"/><polygon class="cls-4" points="366.44 234.55 363.86 233.05 359.59 221.37 362.17 222.88 366.44 234.55"/><polygon class="cls-14" points="362.17 222.88 359.59 221.37 395.31 200.75 397.89 202.25 362.17 222.88"/></g><path class="cls-4" d="M397.18,224.76h0a1.91,1.91,0,0,1,.42,0h0a1.34,1.34,0,0,1,.38.14h0l-2.89-1.67h0l-.13-.07-.14,0-.1,0h0l-.16,0h-.37l-.23,0-.11,0-.09,0-.11,0a3.26,3.26,0,0,0-.38.18l2.89,1.68a3,3,0,0,1,.48-.23l.1,0A1.74,1.74,0,0,1,397.18,224.76Z"/><polygon class="cls-14" points="376.29 236.58 373.41 234.91 393.28 223.43 396.17 225.11 376.29 236.58"/><path class="cls-15" d="M396.17,225.11c1.46-.85,2.64-.17,2.64,1.51l0,7.47a5.83,5.83,0,0,1-2.63,4.56l-19.88,11.47c-1.46.85-2.64.17-2.65-1.51l0-7.47a5.81,5.81,0,0,1,2.63-4.56Z"/><path class="cls-4" d="M373.68,248.61l0-7.47a4.3,4.3,0,0,1,0-.61s0-.06,0-.09a4,4,0,0,1,.13-.58l0-.05a5.33,5.33,0,0,1,.23-.63h0c.09-.21.2-.42.31-.62v0c.11-.19.24-.38.37-.56l0,0a5.81,5.81,0,0,1,.38-.46l.09-.1.33-.31.15-.13a5.05,5.05,0,0,1,.5-.35l-2.88-1.67a4,4,0,0,0-.5.34l-.15.14-.24.2-.1.11-.08.09-.11.11-.21.26-.07.09,0,.05a.61.61,0,0,0-.07.1c-.06.07-.11.15-.16.22l-.13.23v0h0l-.11.19a2.26,2.26,0,0,1-.11.22l-.09.21h0a2.29,2.29,0,0,0-.1.23L371,238a.5.5,0,0,1,0,.13v.05l0,.09c0,.1-.05.2-.07.3a1.62,1.62,0,0,0,0,.19s0,.06,0,.1,0,0,0,.08a4.67,4.67,0,0,0,0,.52l0,7.48a1.84,1.84,0,0,0,.77,1.69l2.88,1.68A1.88,1.88,0,0,1,373.68,248.61Z"/><polygon class="cls-16" points="283.32 113.47 290.76 117.76 304.17 139.55 283.32 127.38 283.32 113.47"/><polygon class="cls-17" points="340.58 88.79 353.99 110.58 304.17 139.55 290.76 117.76 340.58 88.79"/><polygon class="cls-18" points="333.14 84.5 340.58 88.79 290.76 117.76 283.32 113.47 333.14 84.5"/><path class="cls-15" d="M392.7,147.65l-11.24-25.24a7.25,7.25,0,0,0-10.27-3.32L309.42,155a7.25,7.25,0,0,0-3,9.22l11.23,25.25a7.25,7.25,0,0,0,10.27,3.32l61.77-35.9A7.25,7.25,0,0,0,392.7,147.65Z"/><path class="cls-14" d="M335.85,188.17l13.47-56.37-11.67,6.78-13.18,55.16a7.11,7.11,0,0,0,3.47-1Z"/><path class="cls-14" d="M378.05,118.87a7.21,7.21,0,0,0-6.86.22l-10.55,6.13-13.46,56.37,18.45-10.72Z"/><path class="cls-10" d="M80.08,97c-.39-.28-1.25.32-2.57,1.79a1.33,1.33,0,0,0-1,.23c-1.39.35-1.92-.27-3-.61-.06.16-.81,1-.85,1.36-.09,1,0,2.57.6,2.87,1.29.57,4,2.17,5.38,2.37,1.75.24,3.32.82,5.12.94,1,.08,3.72-2.39,4-3.76.1-.42-1-1-1.26-1.3-1.82-1.69-3.76-1.81-5.74-3.3C80.56,97.38,80.33,97.15,80.08,97Z"/><path class="cls-10" d="M65.24,86.36c-.39-.28-1.25.33-2.57,1.8a1.28,1.28,0,0,0-1,.22c-1.38.35-1.91-.27-3-.61-.07.16-.82,1-.85,1.37-.09.94-.06,2.57.6,2.86,1.28.57,4.11.47,5.5.67,1.75.25,3.32.82,5.12,1,1,.07,3.24.08,3.57-1.3a4.2,4.2,0,0,0-.9-2.07C69.89,88.56,68,88.44,66,87,65.72,86.77,65.49,86.54,65.24,86.36Z"/><path class="cls-19" d="M84.66,37.18l.81,3.52s7.5,5.79,10.21,7.77c0,0,5,1,4.88,3.8s-4.42,3.25-7.41-.72c0,0-8.85-3.7-10.75-5.74a50.27,50.27,0,0,1-4.61-6.72Z"/><path class="cls-17" d="M77.7,40.7a12.38,12.38,0,0,0,4.7-.77,9.06,9.06,0,0,0,3.25-1.76S82.49,25,76.8,27,77.7,40.7,77.7,40.7Z"/><path class="cls-16" d="M77.58,61.67S72.52,76.74,71,79s-5.74,9.48-5.74,9.48-5.1,2.2-6.43-.45c0,0,1.24-8.72,4.31-12.47,0,0,2.56-15.48,4.37-16.57S77.58,61.67,77.58,61.67Z"/><path class="cls-17" d="M63.09,61a14,14,0,0,0,1.24,7.11c1.68,3.37,5.78,12.17,5.78,12.17l3.62,19.28a10.85,10.85,0,0,0,7.23-1s-1.45-15.19-2-18.2-4.43-18.07-4.43-18.07Z"/><path class="cls-10" d="M78.18,26.37s-9-2.89-16.08,3.79V62.28s9.46,3.49,17.17,0L81,30.83S80.35,27.69,78.18,26.37Z"/><path class="cls-20" d="M69.81,24.5l-2.72,2.71s1.77,5.79,6.07,4.21,1-5.42,1-5.42V23.16Z"/><path class="cls-19" d="M65.25,20.45a.72.72,0,0,1,.51-.31.47.47,0,0,1,.16,0,1.6,1.6,0,0,1,.74.72,2.3,2.3,0,0,1,.4,1.26,2.29,2.29,0,0,1,.68-.15c.31,0,.47-.16.47-.34a5.89,5.89,0,0,0-.37-1.75,8,8,0,0,1-.35-1.29,3.91,3.91,0,0,0,2.27.83l.25,0a6.48,6.48,0,0,0,3.28-1,1.64,1.64,0,0,0,.46-.42c.18-.34.33-.6.43-.76a1.17,1.17,0,0,1,1-.58.46.46,0,0,1,.35.19s0-.83.2-.64c.56-.64,1,0,1.23.11a1,1,0,0,1,.46.45,2.71,2.71,0,0,1,.14.29c0,.32,0,.61,0,.87,0,0,0,0,0,.08a25,25,0,0,1-.12,2.51A14.62,14.62,0,0,1,76,26.12,7.19,7.19,0,0,1,75,27.65a4.12,4.12,0,0,1-1.1.85,2.54,2.54,0,0,1-1.19.28h0a4.78,4.78,0,0,1-2-.42,3.09,3.09,0,0,1-.44-.23,7.75,7.75,0,0,1-2.79-3.4,12,12,0,0,1-.53-1.21.58.58,0,0,1-.43.26h-.08c-.3,0-.62-.34-1-1a4.26,4.26,0,0,1-.47-1.46v-.11A1.06,1.06,0,0,1,65.25,20.45Z"/><path class="cls-4" d="M64.23,17.09c0,1.1-.2.71-.08,1.22.27,1,.52,2,.74,3l0,.08v-.23a1.06,1.06,0,0,1,.31-.73.72.72,0,0,1,.51-.31.47.47,0,0,1,.16,0,1.6,1.6,0,0,1,.74.72,2.3,2.3,0,0,1,.4,1.26,2.29,2.29,0,0,1,.68-.15c.31,0,.47-.16.47-.34a5.89,5.89,0,0,0-.37-1.75,8,8,0,0,1-.35-1.29c.05.28,1,.56,1.19.63a4.89,4.89,0,0,0,1.61.21c1.42-.07,2.6-.9,3.85-1.48a6.46,6.46,0,0,0,1.49-.85c.34-.28.81-1,1.33-.79a1,1,0,0,1,.46.45,2.71,2.71,0,0,1,.14.29c0,.32,0,.61,0,.87,0,0,0,0,0,.08a25,25,0,0,1-.12,2.51s.56-.44.62-.51C78.43,19.69,64.25,16,64.23,17.09Z"/><path class="cls-2" d="M87.36,104.92a6.14,6.14,0,0,0-2.11-2.23,2.12,2.12,0,0,0-2.11-.21c-1.46.85-1.52.89-3,1.73a2.09,2.09,0,0,0-.87,1.93,6.11,6.11,0,0,0,.87,2.94,6.19,6.19,0,0,0,2.11,2.22,2.09,2.09,0,0,0,2.11.21l3-1.73a2.09,2.09,0,0,0,.87-1.93A6,6,0,0,0,87.36,104.92Z"/><path class="cls-3" d="M82.26,104.42c-1.65-1-3-.18-3,1.72a6.57,6.57,0,0,0,3,5.16c1.65,1,3,.18,3-1.72A6.57,6.57,0,0,0,82.26,104.42Z"/><polygon class="cls-3" points="82.78 91.19 82.78 107.79 87.5 110.51 87.5 93.92 82.78 91.19"/><polygon class="cls-2" points="91.52 86.15 82.78 91.19 87.5 93.92 96.24 88.87 91.52 86.15"/><polygon class="cls-3" points="132.65 116.99 132.57 116.72 132.44 116.47 132.27 116.22 132.06 115.99 131.8 115.77 131.49 115.57 106.07 100.99 98.75 105.22 98.75 108.35 124.17 122.93 124.34 123.02 124.51 123.1 124.69 123.18 124.88 123.25 125.07 123.31 125.27 123.36 125.47 123.41 125.68 123.45 125.89 123.49 126.11 123.52 126.33 123.54 126.55 123.55 126.78 123.56 127 123.57 127.23 123.56 127.46 123.55 127.69 123.54 127.92 123.52 128.16 123.49 128.39 123.46 128.62 123.42 128.85 123.37 129.08 123.32 129.3 123.27 129.53 123.21 129.75 123.14 129.97 123.07 130.18 123 130.4 122.92 130.6 122.83 130.8 122.74 131 122.64 131 122.64 131.37 122.44 131.69 122.22 131.97 121.98 132.2 121.73 132.39 121.47 132.53 121.2 132.63 120.93 132.68 120.66 132.69 120.39 132.69 117.26 132.65 116.99"/><path class="cls-2" d="M131.49,115.57,106.07,101l-7.32,4.23,25.42,14.58c1.74,1,4.75.75,6.83-.29h0C133.08,118.47,133.24,116.58,131.49,115.57Z"/><polygon class="cls-3" points="113.33 128.14 113.25 127.88 113.13 127.62 112.95 127.37 112.74 127.14 112.48 126.92 112.17 126.72 86.75 112.15 79.43 116.38 79.43 119.5 104.85 134.08 105.02 134.17 105.19 134.26 105.37 134.33 105.56 134.4 105.75 134.46 105.95 134.52 106.15 134.57 106.36 134.61 106.58 134.64 106.79 134.67 107.01 134.69 107.23 134.71 107.46 134.72 107.68 134.72 107.91 134.72 108.14 134.71 108.37 134.69 108.6 134.67 108.84 134.64 109.07 134.61 109.3 134.57 109.53 134.53 109.76 134.48 109.98 134.42 110.21 134.36 110.43 134.3 110.65 134.23 110.86 134.15 111.08 134.07 111.28 133.98 111.48 133.89 111.68 133.8 111.68 133.8 112.05 133.59 112.37 133.37 112.65 133.13 112.88 132.88 113.07 132.63 113.21 132.36 113.31 132.09 113.36 131.81 113.37 131.54 113.37 128.41 113.33 128.14"/><path class="cls-2" d="M112.17,126.72,86.75,112.15l-7.32,4.23L104.85,131c1.75,1,4.75.76,6.83-.28h0C113.76,129.63,113.92,127.73,112.17,126.72Z"/><polygon class="cls-3" points="97.32 43.07 97.32 44.45 92.71 56.9 91.92 60.52 95.35 59.18 100.27 45.73 100.27 44.35 97.32 43.07"/><polygon class="cls-3" points="87.18 62.17 87.18 93.92 89.38 95.19 89.38 63.45 87.18 62.17"/><path class="cls-21" d="M92.75,59.83a4.66,4.66,0,0,0-4.21,0,1.28,1.28,0,0,0,0,2.43,4.6,4.6,0,0,0,4.21,0A1.28,1.28,0,0,0,92.75,59.83Z"/><polygon class="cls-3" points="84.25 56.84 81.31 55.56 86.39 63.39 88.59 64.67 84.25 56.84"/><polygon class="cls-2" points="92.71 56.9 87.18 60.09 89.38 61.37 94.91 58.17 92.71 56.9"/><polygon class="cls-3" points="89.18 50.32 89.18 58.92 91.4 60.2 92.14 48.3 89.18 50.32"/><polygon class="cls-22" points="100.84 40.75 98.65 39.48 82.3 48.92 82.08 49.06 81.88 49.23 81.71 49.42 81.57 49.63 81.46 49.86 81.38 50.1 81.33 50.35 81.31 50.62 81.31 55.57 83.51 56.84 83.51 51.89 83.53 51.62 83.58 51.37 83.66 51.13 83.77 50.9 83.91 50.69 84.08 50.5 84.27 50.33 84.5 50.19 100.84 40.75"/><polygon class="cls-2" points="99.31 39.67 99.19 39.61 99.06 39.57 98.94 39.54 98.81 39.53 98.69 39.54 98.56 39.57 98.44 39.61 98.32 39.67 90.56 44.15 82.3 48.92 82.08 49.07 81.89 49.24 81.72 49.43 81.58 49.64 81.47 49.86 81.39 50.1 81.34 50.36 81.32 50.62 81.32 55.57 84.22 57.46 84.22 52.51 84.23 52.25 84.28 51.99 84.36 51.75 84.47 51.53 84.61 51.32 84.78 51.13 84.98 50.96 85.2 50.81 92.75 45.42 100.51 40.94 100.63 40.88 100.76 40.84 100.88 40.81 101.01 40.8 101.13 40.81 101.26 40.84 101.38 40.88 101.5 40.94 99.31 39.67"/><path class="cls-5" d="M101.5,40.94a1,1,0,0,0-1,0l-7.76,4.48L84.5,50.18a1.94,1.94,0,0,0-1,1.71v5l5.08,7.83.79-.46v28.9l5.53-3.19V61l2-1.16L99.45,53,102,46.17V41.79A1,1,0,0,0,101.5,40.94ZM86,56.11V52.17L91.4,49V60.2l-2,1.17ZM99.53,45.73,94.91,58.17l-2,1.17V48.18l6.63-3.83Z"/><polygon class="cls-23" points="104.85 90.08 92.86 97 85.53 116.75 85.53 119.87 112.17 104.49 112.17 101.36 104.85 90.08"/><polygon class="cls-23" points="79.43 113.22 79.43 116.35 85.53 119.87 85.53 116.75 79.43 113.22"/><polygon class="cls-24" points="86.75 93.48 79.43 113.22 85.53 116.75 92.85 97 86.75 93.48"/><polygon class="cls-13" points="98.75 86.55 86.75 93.48 92.85 97 104.85 90.08 98.75 86.55"/><path class="cls-19" d="M70,40.38l.81,3.52s7.5,5.78,10.22,7.77c0,0,5,1,4.88,3.8s-4.43,3.25-7.41-.73c0,0-8.86-3.69-10.76-5.73a50.27,50.27,0,0,1-4.61-6.72Z"/><path class="cls-17" d="M63,43.9a12.38,12.38,0,0,0,4.7-.77A9.06,9.06,0,0,0,71,41.37s-3.16-13.2-8.85-11.21S63,43.9,63,43.9Z"/><polygon class="cls-25" points="103.58 129.77 86.8 120.02 86.75 93.29 103.53 103.04 103.58 129.77"/><polygon class="cls-20" points="129.45 88.14 129.5 114.86 103.58 129.77 103.53 103.04 129.45 88.14"/><polygon class="cls-19" points="129.45 88.14 121.06 83.26 95.14 98.17 103.53 103.04 129.45 88.14"/><polygon class="cls-19" points="112.67 78.39 86.75 93.29 95.14 98.17 121.06 83.26 112.67 78.39"/><polygon class="cls-26" points="122.24 83.95 119.95 82.62 94.04 97.53 96.3 98.84 122.24 83.95"/><polygon class="cls-27" points="94.04 97.53 94.04 102.67 94.28 102.49 94.41 103.06 94.85 102.74 94.96 103.22 95.32 102.93 95.4 103.39 95.66 103.12 95.72 103.56 95.97 102.94 96.3 103.56 96.3 98.84 94.04 97.53"/><g class="cls-28"><path class="cls-29" d="M91.29,117.48v3.41l3,1.72v-3.42Zm.25,3.26v-2.82L94,119.34v2.83Z"/><path class="cls-29" d="M91.87,118.6l1.35.78-.08.28-.06-.14,0-.14,0,.09-.16.54.19-.37.06.21.05.19.06-.13.22-.41.25.15c0,.55-.37.78-.83.55v.63l.33.19a.19.19,0,0,1,.07.12,0,0,0,0,1-.07,0l-.79-.45a.15.15,0,0,1-.07-.12s0-.07.07,0l.32.19v-.63A2,2,0,0,1,91.87,118.6Z"/><polygon class="cls-29" points="96.69 122.82 96.39 122.64 96.39 121.77 96.19 121.66 96.54 121.3 96.89 122.06 96.69 121.94 96.69 122.82"/><polygon class="cls-29" points="96.89 123.11 96.88 123.33 95.37 122.46 95.37 122.23 96.89 123.11"/><polygon class="cls-29" points="95.87 122.35 95.57 122.17 95.57 121.3 95.38 121.18 95.72 120.83 96.07 121.58 95.88 121.47 95.87 122.35"/><path class="cls-29" d="M94.65,119.41v3.42l3,1.71v-3.41Zm.25,3.27v-2.83l2.47,1.42v2.83Z"/><path class="cls-29" d="M89.39,117.31v-.13s0,0,0,0,0,0,0,0v.13a1.88,1.88,0,0,1,.78.82A.9.9,0,0,0,90,118a.27.27,0,0,0-.21-.05.61.61,0,0,0-.2-.19.33.33,0,0,0-.19,0v.47s0,.44,0,.49v.17a.27.27,0,0,0,.12.2c.06,0,.11,0,.11-.06v0s0,0,0,0a.08.08,0,0,1,0,0,.15.15,0,0,1,0,.07c0,.06-.08.08-.15,0a.37.37,0,0,1-.16-.35v-1.08a.68.68,0,0,0-.18-.15.23.23,0,0,0-.2,0,.56.56,0,0,0-.21-.19.38.38,0,0,0-.18-.06C88.72,117.09,89,117.11,89.39,117.31Z"/><path class="cls-29" d="M87.93,119l3,1.72v-3.42l-3-1.71Zm.25-.14V116l2.46,1.42v2.83Z"/></g><polygon class="cls-25" points="101.78 101.41 85 91.66 84.95 64.94 101.73 74.69 101.78 101.41"/><polygon class="cls-20" points="127.64 59.78 127.69 86.51 101.78 101.41 101.73 74.69 127.64 59.78"/><polygon class="cls-19" points="127.64 59.78 119.26 54.91 93.34 69.81 101.73 74.69 127.64 59.78"/><polygon class="cls-19" points="110.87 50.03 84.95 64.94 93.34 69.81 119.26 54.91 110.87 50.03"/><polygon class="cls-26" points="120.44 55.59 118.15 54.26 92.24 69.17 94.5 70.49 120.44 55.59"/><polygon class="cls-27" points="92.24 69.17 92.24 74.32 92.47 74.14 92.6 74.7 93.04 74.39 93.15 74.87 93.51 74.58 93.59 75.03 93.85 74.77 93.92 75.21 94.17 74.59 94.49 75.21 94.5 70.49 92.24 69.17"/><g class="cls-28"><path class="cls-29" d="M89.49,89.12v3.42l3,1.71V90.84Zm.25,3.27V89.56L92.21,91v2.83Z"/><path class="cls-29" d="M90.07,90.25l1.35.78-.09.28,0-.15,0-.13,0,.09-.16.54.2-.38.06.22,0,.18.06-.12.21-.41.26.15c0,.54-.37.78-.84.55v.63l.32.18a.17.17,0,0,1,.07.13s0,.06-.07,0l-.78-.46a.15.15,0,0,1-.08-.12.05.05,0,0,1,.08,0l.32.19v-.63A2,2,0,0,1,90.07,90.25Z"/><polygon class="cls-29" points="94.89 94.47 94.58 94.29 94.58 93.41 94.39 93.3 94.74 92.95 95.08 93.7 94.89 93.59 94.89 94.47"/><polygon class="cls-29" points="95.08 94.75 95.08 94.97 93.57 94.1 93.57 93.88 95.08 94.75"/><polygon class="cls-29" points="94.07 94 93.76 93.82 93.77 92.94 93.57 92.83 93.92 92.47 94.27 93.23 94.07 93.12 94.07 94"/><path class="cls-29" d="M92.85,91.06v3.41l3,1.72V92.77Zm.24,3.27V91.5l2.46,1.42v2.83Z"/><path class="cls-29" d="M87.59,89v-.13s0,0,0,0,0,0,0,0V89a1.79,1.79,0,0,1,.78.83.54.54,0,0,0-.18-.15.25.25,0,0,0-.2,0,.56.56,0,0,0-.21-.19.25.25,0,0,0-.19,0V90.5a.27.27,0,0,0,.11.2c.07,0,.12,0,.12-.07h0s0,0,0,0,0,0,0,0,0,0,0,.07-.09.07-.16,0a.39.39,0,0,1-.15-.2.76.76,0,0,1,0-.15v-.11c0-.23,0-.63,0-1a.65.65,0,0,0-.18-.15.27.27,0,0,0-.21-.05.61.61,0,0,0-.2-.19.29.29,0,0,0-.18,0C86.91,88.73,87.22,88.75,87.59,89Z"/><path class="cls-29" d="M86.12,90.6l3,1.71V88.9l-3-1.72Zm.26-.15V87.62l2.46,1.43v2.82Z"/></g><polygon class="cls-25" points="194.96 230.95 120.22 187.71 120.07 134.06 194.81 177.31 194.96 230.95"/><polygon class="cls-20" points="208.91 169.28 209.06 222.92 194.96 230.95 194.81 177.31 208.91 169.28"/><g class="cls-28"><path class="cls-29" d="M180.46,213.52l0,6.51,5.67,3.27v-6.51Zm.47,6.24v-5.4l4.7,2.71,0,5.4Z"/><path class="cls-29" d="M181.56,215.67l2.57,1.49-.16.53-.1-.28-.1-.25-.05.17-.3,1,.37-.72.11.41.1.35.12-.23.4-.79.49.29c0,1-.7,1.49-1.59,1.06v1.19l.62.36a.29.29,0,0,1,.13.23c0,.09-.06.12-.13.08l-1.5-.87a.27.27,0,0,1-.14-.23c0-.09.06-.12.14-.08l.61.36v-1.2A3.8,3.8,0,0,1,181.56,215.67Z"/><polygon class="cls-29" points="190.75 223.71 190.17 223.38 190.17 221.71 189.8 221.49 190.47 220.81 191.13 222.26 190.75 222.04 190.75 223.71"/><polygon class="cls-29" points="191.12 224.26 191.12 224.69 188.23 223.02 188.24 222.59 191.12 224.26"/><polygon class="cls-29" points="189.19 222.81 188.61 222.48 188.61 220.81 188.24 220.59 188.91 219.91 189.57 221.36 189.2 221.14 189.19 222.81"/><path class="cls-29" d="M186.86,217.22l0,6.51,5.67,3.27v-6.51Zm.47,6.23v-5.4l4.7,2.72,0,5.39Z"/><path class="cls-29" d="M176.83,213.2V213s0,0,0,0a.09.09,0,0,1,0,.07v.25a3.52,3.52,0,0,1,1.48,1.57,1.09,1.09,0,0,0-.34-.29c-.17-.1-.31-.13-.39-.09a1.14,1.14,0,0,0-.39-.36.63.63,0,0,0-.37-.11v2.16a.48.48,0,0,0,.22.39c.12.07.21,0,.22-.13v0s0,0,0,0a.1.1,0,0,1,.05.08.59.59,0,0,1,0,.14c0,.11-.16.14-.29.06a.69.69,0,0,1-.29-.39.84.84,0,0,1,0-.27v-2.06a1.32,1.32,0,0,0-.33-.28.55.55,0,0,0-.39-.09,1.24,1.24,0,0,0-.39-.36.73.73,0,0,0-.34-.11C175.54,212.78,176.13,212.82,176.83,213.2Z"/><path class="cls-29" d="M174,216.34l5.67,3.27V213.1l-5.66-3.27Zm.49-.28v-5.4l4.7,2.72,0,5.39Z"/></g><polygon class="cls-19" points="134.16 126.03 208.91 169.28 201.84 173.3 127.11 130.05 134.16 126.03"/><polygon class="cls-19" points="120.07 134.06 127.11 130.05 201.84 173.3 194.81 177.31 120.07 134.06"/><polygon class="cls-26" points="124.46 131.56 129.75 128.53 204.57 171.75 199.28 174.76 124.46 131.56"/><polygon class="cls-30" points="204.57 171.75 204.57 183.71 204.02 183.29 203.72 184.6 202.7 183.87 202.44 184.98 201.6 184.3 201.42 185.37 200.82 184.75 200.67 185.78 200.09 184.33 199.33 185.78 199.28 174.76 204.57 171.75"/><g class="cls-28"><polygon class="cls-31" points="151.17 174.88 151.17 174.88 151.17 174.88 151.17 174.88"/><polygon class="cls-31" points="143.65 179.22 143.65 179.22 143.65 179.22 143.65 179.22"/></g><polygon class="cls-25" points="52.82 165.71 32.49 153.9 32.44 121.52 52.76 133.33 52.82 165.71"/><polygon class="cls-20" points="84.16 115.28 84.22 147.65 52.82 165.71 52.76 133.33 84.16 115.28"/><polygon class="cls-19" points="84.16 115.28 74 109.37 42.6 127.43 52.76 133.33 84.16 115.28"/><polygon class="cls-19" points="63.83 103.47 32.44 121.52 42.6 127.43 74 109.37 63.83 103.47"/><polygon class="cls-26" points="75.42 110.2 72.65 108.59 41.27 126.65 44 128.24 75.42 110.2"/><polygon class="cls-27" points="41.27 126.65 41.27 132.89 41.55 132.67 41.71 133.35 42.24 132.97 42.37 133.55 42.81 133.2 42.91 133.75 43.22 133.43 43.3 133.97 43.6 133.21 44 133.97 44 128.24 41.27 126.65"/><g class="cls-28"><path class="cls-29" d="M37.94,150.82V155l3.6,2.08V152.9Zm.3,4v-3.43l3,1.72v3.43Z"/><path class="cls-29" d="M38.64,152.18l1.63.95-.1.34-.07-.18-.06-.16,0,.11-.19.65.23-.45.07.26.07.22.07-.15.26-.5.31.18c0,.67-.45,1-1,.67v.76l.38.23a.19.19,0,0,1,.09.15.06.06,0,0,1-.09.05l-1-.55a.22.22,0,0,1-.08-.15c0-.06,0-.08.08-.05l.39.22V154A2.39,2.39,0,0,1,38.64,152.18Z"/><polygon class="cls-29" points="44.48 157.29 44.1 157.08 44.11 156.02 43.87 155.88 44.29 155.45 44.71 156.37 44.48 156.23 44.48 157.29"/><polygon class="cls-29" points="44.71 157.64 44.71 157.91 42.88 156.85 42.88 156.58 44.71 157.64"/><polygon class="cls-29" points="43.48 156.72 43.11 156.51 43.12 155.45 42.88 155.31 43.3 154.88 43.72 155.8 43.49 155.66 43.48 156.72"/><path class="cls-29" d="M42,153.17v4.13l3.6,2.08v-4.14Zm.3,4V153.7l3,1.72v3.43Z"/><path class="cls-29" d="M35.63,150.62v-.16s0,0,0,0a.09.09,0,0,1,0,.05v.15a2.21,2.21,0,0,1,.94,1,.74.74,0,0,0-.21-.18.3.3,0,0,0-.25-.06.8.8,0,0,0-.25-.23.36.36,0,0,0-.23-.07v.57c0,.06,0,.54,0,.6v.2a.34.34,0,0,0,.14.25c.08,0,.14,0,.14-.08v0s0,0,0,0a.05.05,0,0,1,0,0,.19.19,0,0,1,0,.08.13.13,0,0,1-.19.05.47.47,0,0,1-.18-.25.56.56,0,0,1,0-.18v-1.3a.74.74,0,0,0-.21-.18.34.34,0,0,0-.25-.06.7.7,0,0,0-.25-.23.46.46,0,0,0-.22-.07C34.82,150.35,35.19,150.37,35.63,150.62Z"/><path class="cls-29" d="M33.86,152.61l3.6,2.08v-4.14l-3.6-2.08Zm.31-.18V149l3,1.73v3.42Z"/></g><polygon class="cls-25" points="20.39 184.82 0.06 173.01 0 140.63 20.32 152.44 20.39 184.82"/><polygon class="cls-20" points="51.72 134.39 51.78 166.76 20.39 184.82 20.32 152.44 51.72 134.39"/><polygon class="cls-19" points="51.72 134.39 41.56 128.48 10.16 146.54 20.32 152.44 51.72 134.39"/><polygon class="cls-19" points="31.4 122.58 0 140.63 10.16 146.54 41.56 128.48 31.4 122.58"/><polygon class="cls-26" points="42.99 129.31 40.22 127.7 8.83 145.76 11.57 147.35 42.99 129.31"/><polygon class="cls-27" points="8.83 145.76 8.83 152 9.12 151.78 9.27 152.47 9.8 152.08 9.94 152.66 10.38 152.31 10.47 152.87 10.78 152.54 10.86 153.08 11.17 152.32 11.56 153.08 11.57 147.35 8.83 145.76"/><g class="cls-28"><path class="cls-29" d="M5.5,169.93v4.14l3.6,2.07V172Zm.3,4v-3.43l3,1.72v3.43Z"/><path class="cls-29" d="M6.2,171.3l1.63.94-.09.34-.07-.18-.06-.16,0,.11-.2.65.24-.45.07.26.06.22.08-.15.25-.5.32.18c0,.67-.45.95-1,.68V174l.39.22a.18.18,0,0,1,.08.15s0,.08-.08,0l-.95-.55a.19.19,0,0,1-.09-.15.06.06,0,0,1,.09-.05l.39.23v-.76A2.43,2.43,0,0,1,6.2,171.3Z"/><polygon class="cls-29" points="12.04 176.4 11.67 176.19 11.67 175.13 11.44 174.99 11.86 174.56 12.28 175.48 12.04 175.34 12.04 176.4"/><polygon class="cls-29" points="12.28 176.75 12.27 177.02 10.44 175.96 10.44 175.69 12.28 176.75"/><polygon class="cls-29" points="11.05 175.83 10.68 175.62 10.68 174.56 10.45 174.42 10.87 173.99 11.29 174.91 11.05 174.77 11.05 175.83"/><path class="cls-29" d="M9.57,172.28v4.13l3.59,2.08,0-4.13Zm.29,4v-3.43l3,1.72V178Z"/><path class="cls-29" d="M3.2,169.73v-.16s0,0,0,0a.05.05,0,0,1,0,.05v.15a2.29,2.29,0,0,1,1,1,.79.79,0,0,0-.22-.18.34.34,0,0,0-.25-.06.7.7,0,0,0-.25-.23.4.4,0,0,0-.23-.07v1.38a.3.3,0,0,0,.14.24c.08,0,.13,0,.14-.08v0s0,0,0,0a.09.09,0,0,1,0,.05s0,.06,0,.08-.1.09-.18,0a.54.54,0,0,1-.19-.25,1.15,1.15,0,0,1,0-.18v-1.3A.63.63,0,0,0,3,170a.33.33,0,0,0-.25-.06.7.7,0,0,0-.25-.23.32.32,0,0,0-.21-.06C2.38,169.46,2.75,169.48,3.2,169.73Z"/><path class="cls-29" d="M1.43,171.72,5,173.8l0-4.14-3.6-2.08Zm.3-.18v-3.42l3,1.72v3.42Z"/></g><polygon class="cls-25" points="39.21 140.49 18.88 128.68 18.82 96.3 39.15 108.12 39.21 140.49"/><polygon class="cls-20" points="70.55 90.06 70.6 122.44 39.21 140.49 39.15 108.12 70.55 90.06"/><polygon class="cls-19" points="70.55 90.06 60.38 84.15 28.99 102.21 39.15 108.12 70.55 90.06"/><polygon class="cls-19" points="50.22 78.25 18.82 96.3 28.99 102.21 60.38 84.15 50.22 78.25"/><polygon class="cls-26" points="61.81 84.99 59.04 83.37 27.65 101.44 30.39 103.03 61.81 84.99"/><polygon class="cls-27" points="27.65 101.44 27.65 107.67 27.94 107.45 28.09 108.14 28.63 107.76 28.76 108.33 29.2 107.98 29.29 108.54 29.61 108.22 29.68 108.75 29.99 108 30.38 108.75 30.39 103.03 27.65 101.44"/><g class="cls-28"><path class="cls-29" d="M24.32,125.6v4.14l3.6,2.08v-4.14Zm.3,4v-3.43l3,1.73v3.42Z"/><path class="cls-29" d="M25,127l1.64.94-.1.34-.07-.18-.06-.16,0,.11-.19.66.23-.46.07.26.06.22.08-.15.26-.5.31.19c0,.66-.45.94-1,.67v.76l.39.22a.2.2,0,0,1,.09.15c0,.06,0,.08-.09.05l-.95-.55a.17.17,0,0,1-.09-.15s0-.07.09,0l.39.23v-.76A2.46,2.46,0,0,1,25,127Z"/><polygon class="cls-29" points="30.86 132.08 30.49 131.86 30.49 130.8 30.26 130.66 30.68 130.23 31.1 131.15 30.86 131.01 30.86 132.08"/><polygon class="cls-29" points="31.1 132.42 31.1 132.69 29.27 131.63 29.27 131.37 31.1 132.42"/><polygon class="cls-29" points="29.87 131.5 29.5 131.29 29.5 130.23 29.27 130.09 29.69 129.66 30.11 130.58 29.88 130.44 29.87 131.5"/><path class="cls-29" d="M28.39,128v4.14l3.6,2.07V130Zm.3,4v-3.43l3,1.72v3.43Z"/><path class="cls-29" d="M22,125.4v-.15s0,0,0,0a.09.09,0,0,1,0,0v.15a2.26,2.26,0,0,1,.94,1,.82.82,0,0,0-.22-.18.33.33,0,0,0-.25-.06.7.7,0,0,0-.25-.23.38.38,0,0,0-.23-.06v1.37a.3.3,0,0,0,.14.24c.08,0,.14,0,.14-.08h0s0,0,0,0a.05.05,0,0,1,0,0s0,.06,0,.09a.12.12,0,0,1-.19,0,.43.43,0,0,1-.18-.25.52.52,0,0,1,0-.17V127c0-.28,0-.77,0-1.17a1.24,1.24,0,0,0-.21-.18.34.34,0,0,0-.25-.06.78.78,0,0,0-.25-.22.39.39,0,0,0-.22-.07C21.2,125.13,21.57,125.15,22,125.4Z"/><path class="cls-29" d="M20.25,127.39l3.6,2.08v-4.14l-3.6-2.07Zm.31-.17v-3.43l3,1.72v3.43Z"/></g><polygon class="cls-20" points="91.88 201.29 112.2 189.48 112.26 157.11 91.94 168.92 91.88 201.29"/><polygon class="cls-25" points="60.54 150.86 60.48 183.24 91.88 201.29 91.94 168.92 60.54 150.86"/><polygon class="cls-19" points="60.54 150.86 70.7 144.96 102.1 163.01 91.94 168.92 60.54 150.86"/><polygon class="cls-19" points="80.87 139.05 112.26 157.11 102.1 163.01 70.7 144.96 80.87 139.05"/><polygon class="cls-26" points="69.27 145.79 72.05 144.18 103.43 162.24 100.69 163.83 69.27 145.79"/><polygon class="cls-27" points="103.43 162.24 103.43 168.47 103.15 168.25 102.99 168.94 102.46 168.56 102.33 169.13 101.89 168.78 101.79 169.34 101.48 169.02 101.4 169.55 101.1 168.8 100.7 169.55 100.69 163.83 103.43 162.24"/><g class="cls-28"><path class="cls-29" d="M103.16,188.48v4.14l3.6-2.08V186.4Zm.32,3.61v-3.43l3-1.72v3.42Z"/><path class="cls-29" d="M106.06,187.77l-1.63.94.1.34.06-.17.07-.17,0,.12.19.65-.23-.46-.08.26-.06.23-.07-.15-.26-.5-.31.18c0,.66.45,1,1,.67v.76l-.39.22a.22.22,0,0,0-.08.15c0,.06,0,.08.09,0l1-.55a.19.19,0,0,0,.08-.15,0,0,0,0,0-.08,0l-.39.22v-.76A2.43,2.43,0,0,0,106.06,187.77Z"/><polygon class="cls-29" points="100.22 192.88 100.59 192.66 100.59 191.6 100.83 191.47 100.41 191.04 99.98 191.95 100.22 191.82 100.22 192.88"/><polygon class="cls-29" points="99.99 193.22 99.99 193.5 101.82 192.44 101.82 192.17 99.99 193.22"/><polygon class="cls-29" points="101.21 192.31 101.58 192.09 101.58 191.03 101.82 190.9 101.39 190.47 100.97 191.38 101.21 191.25 101.21 192.31"/><path class="cls-29" d="M99.1,190.83V195l3.6-2.08v-4.14Zm.32,3.6V191l3-1.73v3.43Z"/><path class="cls-29" d="M109.07,186.2v-.15s0,0,0,0a.05.05,0,0,0,0,.05v.16a2.19,2.19,0,0,0-.94,1,.94.94,0,0,1,.21-.18.34.34,0,0,1,.25-.06.8.8,0,0,1,.25-.23.41.41,0,0,1,.23-.06v.56c0,.06,0,.55,0,.6a.22.22,0,0,0,0,.08v.13a.33.33,0,0,1-.14.24c-.08.05-.14,0-.14-.07v0s0,0,0,0a.05.05,0,0,0,0,.05.28.28,0,0,0,0,.09.12.12,0,0,0,.19,0,.43.43,0,0,0,.18-.25.49.49,0,0,0,0-.17v-1.31a.71.71,0,0,1,.21-.17c.11-.07.2-.09.25-.06a.7.7,0,0,1,.25-.23.46.46,0,0,1,.22-.07C109.88,185.93,109.51,186,109.07,186.2Z"/><path class="cls-29" d="M110.83,184.06l-3.6,2.08v4.13l3.6-2.08Zm-3.28,5.68v-3.43l3-1.72V188Z"/></g><polygon class="cls-25" points="48.39 226.28 33.2 217.46 33.16 193.27 48.34 202.1 48.39 226.28"/><polygon class="cls-20" points="81 183.23 81.05 207.41 48.39 226.28 48.34 202.1 81 183.23"/><polygon class="cls-19" points="81 183.23 73.41 178.81 40.75 197.68 48.34 202.1 81 183.23"/><polygon class="cls-19" points="65.82 174.4 33.16 193.27 40.75 197.68 73.41 178.81 65.82 174.4"/><polygon class="cls-26" points="74.48 179.44 72.41 178.23 39.76 197.1 41.8 198.29 74.48 179.44"/><polygon class="cls-27" points="39.76 197.1 39.76 201.76 39.97 201.6 40.09 202.11 40.49 201.83 40.59 202.26 40.91 202 40.98 202.41 41.22 202.17 41.28 202.57 41.5 202.01 41.8 202.57 41.8 198.29 39.76 197.1"/><g class="cls-28"><path class="cls-29" d="M37.27,215.16v3.09L40,219.8v-3.09Zm.22,3v-2.56l2.23,1.28v2.56Z"/><path class="cls-29" d="M37.79,216.18l1.22.7-.07.26,0-.14,0-.12,0,.09-.14.49.17-.35.06.2,0,.17.06-.12.19-.37.23.14c0,.49-.33.7-.75.5v.57l.29.16a.14.14,0,0,1,.07.12s0,.05-.07,0l-.71-.41a.15.15,0,0,1-.06-.11s0-.06.06,0l.3.17v-.57A1.8,1.8,0,0,1,37.79,216.18Z"/><polygon class="cls-29" points="42.16 220 41.88 219.84 41.88 219.04 41.7 218.94 42.02 218.62 42.33 219.3 42.16 219.2 42.16 220"/><polygon class="cls-29" points="42.33 220.25 42.33 220.46 40.96 219.66 40.96 219.46 42.33 220.25"/><polygon class="cls-29" points="41.42 219.57 41.14 219.41 41.14 218.62 40.97 218.51 41.28 218.19 41.59 218.88 41.42 218.78 41.42 219.57"/><path class="cls-29" d="M40.31,216.91V220L43,221.55v-3.09Zm.22,3v-2.56l2.23,1.29v2.56Z"/><path class="cls-29" d="M35.55,215v-.12h0a.05.05,0,0,1,0,0V215a1.72,1.72,0,0,1,.71.75.61.61,0,0,0-.17-.14.22.22,0,0,0-.18,0,.53.53,0,0,0-.19-.17.26.26,0,0,0-.17-.05v1a.24.24,0,0,0,.1.19c.06,0,.1,0,.11-.06v0s0,0,0,0l0,0s0,.05,0,.06-.08.07-.14,0a.33.33,0,0,1-.13-.19.69.69,0,0,1,0-.13.34.34,0,0,0,0-.1c0-.21,0-.57,0-.88l-.16-.13a.25.25,0,0,0-.19,0A.49.49,0,0,0,35,215a.24.24,0,0,0-.16-.05C34.94,214.81,35.22,214.82,35.55,215Z"/><path class="cls-29" d="M34.23,216.5l2.68,1.55V215l-2.69-1.55Zm.23-.14V213.8l2.23,1.29v2.56Z"/></g><polygon class="cls-25" points="92.74 226.79 77.56 217.96 77.52 193.78 92.7 202.6 92.74 226.79"/><polygon class="cls-20" points="125.36 183.73 125.4 207.92 92.74 226.79 92.7 202.6 125.36 183.73"/><polygon class="cls-19" points="125.36 183.73 117.77 179.32 85.11 198.19 92.7 202.6 125.36 183.73"/><polygon class="cls-19" points="110.17 174.91 77.52 193.78 85.11 198.19 117.77 179.32 110.17 174.91"/><polygon class="cls-26" points="118.83 179.94 116.76 178.74 84.11 197.61 86.16 198.8 118.83 179.94"/><polygon class="cls-27" points="84.11 197.61 84.11 202.27 84.33 202.11 84.44 202.62 84.84 202.33 84.94 202.76 85.27 202.5 85.34 202.92 85.57 202.68 85.63 203.07 85.86 202.51 86.15 203.07 86.16 198.8 84.11 197.61"/><g class="cls-28"><path class="cls-29" d="M81.63,215.66v3.09l2.69,1.56v-3.09Zm.22,3v-2.56l2.22,1.29v2.56Z"/><path class="cls-29" d="M82.15,216.68l1.22.71-.08.25-.05-.13,0-.12,0,.08L83,218l.18-.34.05.19,0,.17,0-.11.19-.37.24.13c0,.5-.34.71-.76.5v.57l.29.17a.15.15,0,0,1,.06.11s0,.06-.06,0l-.71-.41a.14.14,0,0,1-.07-.11s0-.06.07,0l.29.17v-.57A1.82,1.82,0,0,1,82.15,216.68Z"/><polygon class="cls-29" points="86.51 220.5 86.23 220.34 86.23 219.55 86.06 219.45 86.37 219.12 86.69 219.81 86.51 219.71 86.51 220.5"/><polygon class="cls-29" points="86.69 220.76 86.69 220.96 85.32 220.17 85.32 219.97 86.69 220.76"/><polygon class="cls-29" points="85.77 220.07 85.49 219.91 85.5 219.12 85.32 219.02 85.64 218.7 85.95 219.38 85.77 219.28 85.77 220.07"/><path class="cls-29" d="M84.66,217.42v3.09l2.69,1.55V219Zm.22,3v-2.56l2.23,1.28v2.56Z"/><path class="cls-29" d="M79.9,215.51v-.11s0,0,0,0a0,0,0,0,1,0,0v.12a1.68,1.68,0,0,1,.7.74.51.51,0,0,0-.16-.13.27.27,0,0,0-.19-.05.59.59,0,0,0-.18-.17.38.38,0,0,0-.18-.05v1a.23.23,0,0,0,.11.18s.1,0,.1-.06h0s0,0,0,0,0,0,0,0a.15.15,0,0,1,0,.07s-.07.07-.13,0a.36.36,0,0,1-.14-.18.66.66,0,0,1,0-.14v-1a.42.42,0,0,0-.16-.13.24.24,0,0,0-.18-.05.64.64,0,0,0-.19-.17.41.41,0,0,0-.16-.05C79.29,215.31,79.57,215.33,79.9,215.51Z"/><path class="cls-29" d="M78.58,217l2.69,1.55v-3.09l-2.69-1.55Zm.23-.13v-2.56l2.23,1.28v2.57Z"/></g><path class="cls-18" d="M170.44,108.06a5.34,5.34,0,0,1,2.76,5l0,6.87c0,2.18-.92,2.84-2.77,1.77l-2.95-1.7,0-13.6Zm.89,10.86,0-7.07a1.94,1.94,0,0,0-.95-1.88l-1.05-.6,0,9.72,1.05.61c.6.34,1,.2,1-.78"/><polygon class="cls-18" points="179.46 113.26 179.46 115.2 176.25 113.35 176.24 117.14 178.79 118.61 178.78 120.56 176.23 119.09 176.22 123.07 179.43 124.93 179.43 126.86 174.36 123.94 174.4 110.34 179.46 113.26"/><polygon class="cls-18" points="182.48 115.01 182.45 126.67 185.51 128.43 185.5 130.37 180.58 127.53 180.62 113.93 182.48 115.01"/><polygon class="cls-18" points="188.22 118.32 188.18 131.92 186.31 130.84 186.35 117.24 188.22 118.32"/><polygon class="cls-18" points="195.5 122.52 193.63 135.07 190.87 133.47 189.08 118.82 190.96 119.9 192.35 131.81 193.8 121.54 195.5 122.52"/><polygon class="cls-18" points="201.44 125.95 201.43 127.89 198.22 126.03 198.21 129.82 200.76 131.3 200.75 133.25 198.21 131.78 198.19 135.76 201.4 137.61 201.4 139.55 196.34 136.63 196.38 123.03 201.44 125.95"/><path class="cls-18" d="M208.14,141.79a5.51,5.51,0,0,0,.2,1.77l-1.89-1.09a5.85,5.85,0,0,1-.18-1.78v-2.13a2.42,2.42,0,0,0-1.21-2.44l-.64-.37v5.54l-1.87-1.07,0-13.6,2.8,1.61a5,5,0,0,1,2.76,4.74V134c0,1.4-.4,2.09-1.23,2.05a5,5,0,0,1,1.23,3.61Zm-1.86-8.36v-1.34a2,2,0,0,0-.95-2l-.89-.51v4.19l.72.41c.7.41,1.12.3,1.12-.8"/><polygon class="cls-18" points="215.18 133.88 212.8 141.62 212.79 146.13 210.93 145.05 210.94 140.55 208.62 130.09 210.56 131.22 211.96 138.23 213.4 132.86 215.18 133.88"/><polygon class="cls-18" points="172.41 93.74 172.41 95.69 169.35 93.92 169.34 98.02 171.73 99.41 171.73 101.34 169.33 99.96 169.31 105.57 167.46 104.5 167.5 90.9 172.41 93.74"/><path class="cls-18" d="M177.22,96.51l1.85,14.69-1.88-1.08-.31-2.65-2.28-1.32-.32,2.29-1.72-1,1.94-12.51Zm-2.37,7.93,1.78,1-.86-7.38-.92,6.34"/><path class="cls-18" d="M182.48,99.41a5.44,5.44,0,0,1,2.73,5v.44l-1.76-1v-.57a1.93,1.93,0,0,0-.92-1.88c-.6-.34-.93-.17-.93.81,0,2.8,3.62,5.42,3.61,9.3,0,2.18-1,2.87-2.78,1.83a5.53,5.53,0,0,1-2.77-5v-.84l1.76,1v1a1.93,1.93,0,0,0,1,1.87c.58.33,1,.2,1-.76,0-2.8-3.63-5.42-3.62-9.32C179.74,99.06,180.67,98.36,182.48,99.41Z"/><polygon class="cls-18" points="191.52 104.77 191.51 106.72 189.56 105.59 189.52 117.24 187.67 116.17 187.71 104.52 185.76 103.4 185.77 101.45 191.52 104.77"/><polygon class="cls-18" points="204.39 110.27 215.18 124.39 204.34 126.04 204.36 121.74 193.74 115.61 193.76 108.44 204.38 114.57 204.39 110.27"/><path class="cls-18" d="M220.6,114,161.21,79.68l.13,43.49,59.38,34.36Zm-57.28,8-.11-38.89,55.41,32.05.11,38.9Z"/><path class="cls-11" d="M78.51,18.13a6.25,6.25,0,0,0-2-1.24A14.17,14.17,0,0,0,72,16.28a4.73,4.73,0,0,0-3,.91l-1.16,1.72c1.34,2.55,9,4.13,11,2.59a1.39,1.39,0,0,0,.54-1.95A15.3,15.3,0,0,0,78.51,18.13Z"/><path class="cls-9" d="M77.6,15a7.88,7.88,0,0,0-5.91-4.06,10.83,10.83,0,0,0-4.13.27,4.79,4.79,0,0,0-2.89,3,12.26,12.26,0,0,0-.52,1.55,5.76,5.76,0,0,0,0,2.45c1.2.16,3.68.69,3.68.69s2.69-.3,4-.58a13.82,13.82,0,0,1,5.93-.26c.2,0,.82.06.82.06s0-.41,0-.59A4.42,4.42,0,0,0,77.6,15Z"/></g></g></g></svg>