<svg xmlns="http://www.w3.org/2000/svg" viewBox="0 0 462.38 451.36"><defs><style>.cls-1{fill:#f0f6fc;}.cls-2{fill:#31216d;}.cls-3{fill:#5184af;}.cls-4{fill:#f75477;}.cls-5{fill:#001e32;}.cls-6{fill:#a0b3c1;}.cls-7{fill:#fff;}.cls-8{fill:#8398a5;}.cls-9{fill:#c0cfdd;}.cls-10,.cls-12{fill:#003954;}.cls-11{fill:#007df3;}.cls-12{font-size:97.6px;font-family:Montserrat-SemiBold, Montserrat;font-weight:600;}.cls-13,.cls-16,.cls-17{fill:none;stroke-miterlimit:10;}.cls-13{stroke:#fff;stroke-width:8px;}.cls-14{fill:#ffccc6;}.cls-15{fill:#f6afaa;}.cls-16{stroke:#001e32;}.cls-16,.cls-17{stroke-width:0.5px;}.cls-17{stroke:#003954;}.cls-18{fill:#0465a8;}</style></defs><g id="Layer_2" data-name="Layer 2"><g id="OBJECTS"><circle class="cls-1" cx="275.79" cy="248.71" r="137.28" transform="translate(-95.09 267.86) rotate(-45)"/><circle class="cls-1" cx="172.51" cy="153.52" r="124.69"/><circle class="cls-1" cx="124.58" cy="318.88" r="89.75"/><path class="cls-2" d="M226.33,236.64a3.81,3.81,0,1,1,3.81,3.81A3.81,3.81,0,0,1,226.33,236.64Z"/><path class="cls-3" d="M228.35,239.72a1.79,1.79,0,1,1,1.79,1.79A1.79,1.79,0,0,1,228.35,239.72Z"/><rect class="cls-4" x="227.38" y="234.92" width="5.52" height="3.57" rx="1.43"/><rect class="cls-5" x="13.6" y="441.07" width="433.08" height="10.29" rx="4.78"/><path class="cls-6" d="M76.53,227.58H383.74a3.78,3.78,0,0,1,3.78,3.78V425.42a0,0,0,0,1,0,0H72.76a0,0,0,0,1,0,0V231.36A3.78,3.78,0,0,1,76.53,227.58Z"/><path class="cls-7" d="M365.47,402.31a2.11,2.11,0,0,0,2.11-2.12V317.05l-97.13,85.26Z"/><path class="cls-7" d="M98.28,244.69a2.12,2.12,0,0,0-2.12,2.12v74.13L183,244.69Z"/><path class="cls-7" d="M367.58,246.81a2.11,2.11,0,0,0-2.11-2.12H260.88L96.16,389.28v10.91a2.12,2.12,0,0,0,2.12,2.12H192.6l175-153.6Z"/><polygon class="cls-7" points="192.6 402.31 270.45 402.31 367.58 317.05 367.58 248.71 192.6 402.31"/><polygon class="cls-7" points="183.03 244.69 96.16 320.94 96.16 389.28 260.88 244.69 183.03 244.69"/><rect class="cls-8" x="47.79" y="425.42" width="364.69" height="15.64" rx="6.82"/><path class="cls-6" d="M254.3,435.83H206a2.82,2.82,0,0,1-3-2.58h0a2.83,2.83,0,0,1,3-2.59H254.3a2.82,2.82,0,0,1,3,2.59h0A2.81,2.81,0,0,1,254.3,435.83Z"/><polygon class="cls-6" points="286.67 286.69 246.34 286.48 245.98 357.93 296.89 358.19 297.2 297.33 286.67 286.69"/><polygon class="cls-9" points="286.62 297.27 297.2 297.33 286.67 286.69 286.62 297.27"/><rect class="cls-7" x="269.94" y="282.6" width="3.63" height="26.63" transform="translate(-25.56 566.14) rotate(-89.71)"/><rect class="cls-7" x="271.1" y="284.82" width="1.21" height="38.99" transform="matrix(0.01, -1, 1, 0.01, -33.99, 574.45)"/><rect class="cls-7" x="271.07" y="290.9" width="1.21" height="38.99" transform="matrix(0.01, -1, 1, 0.01, -40.11, 580.47)"/><rect class="cls-7" x="271.04" y="296.98" width="1.21" height="38.99" transform="translate(-46.22 586.49) rotate(-89.7)"/><rect class="cls-7" x="271.01" y="303.06" width="1.21" height="38.99" transform="translate(-52.33 592.51) rotate(-89.71)"/><rect class="cls-7" x="270.98" y="309.14" width="1.21" height="38.99" transform="translate(-58.44 598.53) rotate(-89.71)"/><rect class="cls-7" x="270.95" y="315.22" width="1.21" height="38.99" transform="matrix(0.01, -1, 1, 0.01, -64.56, 604.55)"/><rect class="cls-7" x="260.18" y="331.99" width="1.21" height="17.51" transform="matrix(0.01, -1, 1, 0.01, -81.3, 599.77)"/><path class="cls-7" d="M291.43,347.52a8.43,8.43,0,1,1-8.38-8.47A8.44,8.44,0,0,1,291.43,347.52Z"/><polygon class="cls-1" points="265.26 292.99 224.93 292.78 224.56 364.23 275.48 364.5 275.79 303.63 265.26 292.99"/><polygon class="cls-9" points="265.2 303.57 275.79 303.63 265.26 292.99 265.2 303.57"/><rect class="cls-6" x="248.52" y="288.9" width="3.63" height="26.63" transform="translate(-53.16 551) rotate(-89.71)"/><rect class="cls-6" x="249.69" y="291.12" width="1.21" height="38.99" transform="translate(-61.6 559.31) rotate(-89.71)"/><rect class="cls-6" x="249.66" y="297.2" width="1.21" height="38.99" transform="matrix(0.01, -1, 1, 0.01, -67.71, 565.33)"/><rect class="cls-6" x="249.63" y="303.28" width="1.21" height="38.99" transform="translate(-73.83 571.34) rotate(-89.7)"/><rect class="cls-6" x="249.6" y="309.36" width="1.21" height="38.99" transform="translate(-79.93 577.37) rotate(-89.71)"/><rect class="cls-6" x="249.57" y="315.44" width="1.21" height="38.99" transform="translate(-86.05 583.38) rotate(-89.71)"/><rect class="cls-6" x="249.53" y="321.52" width="1.21" height="38.99" transform="matrix(0.01, -1, 1, 0.01, -92.16, 589.4)"/><rect class="cls-6" x="238.77" y="338.29" width="1.21" height="17.51" transform="translate(-108.9 584.62) rotate(-89.7)"/><circle class="cls-6" cx="261.59" cy="353.77" r="8.42" transform="translate(-0.82 0.61) rotate(-0.13)"/><rect class="cls-10" x="213.5" y="266.72" width="33.62" height="11.32" rx="3.57" transform="translate(-0.29 0.24) rotate(-0.06)"/><path class="cls-11" d="M249.51,216.45a73.72,73.72,0,1,0-38.6.05"/><path class="cls-11" d="M306.69,242.61l-25.95-32.75,1-.81,26.46,32.34Zm-153.13,0-1.5-1.2L178.52,209l1,.82ZM339,204l-36.81-19.78c.2-.37.39-.74.58-1.11l37.15,19.13C339.6,202.86,339.29,203.45,339,204ZM121.27,204c-.3-.57-.6-1.13-.89-1.7l37.13-19.16.62,1.17Zm231.9-48.31-41.65-3.36.09-1.25,41.7,2.63C353.27,154.35,353.22,155,353.17,155.67Zm-246.07,0c0-.66-.1-1.32-.14-2l41.71-2.59c0,.41.05.83.09,1.25Zm200.29-36.38L307,118l39.3-14.2.65,1.85Zm-154.5,0-39.53-13.55c.22-.62.43-1.23.65-1.84L153.32,118C153.18,118.43,153,118.83,152.89,119.24ZM290.36,90.6l-.86-.92,30.32-28.75c.46.48.91,1,1.36,1.46Zm-120.43,0L139.08,62.41c.43-.48.88-1,1.32-1.43l30.42,28.66C170.52,90,170.23,90.27,169.93,90.59Zm93.4-19.5-1.18-.51,16.42-38.43,1.78.78Zm-66.36,0L179.91,32.94l1.81-.79,16.42,38.43Q197.56,70.82,197,71.09Zm33.85-7H229.5l-.33-41.79h1.92Z"/><path class="cls-7" d="M285.45,120.56a2.85,2.85,0,0,1-1.23-1.31,60.24,60.24,0,0,0-54.15-34.12,3,3,0,0,1,0-5.92,66.18,66.18,0,0,1,59.5,37.49,3,3,0,0,1-4.11,3.86Z"/><path class="cls-7" d="M291.57,147.6A3,3,0,0,1,290,145a59.19,59.19,0,0,0-.39-6.82,3,3,0,0,1,5.88-.68A66.49,66.49,0,0,1,296,145a3,3,0,0,1-3,3A3.05,3.05,0,0,1,291.57,147.6Z"/><polyline class="cls-11" points="204.77 179.55 204.83 241.78 255.72 241.73 255.65 179.49"/><rect class="cls-10" x="201.42" y="237.26" width="57.72" height="11.32" rx="3.47" transform="translate(-0.26 0.25) rotate(-0.06)"/><rect class="cls-10" x="201.44" y="259.9" width="57.72" height="11.32" rx="3.47" transform="matrix(1, 0, 0, 1, -0.28, 0.24)"/><rect class="cls-10" x="201.43" y="248.58" width="57.72" height="11.32" rx="3.47" transform="translate(-0.27 0.25) rotate(-0.06)"/><text class="cls-12" transform="translate(199.89 172.36)">c</text><circle class="cls-13" cx="230.13" cy="145.71" r="43.55"/><polygon class="cls-5" points="151.06 251.11 122.21 251.11 122.21 286.17 124.39 286.17 126.69 408.23 161.32 408.23 151.06 251.11"/><polygon class="cls-5" points="93.44 251.11 122.28 251.11 122.28 286.17 120.11 286.17 117.81 408.23 83.18 408.23 93.44 251.11"/><polygon class="cls-10" points="92.45 262.12 92.09 269.49 153.2 270.13 152 262.81 92.45 262.12"/><path class="cls-5" d="M137.17,421.46h35.34l.62,3.53H141a1.94,1.94,0,0,0-1.88-1.48h-.27A1.93,1.93,0,0,0,137,425h-9.06v-3.53Z"/><path class="cls-10" d="M128.26,408.08l28.6-.47c12.87,3.91,15.65,13.85,15.65,13.85H127.94Z"/><line class="cls-5" x1="130.48" y1="400.5" x2="130.48" y2="399.95"/><rect class="cls-10" x="127.46" y="402.36" width="32.74" height="0.56"/><path class="cls-5" d="M107.32,421.46H72L71.36,425h32.11a1.93,1.93,0,0,1,1.88-1.48h.27A1.94,1.94,0,0,1,107.5,425h9.06v-3.53Z"/><path class="cls-10" d="M116.23,408.08l-28.59-.47C74.77,411.52,72,421.46,72,421.46h44.57Z"/><line class="cls-5" x1="114.02" y1="400.5" x2="114.02" y2="399.95"/><rect class="cls-10" x="84.3" y="402.36" width="32.74" height="0.56"/><path class="cls-14" d="M140.51,164.61c-.8,2.23-2.9,3.46-4.69,2.75S133.2,164.27,134,162s2.89-3.45,4.69-2.74,2.61,3.09,1.82,5.31"/><path class="cls-5" d="M139.2,164.92l-.36-.1s.67-2.37-.93-3.63l.23-.3C139.94,162.31,139.23,164.82,139.2,164.92Z"/><path class="cls-14" d="M106,164.61c.79,2.23,2.89,3.46,4.69,2.75s2.61-3.09,1.82-5.32-2.89-3.45-4.69-2.74-2.61,3.09-1.82,5.31"/><path class="cls-5" d="M107.05,164.92c0-.1-.74-2.61,1.06-4l.23.3c-1.6,1.26-.94,3.61-.93,3.63Z"/><path class="cls-11" d="M132.32,185.69h-19c-15.57,0-22.46,13.62-20.57,29.07l-.3,47.36,30.37.85H152l-.36-31.13-1.23-16.13c1.88-15.45-2.52-30-18.09-30"/><polygon class="cls-14" points="130.72 174.35 131.55 186.77 115.06 186.77 115.98 174.35 130.72 174.35"/><path class="cls-14" d="M111.16,185.81s1.41,8.27,12.28,8.27,11.93-8.19,11.93-8.19l-11.93-1.62Z"/><path class="cls-15" d="M115.54,180.22s2.9,5.06,7.72,5.06,7.85-5.08,7.85-5.08v-4H115.54Z"/><path class="cls-14" d="M137.71,158.68a1.11,1.11,0,0,0,0-.19h0a13.94,13.94,0,0,0,.08-1.45,14.5,14.5,0,0,0-29,0c0,.49,0,1,.07,1.45h0l0,.19,1.5,12.48a.17.17,0,0,0,0,.07l0,.3h0a13,13,0,0,0,25.69.21h0l0-.16c0-.16,0-.32.05-.48Z"/><path class="cls-5" d="M123.33,142.36s-14-.23-14.49,14.06a21.29,21.29,0,0,0,.25,4l.51,3.53a22.54,22.54,0,0,0,5-8.35H132.1a22.39,22.39,0,0,0,5,8.35l.51-3.53a22.17,22.17,0,0,0,.24-4c-.52-14.29-14.48-14.06-14.48-14.06"/><path class="cls-5" d="M137.73,159.1c2.33-10.37,3.41-14.5-4.29-14.78A21.89,21.89,0,0,0,117.36,138c-10,.43-6.73,6.2-6.73,6.2s-10.85,0-1,10.51l15-6.15,10.37,3.85Z"/><polygon class="cls-5" points="108.93 159.1 108.09 150.61 111.09 152.79 108.93 159.1"/><path class="cls-5" d="M123.51,171a1.84,1.84,0,0,1-1.69-.93c-.62-1.35,1-3.53,1.15-3.78l.45.33c-.44.6-1.5,2.33-1.1,3.22q.25.53,1.23.6Z"/><rect class="cls-5" x="129.65" y="159.69" width="1.49" height="5.09" transform="translate(-56.92 252.98) rotate(-77.06)"/><rect class="cls-5" x="113.75" y="161.49" width="5.09" height="1.49" transform="translate(-33.4 30.19) rotate(-12.95)"/><path class="cls-5" d="M118.06,165.5a.88.88,0,1,1-1.76,0,.88.88,0,1,1,1.76,0"/><path class="cls-5" d="M130.4,165.5a.88.88,0,0,1-1.76,0,.88.88,0,0,1,1.76,0"/><path class="cls-5" d="M123.26,175a4.28,4.28,0,0,1-1.4-.21l.19-.52-.09.26.09-.26a4.89,4.89,0,0,0,4.87-1.39l.38.41A5.82,5.82,0,0,1,123.26,175Z"/><path class="cls-14" d="M140.09,260.84c2.41-2.49,4.6-4.48,4.6-4.48l21.91,11.12s-3.41,6.67-11.6,14.18c-5.13,4.72-7,5.54-7.62,3a2.51,2.51,0,0,1-2.84-2.44s-2,.48-2.91-.94a3,3,0,0,1-.21-2.4s-8.63,6.08-9.92,4.6c-1.53-1.76,4.25-8.87,9.88-14.41"/><path class="cls-15" d="M143,257.91l17.9,17.59a24,24,0,0,0,3.43-4.7Z"/><path class="cls-14" d="M141.38,269.07s-5.8,3.3-7.44.94c-1-1.36,2.81-5.74,6.15-9.17"/><path class="cls-5" d="M139.42,270.13s4.73,14.29,13.48,13.67l.3,18.34-23.37-7.25L128.53,277Z"/><rect class="cls-10" x="122.44" y="280.49" width="0.87" height="11.86" transform="translate(-165.04 405.75) rotate(-89.29)"/><path class="cls-11" d="M141,256.21l21.71,18.34s17.8-23,17.62-29.81-18.53-52.76-41.48-58l12.21,42.61,5.65,8.48a2.6,2.6,0,0,1-.46,3.41Z"/><rect class="cls-5" x="150.24" y="216.07" width="0.45" height="16.3" transform="translate(-34.14 27.15) rotate(-9.27)"/><path class="cls-14" d="M105.7,260.84c-2.42-2.49-4.6-4.48-4.6-4.48L79.18,267.48s3.42,6.67,11.61,14.18c5.13,4.72,7,5.54,7.62,3a2.51,2.51,0,0,0,2.84-2.44s2,.48,2.91-.94a3,3,0,0,0,.2-2.4s8.64,6.08,9.92,4.6c1.54-1.76-4.25-8.87-9.88-14.41"/><path class="cls-15" d="M102.75,257.91,84.85,275.5a24.1,24.1,0,0,1-3.42-4.7Z"/><path class="cls-14" d="M104.4,269.07s5.8,3.3,7.45.94c1-1.36-2.81-5.74-6.15-9.17"/><path class="cls-5" d="M106.37,270.13s-4.73,14.29-13.48,13.67l-.3,18.34L116,294.89l1.3-17.91Z"/><path class="cls-11" d="M104.77,256.21l-21.7,18.34s-17.81-23-17.62-29.81,18-52.72,40.92-58L94.72,229.33l-5.66,8.48a2.61,2.61,0,0,0,.46,3.41Z"/><rect class="cls-5" x="85.89" y="225.01" width="16.3" height="0.45" transform="matrix(0.16, -0.99, 0.99, 0.16, -143.39, 281.78)"/><path class="cls-16" d="M157,239.44c1.32-1.11,5.63-3,12.82,0"/><path class="cls-16" d="M156.87,240.46a9.61,9.61,0,0,1,8.73,1"/><path class="cls-16" d="M88.7,239.44c-1.32-1.11-5.62-3-12.82,0"/><path class="cls-16" d="M88.83,240.46a9.63,9.63,0,0,0-8.74,1"/><polygon class="cls-11" points="135.37 185.89 131.46 185.28 123.26 189.17 115.06 185.28 111.16 185.81 115.06 203.38 123.26 200.43 131.46 203.38 135.37 185.89"/><rect class="cls-10" x="101.6" y="207.72" width="12.1" height="3.68"/><polygon class="cls-10" points="107.65 212.32 101.6 212.32 101.6 219.48 107.65 221.12 113.7 219.48 113.7 212.32 107.65 212.32"/><line class="cls-17" x1="123.26" y1="190.03" x2="123.26" y2="262.97"/><polygon class="cls-18" points="118.47 194.33 123.26 190.03 128.05 194.33 128.85 190.03 123.26 189.17 117.4 192.33 118.47 194.33"/><polygon class="cls-10" points="123.26 189.17 128.05 194.33 137.59 186.32 131.46 185.28 123.26 189.17"/><polygon class="cls-10" points="123.26 189.17 118.47 194.33 109.28 186.02 115.06 185.28 123.26 189.17"/><polygon class="cls-10" points="83.07 274.55 78.28 268.07 94.75 254.1 97.41 254.1 97.41 251.54 98.96 250.5 104.77 256.21 83.07 274.55"/><polygon class="cls-10" points="162.74 274.55 167.54 268.07 151.07 254.1 148.41 254.1 148.41 251.54 146.85 250.5 141.04 256.21 162.74 274.55"/><rect class="cls-7" x="117.3" y="261.86" width="12.08" height="8.87"/><path class="cls-11" d="M123.55,133.81c-14.65,0-29.51,15.28-15.6,19.71h31.2C153.06,149.09,138.2,133.81,123.55,133.81Z"/><path class="cls-10" d="M108,153.52s3.44-4.77,15.6-4.77,15.6,4.77,15.6,4.77Z"/><path class="cls-10" d="M123.55,137s-.74,1.76-3.59,1.55v3.1a3.4,3.4,0,0,0,1.35,2.74,3.26,3.26,0,0,0,4.48,0,3.4,3.4,0,0,0,1.35-2.74v-3.1C124.29,138.76,123.55,137,123.55,137Z"/><path class="cls-9" d="M197.44,308.74l-29.13.44L168.14,298a14.57,14.57,0,0,1,29.13-.44Zm-24.62-4.21,20-.3-.1-6.58a10,10,0,1,0-20,.3Z"/><path class="cls-6" d="M197.53,303.79l-29.46.45a3.71,3.71,0,0,0-3.65,3.76l.34,22.27a3.7,3.7,0,0,0,3.76,3.65l29.46-.44a3.71,3.71,0,0,0,3.65-3.76l-.34-22.28A3.71,3.71,0,0,0,197.53,303.79ZM184.5,319l1.06,7.06-4.85.07.85-7.09a3.8,3.8,0,1,1,5.21-3.58A3.82,3.82,0,0,1,184.5,319Z"/><path class="cls-6" d="M354.56,278.12c-9.3-.59-13.26-4.8-14.83-7.41a1.2,1.2,0,0,0-2-.06c-1.72,2.52-5.92,6.49-15.24,6.53a2.16,2.16,0,0,0-2,1.38c-2.27,5.89-9.11,28.68,16.93,38.36,26.55-8.14,21.07-31.3,19.14-37.31A2.17,2.17,0,0,0,354.56,278.12Z"/><path class="cls-1" d="M351.65,280.52c-7.34-.52-10.64-3.77-12-5.95a1.21,1.21,0,0,0-2-.05c-1.52,2.09-5,5.13-12.36,5.23a2.19,2.19,0,0,0-2,1.4c-2,5.29-7.18,23.91,14.27,31.88,21.89-6.71,17.79-25.59,16.11-31A2.18,2.18,0,0,0,351.65,280.52Z"/><path class="cls-6" d="M347.67,285.58a1.78,1.78,0,0,0-2.5.22l-9.47,11.3-5-3.06a1.78,1.78,0,0,0-2.12,2.84l6.13,5.49.22.17a2.31,2.31,0,0,0,3.21-.56l.06-.09L348,288A1.77,1.77,0,0,0,347.67,285.58Z"/><path class="cls-6" d="M349.58,370v-4.38H346a7.75,7.75,0,0,0-.73-1.78l2.55-2.56-3.1-3.09-2.55,2.55a8,8,0,0,0-1.78-.74v-3.61H336V360a8,8,0,0,0-1.79.74l-2.55-2.55-3.1,3.09,2.56,2.56a7.77,7.77,0,0,0-.74,1.78h-3.61V370h3.61a7.77,7.77,0,0,0,.74,1.78l-2.56,2.55,3.1,3.1,2.55-2.55a8.54,8.54,0,0,0,1.79.74v3.61h4.38v-3.61a8.46,8.46,0,0,0,1.78-.74l2.55,2.55,3.1-3.1-2.55-2.55A7.75,7.75,0,0,0,346,370Zm-11.42,2.24a4.44,4.44,0,1,1,4.43-4.43A4.43,4.43,0,0,1,338.16,372.28Z"/><path class="cls-6" d="M326.71,389.06v-4.38H323.1a8,8,0,0,0-.73-1.79l2.55-2.55-3.1-3.1-2.55,2.56a8.16,8.16,0,0,0-1.78-.74v-3.61h-4.38v3.61a8,8,0,0,0-1.79.74l-2.55-2.56-3.1,3.1,2.55,2.55a8,8,0,0,0-.73,1.79h-3.61v4.38h3.61a7.93,7.93,0,0,0,.73,1.78l-2.55,2.55,3.1,3.1,2.55-2.55a8.54,8.54,0,0,0,1.79.74v3.61h4.38v-3.61a8.68,8.68,0,0,0,1.78-.74l2.55,2.55,3.1-3.1-2.55-2.55a7.93,7.93,0,0,0,.73-1.78ZM315.3,391.3a4.44,4.44,0,1,1,4.43-4.43A4.43,4.43,0,0,1,315.3,391.3Z"/><path class="cls-6" d="M433.39,404.92l4.3-1.44-1.19-3.54a8.27,8.27,0,0,0,1.51-1.31l3.34,1.67,2-4.06L440,394.58a8.27,8.27,0,0,0,.13-2l3.55-1.19-1.44-4.3-3.54,1.19a8.27,8.27,0,0,0-1.31-1.51l1.67-3.34-4.06-2-1.67,3.34a8.77,8.77,0,0,0-2-.14l-1.18-3.54-4.3,1.44,1.18,3.54a8.61,8.61,0,0,0-1.51,1.31l-3.34-1.67-2,4.06,3.34,1.66a8.32,8.32,0,0,0-.14,2l-3.54,1.18,1.43,4.3,3.55-1.18a8.49,8.49,0,0,0,1.3,1.5l-1.66,3.35,4.05,2,1.67-3.34a8.81,8.81,0,0,0,2,.14Zm-5.95-10.47a4.59,4.59,0,1,1,5.81,2.9A4.6,4.6,0,0,1,427.44,394.45Z"/><path class="cls-6" d="M413.73,386.57l2.58-.86-.71-2.12a4.56,4.56,0,0,0,.9-.79l2,1,1.21-2.43-2-1a5.26,5.26,0,0,0,.08-1.19l2.13-.71-.86-2.58-2.13.71a5.27,5.27,0,0,0-.78-.91l1-2-2.44-1.21-1,2a4.74,4.74,0,0,0-1.19-.08l-.71-2.13-2.58.86.71,2.13a4.81,4.81,0,0,0-.9.78l-2-1-1.21,2.43,2,1a5.31,5.31,0,0,0-.08,1.2l-2.12.71.86,2.58,2.12-.71a5.2,5.2,0,0,0,.79.9l-1,2,2.43,1.22,1-2a4.74,4.74,0,0,0,1.19.09Zm-3.56-6.28a2.75,2.75,0,1,1,3.48,1.74A2.74,2.74,0,0,1,410.17,380.29Z"/><path class="cls-6" d="M5,281.32l1.43,4.3L10,284.43a8.27,8.27,0,0,0,1.31,1.51l-1.67,3.34,4.05,2L15.33,288a8.27,8.27,0,0,0,2,.13l1.19,3.55,4.3-1.44-1.19-3.54a8.27,8.27,0,0,0,1.51-1.31L26.47,287l2-4.06-3.34-1.67a8.23,8.23,0,0,0,.13-2l3.55-1.18-1.44-4.3L23.86,275a8.61,8.61,0,0,0-1.31-1.51l1.67-3.34-4.06-2-1.67,3.34a8.23,8.23,0,0,0-2-.14l-1.18-3.54L11,269.23l1.18,3.55a8.56,8.56,0,0,0-1.51,1.3l-3.34-1.66-2,4.05,3.34,1.67a8.27,8.27,0,0,0-.14,2Zm10.47-5.95a4.59,4.59,0,1,1-2.9,5.81A4.6,4.6,0,0,1,15.46,275.37Z"/><path class="cls-6" d="M23.34,261.66l.86,2.58,2.12-.71a4.92,4.92,0,0,0,.79.91l-1,2,2.43,1.21,1-2a5.26,5.26,0,0,0,1.19.08l.71,2.13L34,267l-.71-2.13a5.27,5.27,0,0,0,.91-.78l2,1,1.21-2.44-2-1a5.22,5.22,0,0,0,.08-1.19l2.13-.71-.86-2.58-2.13.71a5.2,5.2,0,0,0-.78-.9l1-2-2.43-1.21-1,2a5.31,5.31,0,0,0-1.2-.08l-.71-2.12-2.58.86.71,2.12a4.86,4.86,0,0,0-.9.79l-2-1-1.22,2.43,2,1a5.26,5.26,0,0,0-.08,1.19Zm6.28-3.56a2.75,2.75,0,1,1-1.74,3.48A2.75,2.75,0,0,1,29.62,258.1Z"/><path class="cls-10" d="M365.76,60.1a5.43,5.43,0,1,1,5.42-5.42A5.43,5.43,0,0,1,365.76,60.1Zm0-8.85a3.43,3.43,0,1,0,3.42,3.43A3.44,3.44,0,0,0,365.76,51.25Z"/><path class="cls-10" d="M347.52,26.7a5.43,5.43,0,1,1,5.42-5.43A5.43,5.43,0,0,1,347.52,26.7Zm0-8.85a3.43,3.43,0,1,0,3.42,3.42A3.42,3.42,0,0,0,347.52,17.85Z"/><path class="cls-11" d="M359.35,41.51a1,1,0,0,1-1-1V29.7a1,1,0,1,1,2,0V40.51A1,1,0,0,1,359.35,41.51Z"/><path class="cls-11" d="M364.76,36.1H353.94a1,1,0,0,1,0-2h10.82a1,1,0,0,1,0,2Z"/><path class="cls-10" d="M4,189.06a5.43,5.43,0,1,1,5.43,5.42A5.44,5.44,0,0,1,4,189.06Zm2,0a3.43,3.43,0,1,0,3.43-3.43A3.43,3.43,0,0,0,6,189.06Z"/><path class="cls-10" d="M22.2,155.65a5.43,5.43,0,1,1,5.43,5.43A5.43,5.43,0,0,1,22.2,155.65Zm2,0a3.43,3.43,0,1,0,3.43-3.42A3.44,3.44,0,0,0,24.2,155.65Z"/><path class="cls-11" d="M15.79,175.89a1,1,0,0,0,1-1V164.08a1,1,0,0,0-2,0v10.81A1,1,0,0,0,15.79,175.89Z"/><path class="cls-11" d="M10.39,170.48H21.2a1,1,0,0,0,0-2H10.39a1,1,0,0,0,0,2Z"/><path class="cls-1" d="M448.41,67.92a7,7,0,1,1,7,7A7,7,0,0,1,448.41,67.92Z"/><circle class="cls-1" cx="425.73" cy="66.92" r="3.75"/><circle class="cls-1" cx="438.6" cy="39.91" r="6.33"/><circle class="cls-1" cx="97.85" cy="13.39" r="13.39" transform="translate(0.98 32.65) rotate(-19.04)"/><circle class="cls-1" cx="448.41" cy="204.03" r="5.89"/><path class="cls-1" d="M11.3,11.54a6,6,0,1,1-2.69-8A6,6,0,0,1,11.3,11.54Z"/><path class="cls-1" d="M440.37,295.68a9.57,9.57,0,1,1-4.31-12.83A9.57,9.57,0,0,1,440.37,295.68Z"/><path class="cls-1" d="M454.5,319.61a4.51,4.51,0,1,1-2-6A4.51,4.51,0,0,1,454.5,319.61Z"/><path class="cls-1" d="M432,327.83a4.49,4.49,0,1,1-2-6A4.49,4.49,0,0,1,432,327.83Z"/><circle class="cls-1" cx="35.23" cy="395.29" r="4.95"/><path class="cls-1" d="M4.22,380.15a2.65,2.65,0,1,1,2.65,2.66A2.65,2.65,0,0,1,4.22,380.15Z"/><path class="cls-1" d="M18.84,362.78a4.49,4.49,0,1,1,4.49,4.49A4.49,4.49,0,0,1,18.84,362.78Z"/><path class="cls-1" d="M405.35,140.92a4.1,4.1,0,1,1,5.55,1.7A4.1,4.1,0,0,1,405.35,140.92Z"/><circle class="cls-1" cx="31.59" cy="72.88" r="8.12" transform="translate(-46.01 55.91) rotate(-54.23)"/><path class="cls-1" d="M45.44,44.58a4.1,4.1,0,1,1-1.23,5.67A4.09,4.09,0,0,1,45.44,44.58Z"/></g></g></svg>