<svg xmlns="http://www.w3.org/2000/svg" viewBox="0 0 458.6 208.14"><g id="Layer_2" data-name="Layer 2"><g id="Layer_1-2" data-name="Layer 1"><path d="M163.46,37c-2.23,2.37-4.37,4.62-6.71,7.1-.61-.75-1.15-1.39-1.66-2C142.4,25.45,125.88,15,105.37,11,60.87,2.36,17.29,33.32,10.68,78.16a80.84,80.84,0,0,0,62.25,91.07c2.63.59,5.31,1,8.19,1.47V100.05c-5.9-.12-11.78,0-17.66,0s-11.81,0-18,0c-.14-3.26,0-6.26-.06-9.54,5.11-.45,10.11-.15,15.1-.2s10.08,0,15.12,0h15c.52,2,.65,87.13.16,90.37a88.45,88.45,0,0,1-10.41-.24A90.6,90.6,0,0,1,74.66,1.17c35.69-5,65,6.15,87.76,34.29.35.43.67.89,1,1.35C163.49,36.94,163.5,37.11,163.46,37Z"/><path d="M150.12,131c-2.06,2.58-4,5-6.12,7.7L109,103.8c-.59,2.63-.25,4.91-.31,7.16s0,4.64,0,7v42l-9.07,1.69-.4-.45c0-.07-.13-.12-.14-.19a9.62,9.62,0,0,1-.13-1.19q0-69.93,0-139.87a4.82,4.82,0,0,1,.26-1,40.81,40.81,0,0,1,9.42,1.75v56a2.75,2.75,0,0,0,.46.19.35.35,0,0,0,.23,0,2.65,2.65,0,0,0,.39-.26c.29-.28.56-.57.84-.85l32.7-33.13a1.82,1.82,0,0,1,.38-.29,2.79,2.79,0,0,1,.58-.21,64.39,64.39,0,0,1,5.88,7.46l-40.46,41Z"/><path d="M415.37,100v5c-1,0-1.76.13-2.53.13H395.56c-4.44,0-5,.62-4.53,5.37h18.89v5.23H391.16a18.72,18.72,0,0,0-.15,6.57,2.37,2.37,0,0,0,2.23,1.88,11.1,11.1,0,0,0,1.91.08H415.2v5.06a8.67,8.67,0,0,1-1.51.24c-6.47,0-12.95,0-19.43,0a8.26,8.26,0,0,1-8.72-8.73c.16-4.15,0-8.31,0-12.47.06-5.33,3.21-8.52,8.52-8.56,6.47,0,12.95,0,19.43,0C414.07,99.85,414.6,99.94,415.37,100Z"/><path d="M305.88,108H301c-.62-2.55-2.55-2.93-4.92-2.82-3,.14-6.08,0-9.12,0a8.43,8.43,0,0,0-1.67.08,2.77,2.77,0,0,0-2.27,2.72,2.71,2.71,0,0,0,2,2.66,8.9,8.9,0,0,0,2.13.2c3.36,0,6.72-.08,10.08,0a9.29,9.29,0,0,1,2.68,18,11.68,11.68,0,0,1-3.5.68c-3,.09-6.09.13-9.12,0-5.53-.22-9.24-3.89-9.41-9.3h4.87c.17.4.39.89.61,1.39a4,4,0,0,0,3.74,2.57c3.19.08,6.4.11,9.59,0a4,4,0,0,0,4-3.48,3.83,3.83,0,0,0-2.41-4.24,7.05,7.05,0,0,0-2.34-.33c-3.28,0-6.57.06-9.84,0-4.49-.12-7.49-2.7-8.24-6.91-.79-4.45,2.41-9,6.9-9.25A136.3,136.3,0,0,1,299,100C303,100.15,305.88,103.6,305.88,108Z"/><path d="M420.35,120.26h4.91c.65,3.41,3.07,4.22,6.21,4,2.15-.12,4.32,0,6.48,0a8.67,8.67,0,0,0,1.9-.17,4.12,4.12,0,0,0,3.3-4.14,4,4,0,0,0-3.94-3.77c-3.12-.09-6.24,0-9.36,0a17.76,17.76,0,0,1-3.57-.32,7.88,7.88,0,0,1-6.11-8.56,7.72,7.72,0,0,1,7.25-7.34c4.55-.17,9.12-.18,13.67,0,4.14.17,7,3.49,7.15,7.84a2.35,2.35,0,0,1-.64.23c-1.36,0-2.72,0-4.2,0-.69-2.43-2.44-3-4.78-2.88-3,.15-6.08,0-9.12,0a10.11,10.11,0,0,0-1.91.09,2.65,2.65,0,0,0-2.15,2.53,2.51,2.51,0,0,0,1.8,2.78,7.16,7.16,0,0,0,2.12.25c3.28,0,6.56,0,9.84,0a9.37,9.37,0,0,1,9.22,8.95,9,9,0,0,1-7.8,9.44,62,62,0,0,1-13.13-.08C423.1,128.68,420.14,124.57,420.35,120.26Z"/><path d="M349.26,115.85v13.59h-4.9c-.51-1.61-.67-25.84-.17-29.39a3.56,3.56,0,0,1,.84-.19c6,0,12-.09,18,0a8,8,0,0,1,3.2,15.25c-.63.31-1.32.52-2.19.86l6.82,13.6a45.75,45.75,0,0,1-5-.06,2.49,2.49,0,0,1-1.48-1.27c-1.56-2.88-3.1-5.77-4.51-8.72a5.94,5.94,0,0,0-6.12-3.7C352.33,115.89,351,115.85,349.26,115.85Zm.1-5.31h13.39a2.85,2.85,0,0,0,1.16-.21,2.54,2.54,0,0,0,1.63-2.17,2.32,2.32,0,0,0-1.11-2.46,5.3,5.3,0,0,0-2.26-.51c-3.74-.05-7.48,0-11.22,0a13.32,13.32,0,0,0-1.59.24Z"/><path d="M233.22,48.77c.77-.05,1.39-.12,2-.12,5.27,0,10.54,0,15.81,0a12.56,12.56,0,0,1,3.76.58,8,8,0,0,1,.63,14.69,23.72,23.72,0,0,1-2.33.9c2.22,4.4,4.42,8.77,6.74,13.39H254l-4-7.68c-.55-1.06-1-2.16-1.67-3.18A4.86,4.86,0,0,0,244,64.82c-1.75,0-3.5,0-5.5,0V78.21h-5.26Zm5.29,10.71c4.6,0,9,0,13.36,0a3.08,3.08,0,0,0,1.15-.28,2.53,2.53,0,0,0,1.65-2.64,2.39,2.39,0,0,0-1.75-2.32A7.16,7.16,0,0,0,250.8,54c-3,0-5.91,0-8.86,0h-3.43Z"/><path d="M333.94,78.22V48.86a16.21,16.21,0,0,1,1.87-.21c5.36,0,10.71,0,16.06,0a12.15,12.15,0,0,1,3.75.59A8,8,0,0,1,356.21,64c-.63.32-1.33.52-2.31.9l6.82,13.54c-1.9,0-3.46,0-5,0-.92,0-1.2-.64-1.53-1.28-1.5-2.91-3.06-5.79-4.49-8.73a5.67,5.67,0,0,0-5.89-3.6c-1.43.09-2.86,0-4.53,0V78.22ZM339.3,59.5c4.36,0,8.42,0,12.49,0,2.48,0,3.69-1,3.68-2.78S354.29,54,351.77,54c-3.6,0-7.19,0-10.78,0a13.77,13.77,0,0,0-1.69.2Z"/><path d="M193.68,48.64v5.22c-.76,0-1.52.1-2.28.1-4.08,0-8.16-.05-12.24,0a9.53,9.53,0,0,0-9.67,8c-.94,5.12,2.74,10.46,7.94,11,3.54.35,7.15.07,10.88.07V67.45h-9.22V62.2h14.53v16a8.69,8.69,0,0,1-1.34.21c-4.56,0-9.12.09-13.68,0a14.81,14.81,0,0,1-2.85-29.31,22.78,22.78,0,0,1,4-.41c3.92,0,7.84,0,11.76,0Z"/><path d="M208.76,100c5.71,0,11.24-.3,16.73.08,7,.49,12.6,6.78,12.9,13.86a14.77,14.77,0,0,1-11.82,15.31,25.73,25.73,0,0,1-4.29.39c-3.68,0-7.36,0-11,0-.78,0-1.56-.07-2.48-.11ZM214,124.3c3.57,0,6.85.14,10.11,0a9.45,9.45,0,0,0,8.94-8.72c.3-5-2.78-9.51-7.56-10.12-3.73-.48-7.58-.1-11.49-.1Z"/><path d="M174.21,100l24.13,18.54a41.87,41.87,0,0,0,.19-6.13c0-2.08,0-4.16,0-6.24v-6.15h5.17v29.34l-24-18.42c-.63,2.16-.26,4.12-.32,6s0,4.15,0,6.23v6.16h-5.16Z"/><path d="M316.18,60.64,329,78.38c-2.28,0-4.08.1-5.86-.06-.56,0-1.19-.7-1.58-1.23-2.62-3.53-5.19-7.1-7.78-10.64-.47-.65-1-1.27-1.64-2.17-1.89,1.69-3.62,3.42-5.53,4.92a4.84,4.84,0,0,0-2.07,4.73,39.2,39.2,0,0,1,0,4.35h-5.13V48.79c.56,0,1-.13,1.48-.14h3.63V63.82c1.05-.88,1.65-1.35,2.21-1.86,4.38-4,8.78-7.93,13.09-12a4.54,4.54,0,0,1,3.64-1.37c1.64.11,3.29,0,4.94,0l.24.48Z"/><path d="M405.54,78.3h-5.25V48.92a6.24,6.24,0,0,1,1.3-.26c5.67,0,11.34,0,17,0A8,8,0,0,1,425.43,52a7.62,7.62,0,0,1,.79,8.15,7.39,7.39,0,0,1-6.83,4.49c-3.67.1-7.35,0-11,0h-2.82Zm.06-18.78h13.21a3,3,0,0,0,.94-.15,2.69,2.69,0,0,0,2-2.69,2.47,2.47,0,0,0-2.13-2.52,9.35,9.35,0,0,0-1.91-.13c-3,0-5.92,0-8.88,0H405.6Z"/><path d="M198.72,48.72h5c.05.82.15,1.58.15,2.34,0,4.07,0,8.15,0,12.22a9.61,9.61,0,0,0,6.57,9.33A9.48,9.48,0,0,0,223,64c.1-4.23,0-8.46,0-12.7,0-.78.07-1.55.12-2.46h5a13.51,13.51,0,0,1,.2,1.62c0,4.47.07,8.94,0,13.41a14.83,14.83,0,0,1-29.06,4,16.54,16.54,0,0,1-.68-4.24c-.08-4.55,0-9.11,0-13.66A10.08,10.08,0,0,1,198.72,48.72Z"/><path d="M265,48.72h5c.05.82.15,1.58.15,2.34,0,4.07,0,8.15,0,12.22a9.61,9.61,0,0,0,6.57,9.33A9.48,9.48,0,0,0,289.23,64c.1-4.23,0-8.46,0-12.7,0-.78.07-1.55.12-2.46h5a13.51,13.51,0,0,1,.2,1.62c0,4.47.07,8.94,0,13.41a14.83,14.83,0,0,1-29.06,4,16.54,16.54,0,0,1-.68-4.24c-.08-4.55,0-9.11,0-13.66A10.08,10.08,0,0,1,265,48.72Z"/><path d="M365.63,48.77h5.12c.05.87.13,1.64.13,2.41,0,4,0,8,0,12a9.67,9.67,0,0,0,7.15,9.64,9.48,9.48,0,0,0,12-8.73c.12-4.15,0-8.31,0-12.46V48.83h5.15a14.1,14.1,0,0,1,.16,1.46c0,4.55.08,9.1,0,13.66a14.84,14.84,0,0,1-29.11,3.72,12.94,12.94,0,0,1-.59-3.3C365.59,59.27,365.63,54.17,365.63,48.77Z"/><path d="M243.17,99.93h5.15c.06.67.16,1.35.16,2,0,4.15,0,8.31,0,12.46a9.55,9.55,0,0,0,7.76,9.61,9.43,9.43,0,0,0,11.36-9c.09-4.15,0-8.3,0-12.46V100h5.18c.05.64.13,1.25.13,1.86,0,4.16-.11,8.32,0,12.47a14.87,14.87,0,0,1-29.44,3.24,23.92,23.92,0,0,1-.37-4C243.15,109.11,243.17,104.65,243.17,99.93Z"/><path d="M327.12,129.49H321.8V105.23H309.58v-5c1.63-.52,24.8-.72,29.46-.23v5.09H327.12Z"/><path d="M438.69,48.73l15.18,29.66a49.65,49.65,0,0,1-5.26-.07c-.52-.06-1.1-.82-1.4-1.4-2.45-4.67-4.83-9.37-7.24-14.05-.36-.71-.75-1.4-1.31-2.43l-9.19,17.85h-5.91C428.61,68.41,433.54,58.78,438.69,48.73Z"/><path d="M169.12,129.47h-5V100.06h5Z"/><path d="M380.63,129.47c-.66.05-1.2.12-1.74.13-1,0-2.05,0-3.23,0V100.05h5Z"/><path d="M175.89,159.31c-.83,0-1.26.13-1.44,0a3.22,3.22,0,0,0-2.86-.48,4.43,4.43,0,0,1-4.72-3.56,4.54,4.54,0,0,1,2.63-5.12,4.35,4.35,0,0,1,5.44,1.74,4.08,4.08,0,0,1,.39,3.91A2.87,2.87,0,0,0,175.89,159.31Zm-2.16-3.77c.42-2.21.07-3.32-1.21-4a2.9,2.9,0,0,0-3.32.49,3.37,3.37,0,0,0-.4,4c.7,1.13,1.62,1.43,3.3,1l-.95-2.1Z"/><path d="M393.3,155.87l-1.91-.41c.54-1.43.92-1.51,3.9-.93,0,2.41-1.07,3.8-3.24,4.24a4.55,4.55,0,0,1-4.95-2.55,4.48,4.48,0,0,1,1.19-5.43c1.78-1.48,4.14-1.35,6.35.41-.21.63-.45,1.11-1.31.75a7.13,7.13,0,0,0-2.23-.7,2.68,2.68,0,0,0-2.77,2.18,3.16,3.16,0,0,0,1.4,3.53,2.62,2.62,0,0,0,3.46-.43C393.28,156.45,393.25,156.24,393.3,155.87Z"/><path d="M447.17,154.46c-.14,2.61-1.21,3.94-3.37,4.34a4.55,4.55,0,0,1-5-2.89,4.48,4.48,0,0,1,1.57-5.33c1.79-1.29,4.13-1,6.08.69-.26.65-.54,1.1-1.38.63a5,5,0,0,0-1.76-.66,2.75,2.75,0,0,0-3.11,2,3.16,3.16,0,0,0,1.42,3.72c1.28.74,2.2.53,3.66-.94l-2.13-.69C443.87,154.07,443.87,154.07,447.17,154.46Z"/><path d="M426.93,158.77c-2.92-.87-3.05-3.78-5.12-5.15-.08,1.65-.15,3.18-.23,4.67-.9.4-1.35.15-1.36-.7,0-2.47,0-4.93,0-7.42,1.87-.57,2.05,1,2.71,1.84a15.24,15.24,0,0,0,2.42,2.77c.08-1.53.15-3.06.22-4.56.92-.45,1.35-.15,1.36.68C427,153.37,426.93,155.84,426.93,158.77Z"/><path d="M68.16,196.84,75,204.68l.59-.2v-8.29c.56.59.83.74.83.9,0,3.33,0,6.67,0,10.26-1.74-.88-2.55-2.46-3.69-3.67s-2.27-2.57-3.39-3.86l-.55.17v8.09c-1-1.31-1.06-1.31-1-5.71C67.81,200.62,67.46,198.81,68.16,196.84Z"/><path d="M211.78,158.26c-1.75.88-1.67-.82-2.41-1.5h-3c-.87.34-.62,2.43-2.5,1.5.95-2.51,1.88-5,2.89-7.52a1.44,1.44,0,0,1,1.06-.74,1.41,1.41,0,0,1,1.05.74C209.88,153.23,210.82,155.75,211.78,158.26Zm-2.85-3.19c-.38-.89-.67-1.6-1.12-2.67-.44,1.08-.73,1.78-1.08,2.67Z"/><path d="M375.71,158.22c-1.78.89-1.68-.79-2.47-1.48-.56,0-1.26-.05-2-.1a1.43,1.43,0,0,0-1.66,1c-.28.8-.8,1.14-1.83.57,1-2.49,1.9-5,2.92-7.48a1.09,1.09,0,0,1,2.05,0C373.78,153.21,374.73,155.72,375.71,158.22Zm-5.11-3,2.26-.11-1.15-2.53C371.27,153.57,371,154.19,370.6,155.18Z"/><path d="M320.82,158.45c-1.55-.19-1.55-.19-2.56-1.74h-2.8c-1,.26-.68,2.44-2.65,1.56.94-2.48,1.87-5,2.87-7.45.15-.36.69-.85,1-.8a1.73,1.73,0,0,1,1.2.86C318.88,153.3,319.79,155.77,320.82,158.45Zm-2.93-3.38c-.38-.89-.67-1.6-1.12-2.67l-1.09,2.67Z"/><path d="M338.86,156.33c1.17.88.58,1.33-.08,1.76a4.73,4.73,0,0,1-5.57-.3,4.9,4.9,0,0,1-1.14-5.48,4.63,4.63,0,0,1,5-2.46,4.13,4.13,0,0,1,2.76,1.66,4.7,4.7,0,0,1-1.28.53c-.26,0-.53-.32-.82-.44-1.62-.7-3-.44-3.87.73a3.5,3.5,0,0,0,.05,4,3,3,0,0,0,3.89.6C338.15,156.78,338.48,156.55,338.86,156.33Z"/><path d="M458.3,129.73h-4.85v-5.08h4.83A10.51,10.51,0,0,1,458.3,129.73Z"/><path d="M192.73,150.11c0,2.15.08,4.21,0,6.26a2.61,2.61,0,0,1-2.49,2.47,2.72,2.72,0,0,1-3-2.17,30.9,30.9,0,0,1-.16-6.59l.54-.24c.32.31.81.57.91.94a7.49,7.49,0,0,1,.09,1.9c0,.8,0,1.6,0,2.39.06,1.66.53,2.45,1.42,2.31,1.3-.21,1.25-1.25,1.25-2.22,0-1.36,0-2.72,0-4.07C191.27,150.33,191.51,149.83,192.73,150.11Z"/><path d="M89.51,205.17a5.42,5.42,0,0,1-6.41,2.68,5.63,5.63,0,0,1-4.32-5.38,5.55,5.55,0,0,1,3.76-5.78,5.78,5.78,0,0,1,7,2.16c-.66-.21-1-.32-1.44-.46a14.1,14.1,0,0,0-3.09-1,4.49,4.49,0,0,0-4.74,2.92,5,5,0,0,0,1.13,5.52,5.22,5.22,0,0,0,5.81.73C87.82,206.17,88.44,205.78,89.51,205.17Z"/><path d="M353.13,152.45c1.43-.52,1.41-3,3.77-2.32L354.23,154c1,1.42,2,2.83,3,4.38-2.67.62-2.54-2.26-4.1-2.81-.51,2.55-.51,2.55-1.71,2.93a78.87,78.87,0,0,1,0-8.56C353.47,150.13,352.5,151.65,353.13,152.45Z"/><path d="M97.85,207.65H91.91v-11c2.1-.12,4.07-.43,6,.17v.56H93V201l4.92.26c-1.46,1.29-3.18.51-4.89,1v4.63H97.9Z"/><path d="M123.52,207.81c.07-1.9,1.73-2.87,2.23-4.54-.58-.17-1.18-.28-1.73-.5A3.17,3.17,0,0,1,122,199a3.4,3.4,0,0,1,6.7.7,5.51,5.51,0,0,1-.07.71C128.32,202,125.25,206.6,123.52,207.81Zm4.09-8.11a2.36,2.36,0,0,0-4.71-.2,2.46,2.46,0,0,0,2.27,2.56A2.36,2.36,0,0,0,127.61,199.7Z"/><path d="M114.84,207.69c.14-1.8,1.81-2.78,2.25-4.43-.51-.14-1-.24-1.54-.42a3.23,3.23,0,0,1-2.16-4.18,3.42,3.42,0,0,1,4-2.25,3.37,3.37,0,0,1,2.54,4,2.78,2.78,0,0,1-.25.92q-2.1,3.18-4.24,6.34C115.38,207.75,115.15,207.69,114.84,207.69Zm4.13-8a2.36,2.36,0,0,0-4.71-.2,2.46,2.46,0,0,0,2.27,2.56A2.36,2.36,0,0,0,119,199.7Z"/><path d="M136.48,197v6.76l1.07.61-1.71,3.71c-.23-1.12-.39-1.91-.59-2.9H130.3c1.92-3.11,3.85-5.67,5.68-8.31Zm-1.07,3.29-.46-.23L132.26,204h3.15Z"/><path d="M60.94,198.36c-.5-.3-1-.79-1.51-.86a2.46,2.46,0,0,0-1.89.39,2.29,2.29,0,0,0,0,1.93c.22.53.87.89,1.34,1.31a21.81,21.81,0,0,1,1.95,1.76A2.91,2.91,0,0,1,61,207a3.2,3.2,0,0,1-4.33.33,8.92,8.92,0,0,1-1.18-1.4l.32-.41a11.44,11.44,0,0,1,1.11.69c1.22,1,2.31,1.1,3.15.24s.81-2-.33-3.14c-.78-.79-1.71-1.42-2.53-2.18a2.7,2.7,0,0,1-1-3,2.45,2.45,0,0,1,2.29-1.79,2.62,2.62,0,0,1,2.84,1.55Z"/><path d="M296.82,150.2c3.13-.47,4.54,0,4.9,1.54.4,1.71-.38,2.52-3.13,3.25-.76,1,.45,2.56-.83,3.47-.14.1-.44,0-.94-.06v-8.2Zm3.82,2.29a7.45,7.45,0,0,0-1.46-1c-.18-.06-.69.35-.77.63-.17.57-.08,1.2.73,1.13C299.54,153.19,299.9,152.86,300.64,152.49Z"/><path d="M268.43,158.38a29.21,29.21,0,0,0-.66-4.29,28,28,0,0,0-1.93-3.94c2.36-.69,2,1.82,3.14,2.29,1.26-.4.85-2.92,3.12-2.34a15.81,15.81,0,0,1-.75,1.8c-1,1.67-1.8,3.35-1.55,5.38C269.9,158.09,269.64,158.72,268.43,158.38Z"/><path d="M224.68,156.67c1,.77,2.44-.1,2.42,1.72h-4c0-2.53,0-5,0-7.56,0-.28.43-.56.65-.84.3.29.84.58.85.88C224.72,152.84,224.68,154.81,224.68,156.67Z"/><path d="M255.14,150.13c0,.39,0,.91-.13.93-1.55.38-1.27,1.59-1.28,2.67,0,1.51,0,3,0,4.49-1,.46-1.56.42-1.59-.65,0-1.36,0-2.72,0-4.08,0-1.07.07-2.09-1.28-2.43-.1,0-.1-.41-.18-.8A8.39,8.39,0,0,1,255.14,150.13Z"/><path d="M238.49,150c1.35.67,1.36.67,1.19,6.7,0,.76.38,1.86-1.06,1.84C238,156.85,237.94,152.52,238.49,150Z"/><path d="M407.76,158.66c-.31-.32-.87-.63-.88-1-.08-2.3-.08-4.61,0-6.91,0-.33.57-.64.88-1l.42.22v8.2Z"/><path d="M106.57,196.68l1.94-.18c.48,2.56.41,9.49-.22,11.64a8.16,8.16,0,0,1-.51-1.74c0-2.47-.07-4.93,0-7.39,0-1-.27-1.65-1.42-1.79Z"/><path d="M64.13,196.62c1,1.45,1.16,8.8.43,11.29-1-1.19-.48-2.48-.56-3.62-.1-1.35,0-2.71,0-4.07C64,199,64.08,197.82,64.13,196.62Z"/><path d="M103.19,203.41a3.7,3.7,0,0,1-3.8.08A5.3,5.3,0,0,1,103.19,203.41Z"/></g></g></svg>