<svg xmlns="http://www.w3.org/2000/svg" viewBox="0 0 355.15 413.93"><defs><style>.cls-1{fill:#9fc6d3;}</style></defs><g id="Layer_2" data-name="Layer 2"><g id="Layer_1-2" data-name="Layer 1"><path class="cls-1" d="M355.15,87.19c-3.8,3.67-7.76,7.19-11.33,11.06-3,3.21-4.67,3.29-7.39-.58-11.52-16.39-25.2-30.87-41.64-42.32C272.84,40.06,249,29.48,222,25.61c-21.09-3-41.84-3.42-62.38,1.73C114.69,38.62,79,63.7,53.26,102.25,36,128,27,156.87,23.25,187.66c-5,41.81,4.29,80.72,25.17,116.37,25.22,43.06,62.54,71.32,111.71,82.76,15.93,3.71,15.94,3.67,15.94-12.65,0-45.81-.1-91.62.14-137.42,0-5.79-1.37-7.53-7.32-7.42-21.23.38-42.46,0-63.69.24-4.76.05-7-1-6.48-6.19.46-5.06.2-10.17.25-15.26,1.6-1.1,3.43-.66,5.15-.66,29.16,0,58.31.09,87.47-.13,4.83,0,6.37,1.08,6.35,6.18q-.27,96.78,0,193.58c0,4.94-1.19,6.63-6.24,6.32-4.32-.27-8.79-.94-13.09.55h-1.33c-18.72-1-36.44-6.13-53.64-13.21A186.79,186.79,0,0,1,71,368c-18.3-16.09-33.76-34.34-45.09-55.94C12.14,285.83,1.46,258.73.56,228.44,0,211-.53,193.51.93,176.13,2.34,159.32,7.22,143,13.5,127.46,22.88,104.16,35.61,82.65,52.69,64a204.76,204.76,0,0,1,69.46-49.93C144.37,4.34,167.44,0,191.73,0,215.11,0,238,1.28,260.18,9.55a199.08,199.08,0,0,1,67.21,41.53c7.08,6.63,14.12,13.38,20.17,21.07,3.31,4.2,6.35,8.42,7.59,13.71Z"/><path class="cls-1" d="M235.68,238.22v7.83c0,37.84-.05,75.69.14,113.54,0,4.29-1.2,6.75-5.35,7.66a63.08,63.08,0,0,1-7.1,1.48c-9.06.94-9.07.88-9.07-8.41V58.88q0-3.33.11-6.64c.27-8.58.39-8.66,9.24-6.88,12,2.41,12,2.41,12,14.64V176.34c4.58-2.06,6.9-5.3,9.48-8.06,21-22.44,42-44.86,62.69-67.56,4-4.39,6.14-3.44,9,.64,10.53,15.13,10.59,10.94-1.11,23.44-24.32,26-48.54,52.05-73,77.94-3.69,3.91-3.72,6,.34,10.13,18.62,18.89,36.68,38.33,55,57.55,7.77,8.17,15.49,16.39,23.46,24.37,3.25,3.24,3.53,5.86.92,9.77-9.25,13.81-9.17,13.95-20.71,1.83Q270.86,274,240.09,241.46C239.22,240.54,238,239.92,235.68,238.22Z"/></g></g></svg>