<svg xmlns="http://www.w3.org/2000/svg" xmlns:xlink="http://www.w3.org/1999/xlink" viewBox="0 0 353.43 415.29"><defs><style>.cls-1,.cls-2{stroke:#1f85ff;stroke-miterlimit:10;}.cls-1{fill:url(#Degradado_sin_nombre_2003);}.cls-2{fill:url(#linear-gradient);}</style><linearGradient id="Degradado_sin_nombre_2003" x1="0.5" y1="207.65" x2="352.92" y2="207.65" gradientUnits="userSpaceOnUse"><stop offset="0" stop-color="#ff0094"/><stop offset="0.16" stop-color="#c90896"/><stop offset="0.39" stop-color="#821298"/><stop offset="0.6" stop-color="#4a1a9a"/><stop offset="0.78" stop-color="#221f9b"/><stop offset="0.92" stop-color="#09239c"/><stop offset="1" stop-color="#00249c"/></linearGradient><linearGradient id="linear-gradient" x1="127.97" y1="183.63" x2="386.95" y2="249.22" xlink:href="#Degradado_sin_nombre_2003"/></defs><g id="Layer_2" data-name="Layer 2"><g id="Layer_1-2" data-name="Layer 1"><g id="Layer_2-2" data-name="Layer 2"><g id="Layer_1-2-2" data-name="Layer 1-2"><path class="cls-1" d="M352.74,84.07c-3.7,3.71-7.63,7.39-11,11.3-2.9,3.28-4.58,3.4-7.37-.44-11.88-16.08-25.9-30.25-42.68-41.29-22.32-14.79-46.42-24.79-73.44-28-21.15-2.46-41.85-2.41-62.3,3.23C111.23,41.22,76.17,67.18,51.33,106.32c-16.62,26.15-25,55.21-27.95,86.1-4,41.94,6.19,80.59,28,115.76,26.27,42.44,64.24,69.79,113.69,80.08,16,3.3,16,3.3,15.64-13-1-45.77-2.31-91.55-3.17-137.39-.11-5.76-1.52-7.46-7.47-7.28-21.23.9-42.44,1-63.65,1.71-4.77.15-7-.81-6.64-6s0-10.2-.09-15.32c1.59-1.16,3.39-.68,5.15-.84,29.16-.67,58.32-1.34,87.41-2.2,4.81-.05,6.38.94,6.55,6q2.1,96.79,4.62,193.52c.1,4.9-1,6.64-6.06,6.45-4.35-.12-8.78-.75-13.1.83l-1.3,0c-18.68-.53-36.52-5.25-54-11.95a187.19,187.19,0,0,1-53.44-31.5c-18.7-15.66-34.59-33.5-46.39-54.87-14.43-25.92-25.69-52.76-27.3-82.95-1-17.43-1.94-34.89-.9-52.27C2,164.39,6.41,148,12.41,132.29,21.25,108.75,33.46,87,50.06,68a206.22,206.22,0,0,1,68.19-51.59c22-10.22,45-15.13,69.23-15.71,23.41-.57,46.24.16,68.71,7.91a200.88,200.88,0,0,1,68.22,39.88c7.27,6.5,14.44,13,20.63,20.61,3.44,4.13,6.56,8.27,7.88,13.56Z"/><path class="cls-2" d="M236.94,237.94l.19,7.87c1,37.86,1.78,75.65,2.83,113.47.06,4.27-1,6.73-5.11,7.8-2.31.69-4.69,1.19-7.07,1.69-9,1.16-9,1.07-9.22-8.2L211.35,59.18c0-2.25,0-4.5,0-6.65.06-8.62.15-8.65,9-7.08,12.11,2.13,12.11,2.13,12.39,14.37l2.63,116.23c4.51-2.19,6.78-5.44,9.33-8.27,20.45-22.92,40.9-45.85,61.06-69,3.91-4.53,6-3.53,9,.46,10.86,14.87,10.84,10.69-.6,23.43-23.66,26.55-47.28,53.18-71.15,79.71-3.6,4-3.52,6.1.61,10.07,19,18.43,37.63,37.46,56.36,56.23,7.94,7.95,15.92,16,24,23.78,3.3,3.22,3.65,5.77,1.13,9.76-8.91,14-8.84,14.19-20.69,2.29q-31.54-31.63-63.16-63.45C240.51,240.2,239.31,239.59,236.94,237.94Z"/></g></g></g></g></svg>