<svg xmlns="http://www.w3.org/2000/svg" viewBox="0 0 59.68 66.87"><defs><style>.cls-1{fill:#fff;}</style></defs><g id="Layer_2" data-name="Layer 2"><g id="Layer_1-2" data-name="Layer 1"><g id="Layer_2-2" data-name="Layer 2"><g id="Layer_1-2-2" data-name="Layer 1-2"><path class="cls-1" d="M57.22,16.32c-.38-.49-.72-1-1.09-1.42-.53-.63-1.07-1.25-1.61-1.86a12,12,0,0,0-1-1c-.53-.51-1.09-1-1.65-1.46S51,9.78,50.56,9.41c-.22-.18-.46-.33-.7-.49s-.72-.52-1.09-.77-.46-.29-.7-.42c-.62-.32-1.21-.66-1.84-1s-1-.45-1.58-.68c-.74-.33-1.47-.69-2.23-1-.54-.21-1.13-.28-1.68-.44s-.78-.29-1.17-.39a9.6,9.6,0,0,0-1-.18,13.6,13.6,0,0,1-2.23-.29,9.8,9.8,0,0,0-2.52-.18c-1,0-2,0-3,0-.71,0-1.41.14-2.11.24s-1.26.21-1.89.35c-.44.11-.87.28-1.31.42-.07,0-.15,0-.21,0l-1.76.57a5.08,5.08,0,0,0-.52.15l-1.4.65,0,0c-.56.24-1.14.46-1.69.73s-1,.56-1.48.84a9,9,0,0,0-.88.44c-.44.27-.87.58-1.29.89s-.91.66-1.35,1c-.28.23-.55.47-.81.71-.53.47-1.07.92-1.56,1.42s-1,1.1-1.54,1.66-.85,1.05-1.26,1.56c-.26.32-.51.65-.75,1s-.3.48-.45.72-.45.78-.69,1.16-.34.53-.49.8-.43.75-.62,1.13c-.06.11-.08.25-.13.37-.3.72-.62,1.43-.91,2.15-.14.35-.23.73-.37,1.08s-.29.56-.39.86-.09.43-.12.65c-.09.42-.22.84-.3,1.27A19,19,0,0,1,4,28.67a14.22,14.22,0,0,0-.2,1.68,24.82,24.82,0,0,0-.16,5.31,14.64,14.64,0,0,0,.22,2.2c.1.67.21,1.33.37,2A9.61,9.61,0,0,0,4.6,41c0,.1,0,.2.05.3a5.6,5.6,0,0,0,.55,1.77c.07.22.14.44.19.66s.26.57.37.86.12.4.21.58c.35.76.7,1.53,1.07,2.28s.64,1.25,1,1.85a8.29,8.29,0,0,0,.55.77c.17.23.35.46.51.7s.47.77.74,1.13a11.31,11.31,0,0,0,.9,1.05c.62.68,1.23,1.37,1.89,2,.4.39.86.72,1.28,1.09s.57.6.89.86.79.59,1.19.88l1.4,1c.27.17.55.31.83.46l1.14.62c.34.19.68.39,1,.56.55.27,1.1.54,1.66.78.39.16.79.28,1.18.41l1.65.54c.45.12.9.2,1.35.32s.6.17.9.22a4.27,4.27,0,0,1,1.16.19,3,3,0,0,0,1.22.18h.14V37.09l-.38,0H17c-.45,0-.49,0-.49-.49V33.51H33.27V66.87h-.35c-.6,0-1.19,0-1.78,0a19,19,0,0,1-3.1-.35c-.6-.08-1.22-.14-1.82-.27s-1.3-.36-2-.55c-.46-.13-.93-.24-1.38-.39s-.68-.27-1-.4l-.07,0c-.75-.27-1.51-.49-2.23-.81s-1.2-.65-1.8-1q-.29-.15-.57-.27a5.84,5.84,0,0,1-1.49-.91c-.16-.12-.36-.2-.54-.31-.34-.2-.68-.41-1-.64s-.73-.48-1.08-.75-.69-.59-1-.89l-1.32-1.25c-.52-.49-1.07-1-1.56-1.48s-1.13-1.28-1.67-2-1.08-1.32-1.56-2-.84-1.48-1.31-2.18a11.78,11.78,0,0,1-1.17-2.15c-.19-.48-.39-.94-.6-1.4s-.52-1-.71-1.56c-.26-.71-.45-1.46-.69-2.18-.1-.3-.24-.59-.35-.89A2.74,2.74,0,0,1,1,41.87c-.11-.47-.23-.94-.34-1.41v0c-.08-.55-.18-1.09-.25-1.64s-.06-1.4-.18-2.08a26.67,26.67,0,0,1-.12-6,25.17,25.17,0,0,1,.34-3.13c.13-.76.35-1.5.53-2.25.1-.4.16-.8.28-1.19s.37-1,.53-1.5.28-.94.41-1.41a3.43,3.43,0,0,1,.23-.52c.33-.66.67-1.32,1-2,.15-.3.24-.63.4-.92.23-.44.51-.87.76-1.31s.51-.94.79-1.4.59-.88.9-1.31.49-.64.74-1l1.42-1.7c.46-.52.9-1.05,1.37-1.56q.36-.35.75-.66c.42-.35.81-.72,1.23-1.06s1.07-.75,1.52-1.21a10.57,10.57,0,0,1,1.1-.83A12.09,12.09,0,0,1,15.62,5c.59-.37,1.17-.76,1.77-1.11.29-.17.62-.28.92-.42.55-.26,1.08-.55,1.64-.8.36-.16.75-.26,1.12-.42s.87-.4,1.31-.57a6.06,6.06,0,0,1,.7-.19c.36-.1.71-.21,1.07-.3L26.08.68l0,0c.51-.08,1-.18,1.55-.25S28.85.34,29.42.23A36,36,0,0,1,36.06.08a16.85,16.85,0,0,1,2.83.36C39.62.57,40.34.8,41,1c.4.1.8.16,1.19.28q1,.28,1.89.6c.52.18,1,.38,1.54.6.34.14.65.34,1,.49.53.24,1.07.44,1.57.71s1.07.67,1.61,1,.9.45,1.31.74a12.16,12.16,0,0,1,1.63,1.25,16,16,0,0,0,1.39,1.07c.41.34.8.72,1.2,1.09s.92.83,1.36,1.25.56.58.83.89.71.8,1.05,1.21.68.89,1,1.35a.62.62,0,0,1-.18.84c-.62.57-1.24,1.17-1.85,1.75A2.19,2.19,0,0,1,57.22,16.32Z"/><path class="cls-1" d="M39.62,38.44V57.61c0,.44.07.87.07,1.3,0,.1-.16.26-.28.3-.52.16-1,.3-1.58.41a6.48,6.48,0,0,1-.77.07,3.73,3.73,0,0,0-.46.09.4.4,0,0,1-.51-.24.57.57,0,0,1,0-.18V8.47a5.78,5.78,0,0,1,.11-.6.59.59,0,0,0-.07-.26c-.15-.35,0-.59.37-.54.73.1,1.45.24,2.18.35.17,0,.35,0,.52,0a.45.45,0,0,1,.45.45v20.3a1.12,1.12,0,0,0,.12.35,1.77,1.77,0,0,0,.32-.21l1.25-1.22c.26-.26.5-.54.76-.8l1.08-1.09c.28-.29.54-.59.81-.87s.8-.77,1.18-1.17.5-.54.75-.8.61-.6.9-.91.78-.84,1.18-1.25.92-.9,1.37-1.36.67-.72,1-1.08.58-.61.88-.91.76-.7,1.09-1.09.41-.23.57,0c.43.53.84,1.09,1.25,1.64a5.74,5.74,0,0,1,.53.76.38.38,0,0,1,0,.37c-.64.69-1.31,1.36-2,2.05s-1.23,1.35-1.87,2L48.41,25c-.61.6-1.21,1.21-1.82,1.82l-2,2-1.91,2c-.53.54-1.12,1-1.61,1.6a10.83,10.83,0,0,1-.83.83.5.5,0,0,0,0,.5c.34.37.74.67,1.1,1s.5.53.75.8.68.71,1,1.06l1.08,1.08.85.84c.29.29.55.55.82.84s.67.71,1,1.07L48,41.6,49.39,43c.41.41.8.83,1.21,1.25s.92.9,1.37,1.36.92.94,1.39,1.41.81.84,1.23,1.24c.22.19.16.35,0,.53-.27.38-.54.76-.83,1.13a13.35,13.35,0,0,1-1.1,1.27c-.23.23-.4-.13-.53-.25-.39-.35-.72-.76-1.08-1.14s-.88-.89-1.33-1.34l-1.24-1.27c-.46-.48-.92-.95-1.4-1.43s-1.06-1-1.59-1.58c-.34-.34-.66-.69-1-1l-1-1c-.46-.46-.89-.94-1.35-1.4s-.72-.66-1.07-1-.61-.67-.93-1A2.57,2.57,0,0,0,39.62,38.44Z"/></g></g></g></g></svg>