<svg xmlns="http://www.w3.org/2000/svg" xmlns:xlink="http://www.w3.org/1999/xlink" viewBox="0 0 320.28 369.07"><defs><style>.cls-1{fill:url(#linear-gradient);}.cls-2{fill:url(#linear-gradient-2);}</style><linearGradient id="linear-gradient" x1="1.39" y1="125.86" x2="305.82" y2="226.8" gradientUnits="userSpaceOnUse"><stop offset="0" stop-color="#fff"/><stop offset="0.17" stop-color="#b3b3b3"/><stop offset="0.56"/></linearGradient><linearGradient id="linear-gradient-2" x1="135.05" y1="94.58" x2="298.71" y2="270.08" gradientUnits="userSpaceOnUse"><stop offset="0" stop-color="#fff"/><stop offset="0.17" stop-color="#d6d6d6"/><stop offset="0.55" stop-color="#6e6e6e"/><stop offset="0.92"/></linearGradient></defs><g id="Layer_2" data-name="Layer 2"><g id="Layer_1-2" data-name="Layer 1"><g id="Layer_2-2" data-name="Layer 2"><g id="Layer_1-2-2" data-name="Layer 1-2"><path class="cls-1" d="M320.28,77.7c-3.53,3.29-7,6.29-10.2,9.66-2.76,2.9-4,2.83-6.59-.39-10.72-14.58-23.2-27.52-38.37-37.85C244.87,35.43,223.37,26,198.85,22.5c-19.07-2.52-38-3.16-56.68,1.54-40.41,10.34-72.55,32.69-95,66.83-15.39,23-22.92,48.53-25.91,76.06-3.9,37.15,5,71.89,24.76,103.64C69.48,309,103.89,334.25,148.53,344.3c14.36,3.3,14.36,3.3,14.17-11.27-.8-40.69-1.51-81.66-1.94-122.55,0-5.26-1.26-6.55-6.68-6.6-19.23.21-38.37.13-57.81,0-4.15,0-6.42-1-6-5.49a103.65,103.65,0,0,0-.14-13.63c1.6-1.07,3.07-.64,4.62-.49,26.49.08,53,.15,79.26-.14,4.45.08,5.75,1.08,5.76,5.4,1,58.36,2,115.78,3.29,173.29,0,4.33-1.08,5.86-5.53,5.78-3.78-.18-8.06-.83-12,.5l-1.26-.07c-17-1-33.21-5.45-48.88-11.91a174.82,174.82,0,0,1-48.22-29.33C50.26,313.52,36,297,25.32,277.77,12.37,254.5,2.26,230.22.93,203.27c-.81-15.68-1.42-31-.38-46.43.86-14.88,5.21-29.66,10.57-43.52A178.14,178.14,0,0,1,107.9,12.41C128,3.81,148.61,0,170.65,0c21.08,0,41.82,1.19,62.27,8.76a188.4,188.4,0,0,1,61.63,37c6.55,6,13.11,11.89,18.74,18.8,3.07,3.68,5.76,7.56,6.94,12.23Z"/><path class="cls-2" d="M214.5,212.4l.22,6.86c.58,33.83,1.25,67.38,1.83,101.21.17,3.76-1.08,5.86-4.9,6.9a35.57,35.57,0,0,1-6.42,1.2c-8.19.67-8.19.67-8.37-7.41L192.29,52.38a37.61,37.61,0,0,1,.12-5.83c0-7.71.33-7.62,8.22-6.23,10.83,2.27,10.83,2.27,11.14,13.16l1.75,103.66c4.07-1.89,6.17-4.67,8.47-7.08,18.62-19.84,37.32-40,55.73-60.18,3.69-3.85,5.37-3,8.14.55,9.8,13.38,9.92,9.71-.69,20.79-21.55,23.3-43,46.32-64.87,69.54-3.23,3.37-3.14,5.25.52,9.1,17.1,16.77,33.75,34,50.68,51.36,7.11,7.35,14.21,14.69,21.69,21.83,2.94,3,3.24,5.28,1,8.62C286,284.1,286,284.1,275.48,273.28c-19-19.17-37.82-38.62-56.78-57.79C217.78,214.29,216.6,214,214.5,212.4Z"/></g></g></g></g></svg>