<svg xmlns="http://www.w3.org/2000/svg" xmlns:xlink="http://www.w3.org/1999/xlink" viewBox="0 0 268.69 154.88"><defs><style>.cls-1{isolation:isolate;}.cls-2{fill:#bc7c46;}.cls-3{fill:#006ab7;opacity:0.1;}.cls-3,.cls-4,.cls-5,.cls-6,.cls-7{mix-blend-mode:color-burn;}.cls-4,.cls-6{opacity:0.25;}.cls-4{fill:url(#linear-gradient);}.cls-5,.cls-7{opacity:0.15;}.cls-5{fill:url(#linear-gradient-2);}.cls-6{fill:url(#linear-gradient-3);}.cls-7{fill:url(#linear-gradient-4);}</style><linearGradient id="linear-gradient" x1="19.77" y1="8.14" x2="29.45" y2="24.99" gradientUnits="userSpaceOnUse"><stop offset="0" stop-color="#696767"/><stop offset="0.41" stop-color="#f9f9f9"/><stop offset="1" stop-color="#696767"/></linearGradient><linearGradient id="linear-gradient-2" x1="5.89" y1="26.58" x2="3.07" y2="27.2" gradientUnits="userSpaceOnUse"><stop offset="0" stop-color="#696767"/><stop offset="1" stop-color="#f9f9f9"/></linearGradient><linearGradient id="linear-gradient-3" x1="3.46" y1="24.83" x2="5.61" y2="28.95" gradientUnits="userSpaceOnUse"><stop offset="0" stop-color="#696767"/><stop offset="0.51" stop-color="#f9f9f9"/><stop offset="1" stop-color="#696767"/></linearGradient><linearGradient id="linear-gradient-4" x1="3.46" y1="24.83" x2="5.61" y2="28.95" xlink:href="#linear-gradient-2"/></defs><g class="cls-1"><g id="Layer_2" data-name="Layer 2"><g id="Layer_1-2" data-name="Layer 1"><path class="cls-2" d="M78.74,38.49a4,4,0,0,0,0-7h0L43.14,12a4,4,0,0,0-3.85,0L11.13,27.45a4,4,0,0,0,0,7l31.14,17.1a46.29,46.29,0,0,0,5.48,2.52A4,4,0,0,0,51,53.77Z"/><polygon class="cls-3" points="44.15 13.29 8.16 34.07 4.77 32.11 40.71 11.31 44.15 13.29"/><path class="cls-2" d="M39.45.7A3.58,3.58,0,0,0,35.84.34L1.53,20.24c.92-.53,2.15-.3,3.56.51a11.17,11.17,0,0,1,5.05,8.76A3.5,3.5,0,0,1,8.52,32.7L43,12.7A3.54,3.54,0,0,0,44.5,9.45,11.14,11.14,0,0,0,39.45.7Z"/><path class="cls-4" d="M39.45.7A3.58,3.58,0,0,0,35.84.34L1.53,20.24c.92-.53,2.15-.3,3.56.51a11.17,11.17,0,0,1,5.05,8.76A3.5,3.5,0,0,1,8.52,32.7L43,12.7A3.54,3.54,0,0,0,44.5,9.45,11.14,11.14,0,0,0,39.45.7Z"/><path class="cls-2" d="M5.09,20.63a11.14,11.14,0,0,1,5.05,8.75c0,3.22-2.29,4.51-5.09,2.9a11.13,11.13,0,0,1-5-8.75C0,20.31,2.29,19,5.09,20.63Z"/><path class="cls-5" d="M4.54,24.27A5,5,0,0,1,6.8,28.19c0,1.44-1,2-2.28,1.29a5,5,0,0,1-2.26-3.91C2.27,24.13,3.28,23.55,4.54,24.27Z"/><path class="cls-6" d="M5.54,29.34a1.68,1.68,0,0,1-.79-.25,4.52,4.52,0,0,1-2-3.52c0-.35.08-1.15.8-1.15a1.57,1.57,0,0,1,.79.25,4.51,4.51,0,0,1,2,3.52C6.34,28.53,6.26,29.34,5.54,29.34Z"/><path class="cls-7" d="M5.54,29.34a1.68,1.68,0,0,1-.79-.25,4.52,4.52,0,0,1-2-3.52c0-.35.08-1.15.8-1.15a1.57,1.57,0,0,1,.79.25,4.51,4.51,0,0,1,2,3.52C6.34,28.53,6.26,29.34,5.54,29.34Z"/><path class="cls-2" d="M268.69,134.78c-1.47.45-7.55-2.86-7.55-2.86l-37.5-20.59-36.44,20L224.7,152s6.08,3.31,7.55,2.87Z"/><path class="cls-2" d="M110.63,56.11a4,4,0,0,0,0-7h0L75,29.57a4,4,0,0,0-3.85,0L43,45.08a4,4,0,0,0,0,7L74.16,69.16a44.61,44.61,0,0,0,5.48,2.52,4,4,0,0,0,3.22-.28Z"/><path class="cls-2" d="M144.6,74.82a4,4,0,0,0,0-7h0L109,48.28a4,4,0,0,0-3.85,0L77,63.78a4,4,0,0,0,0,7l31.14,17.1a46.29,46.29,0,0,0,5.48,2.52,4,4,0,0,0,3.22-.28Z"/><path class="cls-2" d="M176.33,92.36a4,4,0,0,0,0-7h0L140.72,65.82a4,4,0,0,0-3.84,0l-28.17,15.5a4,4,0,0,0,0,7l31.13,17.1a45.21,45.21,0,0,0,5.48,2.51,4,4,0,0,0,3.22-.28Z"/><path class="cls-2" d="M200.58,105.63a4,4,0,0,0,0-7h0L165,79.09a4,4,0,0,0-3.85,0L133,94.6a4,4,0,0,0,0,7l31.14,17.09a43.84,43.84,0,0,0,5.48,2.52,4,4,0,0,0,3.22-.28Z"/><path class="cls-2" d="M235.05,124.86a4,4,0,0,0,0-7h0L199.44,98.32a4,4,0,0,0-3.84,0l-28.16,15.5a4,4,0,0,0,0,7l31.13,17.1a45.93,45.93,0,0,0,5.49,2.52,4,4,0,0,0,3.22-.29Z"/></g></g></g></svg>