<svg xmlns="http://www.w3.org/2000/svg" viewBox="0 0 708.77 472.97"><defs><style>.cls-1{fill:#d3d3d3;}</style></defs><g id="Layer_2" data-name="Layer 2"><g id="Layer_1-2" data-name="Layer 1"><g id="Layer_2-2" data-name="Layer 2"><g id="Layer_1-2-2" data-name="Layer 1-2"><path class="cls-1" d="M389.08,221.41c-4.83,2.15-9.76,4.1-14.43,6.52-3.92,2-5.52,1.49-6.75-3.07-5.22-19.34-13.12-37.63-24.65-54C327.85,149,309.07,130.88,285,118c-18.79-10-38.15-17.53-59.21-19.71-46.08-4.77-88.2,6.59-125.57,34-25,18.29-43.36,42.35-57.41,70-19,37.57-23.58,77.32-16.15,118,9,49.09,34.38,88.41,76.67,116,13.7,8.94,13.72,8.9,19.3-6.43,15.67-43.05,31.25-86.13,47.14-129.09,2-5.44,1.28-7.54-4.35-9.47-20.08-6.91-39.89-14.53-59.93-21.56-4.49-1.58-6.23-3.34-4-8s3.67-9.49,5.46-14.26c1.88-.48,3.44.55,5.06,1.14,27.4,10,54.76,20,82.24,29.8,4.54,1.65,5.62,3.19,3.85,8Q164.8,377.16,132,468.22c-1.69,4.64-3.39,5.83-8,3.81-4-1.73-7.94-3.89-12.49-4l-1.25-.46C92.93,460.27,78,449.39,64.29,436.85A186.65,186.65,0,0,1,26,388.1c-11.69-21.38-20-43.81-23.24-68-4-29.35-4.73-58.47,4.78-87.24,5.44-16.58,10.92-33.2,18.24-49,7.07-15.32,17.24-29,28.46-41.44,16.78-18.68,36.1-34.54,58.53-46.23A204.82,204.82,0,0,1,195.14,73c24.2-1.54,47.37,2.27,70.19,10.58,22,8,43,17,61.06,32.38a199.27,199.27,0,0,1,48.95,62c4.39,8.66,8.69,17.41,11.75,26.7,1.67,5.08,3.09,10.09,2.44,15.48Z"/><path class="cls-1" d="M225.16,322.47l-2.68,7.36c-12.94,35.56-25.94,71.11-38.7,106.74-1.47,4-3.44,5.93-7.65,5.37a64.33,64.33,0,0,1-7.18-1c-8.83-2.21-8.82-2.27-5.65-11L266.4,146.64q1.14-3.13,2.38-6.21c3.19-8,3.33-8,11-3.3,10.46,6.37,10.46,6.37,6.27,17.86L246.29,264.31c5-.37,8.3-2.62,11.67-4.33,27.41-13.9,54.81-27.79,82-42,5.26-2.76,6.95-1.13,8.24,3.68,4.72,17.82,6.21,13.9-9.06,21.64-31.74,16.12-63.41,32.31-95.25,48.28-4.81,2.41-5.55,4.36-3.15,9.63,11,24.12,21.36,48.57,32,72.89,4.51,10.34,8.95,20.7,13.71,30.93,2,4.15,1.31,6.71-2.48,9.49-13.41,9.82-13.38,10-20.08-5.36Q246,368.13,228.19,327C227.69,325.86,226.75,324.86,225.16,322.47Z"/></g></g><g id="Layer_2-3" data-name="Layer 2"><g id="Layer_1-2-3" data-name="Layer 1-2"><path class="cls-1" d="M319.69,315.39c4.83-2.15,9.75-4.11,14.43-6.52,3.92-2,5.51-1.5,6.75,3.07,5.21,19.34,13.12,37.63,24.65,54,15.4,21.88,34.18,40,58.23,52.84,18.79,10,38.15,17.53,59.21,19.71,46.08,4.77,88.19-6.59,125.56-34,25-18.3,43.36-42.35,57.42-70,19-37.58,23.57-77.32,16.15-118-9-49.09-34.38-88.41-76.67-116-13.7-8.93-13.73-8.9-19.31,6.44C570.44,150,554.87,193.12,539,236.07c-2,5.45-1.29,7.55,4.34,9.48,20.08,6.9,39.9,14.52,59.93,21.56,4.49,1.58,6.24,3.33,4,8s-3.66,9.49-5.45,14.26c-1.88.48-3.45-.56-5.06-1.15-27.41-10-54.77-20-82.24-29.79-4.54-1.65-5.62-3.19-3.86-8Q544,159.63,576.82,68.58c1.69-4.65,3.39-5.83,8-3.81,4,1.73,7.93,3.89,12.48,4l1.25.46c17.25,7.34,32.15,18.22,45.89,30.76a186.69,186.69,0,0,1,38.28,48.75c11.69,21.37,20,43.81,23.23,68,4,29.36,4.74,58.48-4.77,87.25-5.44,16.58-10.93,33.2-18.24,49-7.08,15.31-17.24,29-28.46,41.44-16.78,18.68-36.1,34.54-58.53,46.22a204.71,204.71,0,0,1-82.35,23.17c-24.21,1.54-47.37-2.27-70.2-10.58-22-8-43-17-61.05-32.38a199,199,0,0,1-48.95-62c-4.39-8.65-8.7-17.4-11.75-26.7C320,327,318.59,322,319.23,316.64Z"/><path class="cls-1" d="M483.61,214.33l2.68-7.36c12.94-35.56,25.93-71.11,38.7-106.74,1.47-4,3.44-5.94,7.65-5.37a61.91,61.91,0,0,1,7.17,1c8.84,2.21,8.83,2.27,5.65,11L442.36,390.16q-1.14,3.13-2.37,6.2c-3.19,8-3.33,8-11,3.31-10.45-6.37-10.45-6.37-6.27-17.86l39.79-109.33c-5,.37-8.29,2.62-11.66,4.34-27.41,13.9-54.81,27.79-82,42-5.26,2.76-6.94,1.13-8.24-3.68-4.72-17.82-6.21-13.9,9.06-21.65,31.75-16.11,63.42-32.31,95.26-48.27,4.8-2.41,5.55-4.36,3.14-9.63-11-24.12-21.35-48.57-32-72.89-4.5-10.34-8.95-20.7-13.71-30.93-1.94-4.15-1.31-6.71,2.48-9.49,13.42-9.82,13.39-10,20.09,5.36q17.92,41,35.7,82.09A43.45,43.45,0,0,0,483.61,214.33Z"/></g></g><g id="Layer_2-4" data-name="Layer 2"><g id="Layer_1-2-4" data-name="Layer 1-2"><path class="cls-1" d="M449.53,93.7c-1.38-.76-2.74-1.57-4.15-2.25-1.18-.57-1.35-1-.47-2.15a50.64,50.64,0,0,0,8.56-15.5,49.23,49.23,0,0,0,2.27-23.24A47.08,47.08,0,0,0,449.88,33,52,52,0,0,0,419.22,9.35c-8.87-2.66-17.93-2.7-27.09-1.09a55.26,55.26,0,0,0-31.24,17.28c-10.19,10.9-15.09,24-14.14,38.9.3,4.84.32,4.84,5,3.42,13.15-4,26.29-8,39.46-11.92,1.66-.5,2-1,1.5-2.72-1.94-6-3.66-12-5.55-18.06-.43-1.34-.32-2.07,1.22-2.37s2.93-.83,4.4-1.26c.45.36.48.92.63,1.4,2.51,8.28,5,16.56,7.56,24.81.42,1.37.24,1.91-1.22,2.34q-27.81,8.36-55.57,16.85c-1.42.43-2,.24-2.35-1.22a9.65,9.65,0,0,0-1.28-3.66l-.12-.38a48.17,48.17,0,0,1-.82-16.37,55.25,55.25,0,0,1,4.86-17.79,58.29,58.29,0,0,1,12.18-17.66c6.34-6.19,13.2-11.58,21.82-14.47a137.07,137.07,0,0,1,15-4.45A50.76,50.76,0,0,1,408.57.26a62.42,62.42,0,0,1,21.58,5.59,60.77,60.77,0,0,1,20.31,15.37,50.1,50.1,0,0,1,10,18.52c2,6.63,3.61,13.24,3.15,20.25a58.83,58.83,0,0,1-6.14,22.69,56.61,56.61,0,0,1-4.31,7.56,10.81,10.81,0,0,1-3.28,3.35Z"/><path class="cls-1" d="M395.89,73l-2.24.68c-10.87,3.29-21.73,6.57-32.58,9.92-1.23.38-2,.25-2.66-.85a19.26,19.26,0,0,1-1-1.89c-1.05-2.48-1-2.49,1.64-3.3l86.52-26.24c.64-.19,1.28-.38,1.92-.55,2.48-.67,2.52-.64,2.77,2,.34,3.61.34,3.61-3.17,4.68l-33.4,10.12a8.52,8.52,0,0,0,3.13,2c8.25,4,16.49,8,24.79,11.91,1.6.75,1.52,1.44.59,2.61-3.44,4.3-2.23,4-6.82,1.72-9.56-4.63-19.12-9.24-28.66-13.93-1.44-.7-2-.53-2.88,1C400,79.76,396,86.58,392,93.45c-1.68,2.92-3.37,5.82-5,8.78a2,2,0,0,1-2.72,1.11c-4.76-1.42-4.8-1.39-2.31-5.72Q388.66,86,395.34,74.48A11.31,11.31,0,0,0,395.89,73Z"/></g></g></g></g></svg>